<svg width="16" height="16" viewBox="0 0 16 16" fill="none" xmlns="http://www.w3.org/2000/svg">
<rect width="16" height="16" rx="8" fill="#62A047"/>
<path fill-rule="evenodd" clip-rule="evenodd" d="M12.1427 12.6663C12.425 12.6663 12.6742 12.4775 12.7563 12.2012L14.6396 6.00755C14.7138 5.75798 14.6363 5.48716 14.4423 5.31783C14.2483 5.14848 13.9746 5.11281 13.7452 5.227L11.0412 6.57331L8.48515 3.55917C8.36335 3.41551 8.18657 3.33301 8.00066 3.33301C7.81473 3.33301 7.63797 3.41553 7.51616 3.55917L4.96007 6.57328L2.25606 5.22697C2.02671 5.11282 1.75305 5.14845 1.55903 5.31779C1.36503 5.48712 1.28756 5.75795 1.36173 6.00752L3.35917 12.2012C3.44129 12.4775 3.69043 12.6663 3.97277 12.6663H12.1427ZM5.60648 7.81323L8.00066 4.99003L10.3948 7.81322C10.5851 8.0376 10.899 8.10318 11.16 7.97321L12.9847 7.06471L11.6673 11.3545H4.44811L3.01661 7.06471L4.84127 7.97321C5.10241 8.10321 5.41623 8.03755 5.60648 7.81323Z" fill="white"/>
</svg>
