<svg width="24" height="24" viewBox="0 0 24 24" fill="none" xmlns="http://www.w3.org/2000/svg">
<rect width="24" height="24" rx="12" fill="#D80028"/>
<path fill-rule="evenodd" clip-rule="evenodd" d="M16.1427 16.6667C16.425 16.6667 16.6742 16.4779 16.7563 16.2016L18.6396 10.0079C18.7138 9.75835 18.6363 9.48752 18.4423 9.31819C18.2483 9.14885 17.9746 9.11318 17.7452 9.22737L15.0412 10.5737L12.4852 7.55954C12.3634 7.41588 12.1866 7.33337 12.0007 7.33337C11.8147 7.33337 11.638 7.41589 11.5162 7.55953L8.96007 10.5736L6.25606 9.22733C6.02671 9.11318 5.75305 9.14882 5.55903 9.31815C5.36503 9.48748 5.28756 9.75831 5.36173 10.0079L7.35917 16.2016C7.44129 16.4779 7.69043 16.6667 7.97277 16.6667H16.1427ZM9.60648 11.8136L12.0007 8.9904L14.3948 11.8136C14.5851 12.038 14.899 12.1035 15.16 11.9736L16.9847 11.0651L15.6673 15.3549H8.44811L7.01661 11.0651L8.84127 11.9736C9.10241 12.1036 9.41623 12.0379 9.60648 11.8136Z" fill="white"/>
</svg>
