<svg width="24" height="24" viewBox="0 0 24 24" fill="none" xmlns="http://www.w3.org/2000/svg">
<path fill-rule="evenodd" clip-rule="evenodd" d="M18.2131 19C18.6365 19 19.0103 18.7167 19.1334 18.3023L21.9584 9.01181C22.0697 8.63746 21.9535 8.23122 21.6624 7.97723C21.3715 7.72321 20.9609 7.66971 20.6169 7.84099L16.5609 9.86045L12.7268 5.33924C12.5441 5.12376 12.2789 5 12 5C11.7211 5 11.456 5.12378 11.2733 5.33924L7.43913 9.86041L3.38311 7.84094C3.03909 7.66971 2.6286 7.72317 2.33757 7.97717C2.04657 8.23116 1.93036 8.63741 2.04162 9.01177L5.03778 18.3023C5.16096 18.7167 5.53466 19 5.95819 19H18.2131ZM8.40874 11.7203L12 7.48553L15.5913 11.7203C15.8766 12.0569 16.3475 12.1553 16.7391 11.9603L19.4761 10.5975L17.5 17.0322H6.67119L4.52393 10.5975L7.26093 11.9603C7.65264 12.1553 8.12337 12.0568 8.40874 11.7203Z" fill="#D80028"/>
</svg>
