<svg width="57" height="56" viewBox="0 0 57 56" fill="none" xmlns="http://www.w3.org/2000/svg">
<path d="M0.5 28C0.5 43.464 13.036 56 28.5 56C43.964 56 56.5 43.464 56.5 28C56.5 12.536 43.964 0 28.5 0C13.036 0 0.5 12.536 0.5 28Z" fill="#1877F2"/>
<path d="M42.5 28C42.5 20.3 36.2 14 28.5 14C20.8 14 14.5 20.3 14.5 28C14.5 35 19.575 40.775 26.225 41.825V32.025H22.725V28H26.225V24.85C26.225 21.35 28.325 19.425 31.475 19.425C33.05 19.425 34.625 19.775 34.625 19.775V23.275H32.875C31.125 23.275 30.6 24.325 30.6 25.375V28H34.45L33.75 32.025H30.425V42C37.425 40.95 42.5 35 42.5 28Z" fill="white"/>
</svg>
