<svg width="40" height="40" viewBox="0 0 40 40" fill="none" xmlns="http://www.w3.org/2000/svg">
<rect width="40" height="40" rx="20" fill="#B78C5E"/>
<path d="M23.2293 16.7359C23.5435 16.4243 23.7927 16.0537 23.9623 15.6455C24.132 15.2373 24.2187 14.7997 24.2176 14.3579V13.5169C24.2176 13.3974 24.1699 13.2828 24.0851 13.1983C24.0004 13.1138 23.8854 13.0664 23.7655 13.0664H22.9215C22.5175 13.066 22.1168 13.1379 21.7382 13.2784C21.7921 13.025 21.8197 12.7667 21.8205 12.5077C21.8205 12.5029 21.8205 12.4981 21.8205 12.4933C21.8218 12.0012 21.7252 11.5138 21.5363 11.0592C21.3474 10.6045 21.0698 10.1918 20.7198 9.84473L20.3186 9.44466C20.2338 9.36019 20.1188 9.31274 19.999 9.31274C19.8791 9.31274 19.7641 9.36019 19.6793 9.44466L19.2791 9.84443C18.9303 10.1898 18.6534 10.6003 18.4643 11.0526C18.2752 11.5048 18.1776 11.9898 18.1771 12.4798C18.1771 12.4843 18.1771 12.4888 18.1771 12.4933C18.1773 12.757 18.205 13.0201 18.2597 13.2781C17.8815 13.1375 17.481 13.0658 17.0773 13.0664H16.2334C16.1135 13.0664 15.9985 13.1138 15.9137 13.1983C15.8289 13.2828 15.7813 13.3974 15.7813 13.5169V14.3579C15.7799 14.7997 15.8666 15.2374 16.0363 15.6456C16.2059 16.0538 16.4552 16.4244 16.7696 16.7359C16.9318 16.8975 17.1099 17.0425 17.3012 17.1687C17.2271 17.1639 17.1527 17.1612 17.0779 17.1612H16.234C16.1141 17.1612 15.9991 17.2086 15.9143 17.2931C15.8295 17.3776 15.7819 17.4922 15.7819 17.6117V18.4527C15.7805 18.8945 15.8672 19.3322 16.0369 19.7404C16.2065 20.1486 16.4558 20.5191 16.7702 20.8306C16.9324 20.9923 17.1105 21.1373 17.3018 21.2635C17.228 21.2586 17.1536 21.2559 17.0788 21.2559H16.2349C16.115 21.2559 16 21.3034 15.9152 21.3879C15.8304 21.4724 15.7828 21.587 15.7828 21.7065V22.5475C15.7828 22.9893 15.8701 23.4267 16.0397 23.8348C16.2094 24.243 16.458 24.6138 16.7715 24.9262C17.4046 25.5571 18.2632 25.9115 19.1585 25.9115H19.5503V30.2373C19.5503 30.3568 19.598 30.4713 19.6827 30.5558C19.7675 30.6403 19.8825 30.6878 20.0024 30.6878C20.1223 30.6878 20.2373 30.6403 20.3221 30.5558C20.4069 30.4713 20.4545 30.3568 20.4545 30.2373V25.9106H20.8464C21.2886 25.9115 21.7267 25.8251 22.1353 25.6566C22.5439 25.4881 22.9151 25.2407 23.2274 24.9287L23.2308 24.9254C23.545 24.6138 23.7942 24.2432 23.9638 23.8351C24.1335 23.4269 24.2202 22.9893 24.2191 22.5475V21.7065C24.2191 21.587 24.1714 21.4724 24.0866 21.3879C24.0019 21.3034 23.8869 21.2559 23.767 21.2559H22.923C22.848 21.2559 22.7723 21.2586 22.6991 21.2635C22.8892 21.1382 23.0662 20.9943 23.2274 20.8339L23.2308 20.8306C23.545 20.519 23.7942 20.1484 23.9638 19.7403C24.1335 19.3321 24.2202 18.8945 24.2191 18.4527V17.6117C24.2191 17.4922 24.1714 17.3776 24.0866 17.2931C24.0019 17.2086 23.8869 17.1612 23.767 17.1612H22.923C22.848 17.1612 22.7723 17.1639 22.6991 17.1687C22.8893 17.0432 23.0663 16.8989 23.2274 16.738L23.2293 16.7359ZM22.9215 13.9672H23.3133V14.3576C23.314 14.6807 23.2504 15.0008 23.1262 15.2992C23.002 15.5977 22.8198 15.8688 22.59 16.0967L22.5882 16.0985C22.3591 16.3279 22.0867 16.5098 21.7866 16.6335C21.4865 16.7572 21.1648 16.8204 20.84 16.8194H20.4482V16.4289C20.4475 16.1058 20.511 15.7857 20.6352 15.4872C20.7593 15.1887 20.9416 14.9177 21.1716 14.6898L21.1734 14.6877C21.4025 14.4584 21.675 14.2767 21.975 14.153C22.2751 14.0293 22.5968 13.9661 22.9215 13.9672ZM19.0813 12.493C19.0801 12.1191 19.1534 11.7488 19.2968 11.4033C19.4403 11.0579 19.6511 10.7442 19.9171 10.4806L19.9988 10.3992L20.0805 10.4806C20.3451 10.7427 20.5552 11.0542 20.6987 11.3974C20.8421 11.7406 20.9162 12.1086 20.9166 12.4804C20.9166 12.4846 20.9166 12.4891 20.9166 12.4933C20.9178 12.8671 20.8445 13.2375 20.701 13.583C20.5576 13.9284 20.3467 14.242 20.0808 14.5057L19.9991 14.5868L19.9177 14.5057C19.653 14.2434 19.4429 13.9317 19.2993 13.5883C19.1558 13.2449 19.0817 12.8767 19.0813 12.5047V12.493ZM16.6846 14.3579V13.9675H17.0764C17.4012 13.9663 17.7229 14.0295 18.023 14.1532C18.3231 14.277 18.5955 14.4588 18.8245 14.6883C19.0548 14.9166 19.2372 15.1881 19.3614 15.4871C19.4856 15.7861 19.549 16.1068 19.5479 16.4304V16.8209H19.1561C18.5006 16.8209 17.872 16.5614 17.4085 16.0995C16.945 15.6376 16.6846 15.0111 16.6846 14.3579ZM16.6846 18.4527V18.0622H17.0764C17.4012 18.0611 17.7229 18.1243 18.023 18.248C18.3231 18.3718 18.5955 18.5536 18.8245 18.7831C19.0548 19.0113 19.2372 19.2829 19.3614 19.5819C19.4856 19.8809 19.549 20.2015 19.5479 20.5252V20.9156H19.1561C18.5006 20.9156 17.872 20.6562 17.4085 20.1943C16.945 19.7324 16.6846 19.1059 16.6846 18.4527ZM19.1561 25.0092C18.5006 25.0092 17.872 24.7497 17.4085 24.2878C16.945 23.826 16.6846 23.1995 16.6846 22.5463V22.1558H17.0764C17.4009 22.1549 17.7223 22.2182 18.022 22.3419C18.3218 22.4657 18.5939 22.6474 18.8227 22.8767C19.053 23.1049 19.2354 23.3764 19.3596 23.6755C19.4838 23.9745 19.5472 24.2951 19.5461 24.6188V25.0092H19.1561ZM22.9236 22.1558H23.3155V22.5463C23.3163 22.8691 23.2531 23.1889 23.1293 23.4872C23.0056 23.7855 22.8238 24.0565 22.5945 24.2845L22.5918 24.2872C22.3627 24.5166 22.0903 24.6984 21.7902 24.8222C21.4901 24.9459 21.1684 25.0091 20.8436 25.008H20.4518V24.6176C20.4509 24.2948 20.5142 23.975 20.6379 23.6766C20.7617 23.3783 20.9434 23.1074 21.1728 22.8794L21.1755 22.8764C21.4044 22.6475 21.6766 22.4661 21.9763 22.3425C22.276 22.219 22.5972 22.1559 22.9215 22.1567L22.9236 22.1558ZM20.5404 22.2369L20.5371 22.2402C20.3289 22.4473 20.1487 22.6806 20.0009 22.934C19.8531 22.6805 19.6729 22.4471 19.4647 22.2399C19.3026 22.0782 19.1245 21.9333 18.933 21.8074C19.0072 21.8122 19.0817 21.8146 19.1567 21.8146H20.8445C20.9196 21.8146 20.9952 21.8119 21.0685 21.8071C20.8777 21.9326 20.7001 22.0769 20.5383 22.2378L20.5404 22.2369ZM22.9236 18.0619H23.3155V18.4524C23.3164 18.7752 23.2531 19.095 23.1294 19.3933C23.0056 19.6917 22.8239 19.9626 22.5945 20.1906L22.5918 20.1933C22.3627 20.4227 22.0903 20.6045 21.7902 20.7283C21.4901 20.852 21.1684 20.9152 20.8436 20.9141H20.4518V20.5237C20.4511 20.2006 20.5147 19.8805 20.6389 19.582C20.763 19.2835 20.9453 19.0125 21.1752 18.7846L21.177 18.7825C21.4057 18.5536 21.6776 18.3721 21.977 18.2485C22.2764 18.1248 22.5974 18.0614 22.9215 18.0619H22.9236ZM20.5395 18.1439L20.5371 18.1463C20.3289 18.3535 20.1487 18.5867 20.0009 18.8402C19.8531 18.5866 19.6729 18.3533 19.4647 18.146C19.3026 17.9843 19.1245 17.8394 18.933 17.7135C19.0072 17.718 19.0816 17.7207 19.1564 17.7207H20.8442C20.919 17.7207 20.9949 17.718 21.0679 17.7132C20.877 17.8387 20.6993 17.983 20.5374 18.1439H20.5395Z" fill="white"/>
</svg>
