<svg width="40" height="40" viewBox="0 0 40 40" fill="none" xmlns="http://www.w3.org/2000/svg">
<rect width="40" height="40" rx="20" fill="#F26A28"/>
<path d="M23.951 13.8156L23.9511 13.8157C24.9905 14.9686 25.812 16.1797 26.3975 17.4133C28.0366 20.8673 27.7005 23.8845 26.3558 26.0259C25.003 28.1802 22.5999 29.5 19.998 29.5C15.8562 29.5 12.5 26.187 12.5 22.133C12.5 20.4934 12.8892 18.8601 13.6646 17.2757L13.6646 17.2757C15.0364 14.4722 17.7358 11.8241 19.9446 10.5131L19.9446 10.5131C19.9696 10.4983 20.0166 10.489 20.08 10.5256C20.1477 10.5646 20.1589 10.6122 20.1589 10.6249V16.0142V17.1501L20.9966 16.3829L23.8065 13.8095L23.8065 13.8095C23.8478 13.7717 23.9153 13.776 23.951 13.8156ZM20.3105 23.541L20.0088 23.3006L19.6997 23.5314C19.3762 23.7731 18.8732 24.1973 18.4475 24.7748C18.0216 25.3524 17.6528 26.1116 17.6528 27.0103C17.6528 28.295 18.7121 29.3253 19.9979 29.3253C21.2837 29.3253 22.3431 28.295 22.3431 27.0103C22.3431 26.1474 21.9704 25.3951 21.5501 24.8178C21.128 24.2378 20.6297 23.7954 20.3105 23.541ZM22.3106 28.0362L21.7538 29.2368L22.9654 28.7043C25.5132 27.5846 27.3016 25.0644 27.3016 22.1331C27.3016 19.4197 26.2447 16.8173 24.21 14.396L23.8743 13.9966L23.4895 14.349L20.131 17.4248C20.131 17.4248 20.131 17.4248 20.131 17.4248C20.1115 17.4427 20.0946 17.4486 20.0799 17.4507C20.0628 17.4532 20.0416 17.451 20.0205 17.4419C19.9994 17.4329 19.985 17.4199 19.977 17.4084C19.9705 17.3993 19.9646 17.3866 19.9646 17.3637V11.6592V10.6771L19.1704 11.2548C15.6635 13.8062 12.6942 17.6469 12.6942 22.133C12.6942 25.0644 14.4826 27.5846 17.0305 28.7043L18.2421 29.2368L17.6852 28.0362C17.3102 27.2276 17.4102 26.2851 17.8606 25.376C18.3113 24.4662 19.0897 23.6452 19.9595 23.1347L19.9595 23.1347C19.9755 23.1253 19.9947 23.1201 20.0147 23.1205C20.0347 23.121 20.0535 23.127 20.0688 23.1369L20.0689 23.1369C20.9136 23.6835 21.6835 24.5083 22.1318 25.4094C22.5795 26.3093 22.6839 27.2313 22.3106 28.0362Z" fill="white" stroke="white"/>
</svg>
