<svg width="40" height="40" viewBox="0 0 40 40" fill="none" xmlns="http://www.w3.org/2000/svg">
<path d="M16.8168 16.1824C14.6941 17.2173 12.9458 18.8469 11.7617 20.8943C11.5691 21.2266 11.683 21.6512 12.0146 21.8431C12.12 21.9045 12.2398 21.9368 12.3618 21.9367C12.6019 21.9367 12.8352 21.8126 12.9634 21.5902C14.0091 19.7829 15.5526 18.3444 17.4257 17.4303C17.7703 17.2621 17.9134 16.8463 17.7451 16.5019C17.5783 16.1573 17.164 16.0129 16.8168 16.1824Z" fill="#D80028" stroke="#D80028" stroke-width="0.5"/>
<path d="M35.9709 24.9999H34.5469C34.2111 17.9226 28.8201 12.1596 21.9052 11.2504C22.0175 10.9946 22.082 10.7133 22.082 10.4166C22.082 9.26776 21.1475 8.33325 19.9987 8.33325C18.8499 8.33325 17.9154 9.26776 17.9154 10.4166C17.9154 10.7134 17.9799 10.9946 18.0922 11.2504C11.1773 12.1596 5.78633 17.9226 5.45052 24.9999H4.0265C3.93528 24.9999 3.84495 25.0178 3.76067 25.0527C3.67638 25.0876 3.5998 25.1387 3.5353 25.2032C3.4708 25.2677 3.41965 25.3443 3.38477 25.4286C3.34989 25.5128 3.33197 25.6032 3.33203 25.6944V26.3902C3.33203 27.4353 3.63854 30.1145 4.21908 30.9852C4.47234 31.3661 4.81592 31.6784 5.21919 31.8942C5.62246 32.1101 6.07288 32.2227 6.53028 32.2222H33.4671C33.9247 32.2226 34.3752 32.1098 34.7786 31.8939C35.1819 31.6779 35.5256 31.3656 35.779 30.9846C36.3589 30.1137 36.6654 27.4353 36.6654 26.3902V25.6944C36.6654 25.6032 36.6475 25.5128 36.6126 25.4286C36.5778 25.3443 36.5266 25.2677 36.4621 25.2032C36.3976 25.1387 36.321 25.0876 36.2368 25.0527C36.1525 25.0178 36.0621 24.9999 35.9709 24.9999ZM19.9987 9.72219C20.3818 9.72219 20.6932 10.0334 20.6932 10.4167C20.6932 10.7998 20.3819 11.1111 19.9987 11.1111C19.6155 11.1111 19.3042 10.7999 19.3042 10.4167C19.3042 10.0334 19.6156 9.72219 19.9987 9.72219ZM19.9987 12.4999C27.0397 12.4999 32.7934 18.0481 33.158 24.9999H6.83946C7.20404 18.0481 12.9577 12.4999 19.9987 12.4999ZM35.2765 26.3902C35.2772 27.1584 35.0496 29.5762 34.6227 30.2148C34.4961 30.4052 34.3242 30.5613 34.1226 30.6692C33.921 30.7771 33.6958 30.8335 33.4671 30.8333H6.53028C6.30142 30.8336 6.07607 30.7771 5.87432 30.6691C5.67258 30.5611 5.5007 30.4048 5.37402 30.2142C4.94767 29.5756 4.72039 27.1582 4.72096 26.3903L35.2765 26.3902Z" fill="#D80028" stroke="#D80028" stroke-width="0.5"/>
</svg>
