<svg width="40" height="40" viewBox="0 0 40 40" fill="none" xmlns="http://www.w3.org/2000/svg">
<rect width="40" height="40" rx="20" fill="#6CAA39"/>
<path d="M24.6379 12.6625C24.2905 12.4711 24.0044 12.1858 23.8126 11.8394C23.431 11.1454 22.8692 10.5664 22.1861 10.163C21.503 9.75969 20.7237 9.54688 19.9298 9.54688C19.1358 9.54688 18.3565 9.75969 17.6734 10.163C16.9903 10.5664 16.4285 11.1454 16.0469 11.8394C15.855 12.1857 15.5689 12.471 15.2216 12.6625C15.0824 12.7393 14.9474 12.8233 14.8171 12.9143C14.2419 13.3139 13.7702 13.844 13.4408 14.461C13.1114 15.0779 12.9338 15.764 12.9225 16.4628C12.9111 17.1616 13.0665 17.853 13.3757 18.4802C13.685 19.1075 14.1392 19.6525 14.7011 20.0704C14.9382 20.2472 15.1311 20.4763 15.2645 20.7398C15.3979 21.0033 15.4683 21.294 15.4701 21.5892V22.8838C15.4701 25.1196 17.1344 26.9747 19.2925 27.284V29.8186C19.2925 29.987 19.3596 30.1486 19.4791 30.2677C19.5986 30.3868 19.7606 30.4537 19.9296 30.4537C20.0986 30.4537 20.2606 30.3868 20.3801 30.2677C20.4995 30.1486 20.5667 29.987 20.5667 29.8186V27.284C22.7251 26.9747 24.3891 25.1196 24.3891 22.8838V21.5892C24.391 21.294 24.4614 21.0033 24.5949 20.7398C24.7284 20.4763 24.9212 20.2472 25.1584 20.0704C25.7526 19.6283 26.2259 19.0445 26.5349 18.3726C26.8439 17.7007 26.9787 16.9621 26.9269 16.2248C26.8751 15.4874 26.6383 14.7749 26.2384 14.1525C25.8385 13.53 25.2881 13.0177 24.6379 12.6625ZM24.3936 19.0543C23.9986 19.3497 23.6777 19.7324 23.4558 20.1721C23.234 20.6119 23.1173 21.097 23.115 21.5892V22.8838C23.115 23.726 22.7794 24.5337 22.182 25.1292C21.5846 25.7247 20.7744 26.0592 19.9296 26.0592C19.0848 26.0592 18.2746 25.7247 17.6772 25.1292C17.0798 24.5337 16.7442 23.726 16.7442 22.8838V21.5892C16.7419 21.097 16.6253 20.612 16.4035 20.1722C16.1818 19.7324 15.8609 19.3498 15.4659 19.0543C15.0649 18.7568 14.7407 18.3686 14.5199 17.9215C14.2991 17.4745 14.1882 16.9815 14.1963 16.4833C14.2043 15.9851 14.3311 15.496 14.5663 15.0563C14.8014 14.6166 15.138 14.239 15.5484 13.9546C15.6418 13.8892 15.7385 13.8289 15.8383 13.7739C16.3952 13.4671 16.854 13.0099 17.1618 12.4548C17.4332 11.9594 17.8334 11.5459 18.3205 11.2578C18.8075 10.9698 19.3633 10.8178 19.9296 10.8178C20.4959 10.8178 21.0517 10.9698 21.5387 11.2578C22.0257 11.5459 22.426 11.9594 22.6974 12.4548C23.0054 13.01 23.4642 13.4673 24.0212 13.7742C24.4853 14.0268 24.8782 14.3917 25.1639 14.8354C25.4495 15.279 25.6186 15.7871 25.6557 16.3129C25.6928 16.8387 25.5966 17.3654 25.3761 17.8445C25.1555 18.3236 24.8177 18.7397 24.3936 19.0546V19.0543Z" fill="white"/>
<path d="M22.0487 17.3541L20.5879 18.8103V16.7962L21.6754 15.7118C21.7363 15.6532 21.7848 15.5831 21.8182 15.5056C21.8516 15.4281 21.8691 15.3448 21.8699 15.2605C21.8706 15.1761 21.8545 15.0925 21.8225 15.0145C21.7904 14.9364 21.7431 14.8655 21.6833 14.8059C21.6235 14.7463 21.5524 14.6991 21.4741 14.6672C21.3958 14.6352 21.3119 14.6192 21.2273 14.6199C21.1427 14.6206 21.0591 14.6381 20.9814 14.6714C20.9037 14.7047 20.8334 14.7531 20.7746 14.8138L19.9509 15.6349L19.1271 14.8138C19.007 14.6981 18.846 14.6341 18.679 14.6355C18.512 14.637 18.3522 14.7037 18.2341 14.8215C18.1159 14.9392 18.0489 15.0985 18.0475 15.265C18.046 15.4316 18.1102 15.592 18.2263 15.7118L19.3138 16.7962V18.8103L17.8533 17.3541C17.7338 17.235 17.5718 17.168 17.4028 17.168C17.2339 17.168 17.0718 17.2348 16.9523 17.3539C16.8328 17.473 16.7657 17.6345 16.7656 17.803C16.7656 17.9714 16.8327 18.133 16.9521 18.2521L19.3138 20.6067V24.1539C19.3138 24.3223 19.3809 24.4839 19.5004 24.603C19.6198 24.7221 19.7819 24.789 19.9509 24.789C20.1198 24.789 20.2819 24.7221 20.4013 24.603C20.5208 24.4839 20.5879 24.3223 20.5879 24.1539V20.6067L22.9499 18.2521C23.009 18.1931 23.0559 18.1231 23.0879 18.046C23.1199 17.969 23.1364 17.8864 23.1364 17.803C23.1364 17.7196 23.1199 17.637 23.0879 17.5599C23.0558 17.4829 23.0089 17.4129 22.9497 17.3539C22.8905 17.295 22.8203 17.2482 22.743 17.2163C22.6657 17.1844 22.5829 17.168 22.4992 17.168C22.4155 17.168 22.3327 17.1844 22.2554 17.2164C22.1781 17.2483 22.1079 17.2951 22.0487 17.3541Z" fill="white"/>
</svg>
