<svg width="40" height="40" viewBox="0 0 40 40" fill="none" xmlns="http://www.w3.org/2000/svg">
<rect width="40" height="40" rx="20" fill="#CAAC33"/>
<path d="M23.4756 15.5859C22.0193 12.6446 20.543 10.066 20.5283 10.0404C20.475 9.94739 20.398 9.87013 20.3053 9.8164C20.2125 9.76267 20.1072 9.73438 20 9.73438C19.8928 9.73438 19.7875 9.76267 19.6947 9.8164C19.602 9.87013 19.5251 9.94739 19.4717 10.0404C19.457 10.0661 17.9807 12.6446 16.5244 15.5859C14.5383 19.5971 13.5312 22.3595 13.5312 23.7963C13.5312 27.3635 16.4331 30.2656 20 30.2656C23.5669 30.2656 26.4688 27.3635 26.4688 23.7963C26.4688 22.3595 25.4617 19.5971 23.4756 15.5859ZM20 29.0474C17.1048 29.0474 14.7494 26.6918 14.7494 23.7963C14.7494 21.5174 18.1579 14.9039 20 11.5842C21.8421 14.9036 25.2506 21.5167 25.2506 23.7963C25.2506 26.6918 22.8952 29.0474 20 29.0474Z" fill="white"/>
<path d="M23.4268 23.1875C23.0929 23.1875 22.8223 23.4588 22.8223 23.7934C22.8223 25.0117 22.0447 26.0826 20.8872 26.4581C20.5696 26.5612 20.3955 26.9028 20.4983 27.2212C20.5811 27.4776 20.8182 27.6406 21.0733 27.6406C21.135 27.6406 21.1977 27.6311 21.2596 27.611C22.9174 27.0731 24.0312 25.5389 24.0312 23.7934C24.0312 23.4588 23.7606 23.1875 23.4268 23.1875Z" fill="white"/>
</svg>
