<svg width="40" height="40" viewBox="0 0 40 40" fill="none" xmlns="http://www.w3.org/2000/svg">
<rect width="40" height="40" rx="20" fill="#C43473"/>
<path d="M28.3402 11.6596C28.1707 11.231 27.8765 10.8632 27.4957 10.6035C27.1149 10.3439 26.665 10.2044 26.2041 10.2031C25.8079 10.2034 25.4186 10.3065 25.0742 10.5024C24.7298 10.6982 24.4421 10.9801 24.2394 11.3204C24.0366 11.6607 23.9256 12.0478 23.9174 12.4438C23.9091 12.8399 24.0038 13.2313 24.1921 13.5798L22.3304 15.4412C19.2276 14.3831 14.1585 16.6038 12.1138 18.648C9.56622 21.1952 9.56622 25.336 12.1138 27.8832C13.3876 29.1568 15.0599 29.7969 16.7322 29.7969C18.4045 29.7969 20.0768 29.1568 21.3506 27.8832C23.3952 25.8389 25.6162 20.7642 24.5579 17.6683L26.4197 15.8069C26.7682 15.9953 27.1597 16.0899 27.5558 16.0817C27.9519 16.0734 28.3391 15.9624 28.6794 15.7597C29.0198 15.557 29.3017 15.2694 29.4976 14.925C29.6935 14.5807 29.7966 14.1914 29.7969 13.7953C29.7969 12.8417 29.2024 11.9992 28.3402 11.6596ZM20.4295 26.9623C18.3914 29.0001 15.073 29.0001 13.0349 26.9623C10.9968 24.9246 10.9968 21.6067 13.0349 19.5689C14.6484 17.9557 18.0583 16.4535 20.5275 16.4535C21.4747 16.4535 22.2847 16.6756 22.8007 17.1916C24.6755 19.066 22.657 24.7352 20.4295 26.9623ZM27.5106 14.775C27.2493 14.775 27.001 14.6705 26.8181 14.4876C26.7573 14.4268 26.685 14.3787 26.6053 14.3462C26.5257 14.3137 26.4404 14.2974 26.3543 14.2982C26.178 14.2982 26.0147 14.3701 25.8905 14.4876L23.8982 16.4797C23.8394 16.4078 23.7937 16.336 23.7283 16.2707C23.663 16.2053 23.5846 16.1596 23.5193 16.1008L25.5117 14.1088C25.5725 14.048 25.6206 13.9757 25.6531 13.896C25.6856 13.8164 25.702 13.7311 25.7011 13.6451C25.7011 13.4753 25.6292 13.3055 25.5117 13.1814C25.3745 13.0445 25.281 12.87 25.2431 12.6799C25.2052 12.4899 25.2245 12.2929 25.2987 12.1139C25.3728 11.9348 25.4984 11.7818 25.6596 11.6742C25.8208 11.5666 26.0103 11.5092 26.2041 11.5094C26.6744 11.5094 27.0794 11.849 27.1709 12.3127C27.2231 12.574 27.4256 12.783 27.6935 12.8352C27.9331 12.8804 28.1472 13.0135 28.2938 13.2083C28.4405 13.4032 28.5091 13.6457 28.4862 13.8885C28.4633 14.1312 28.3506 14.3567 28.1701 14.5206C27.9896 14.6846 27.7544 14.7753 27.5106 14.775Z" fill="white"/>
</svg>
