<svg width="24" height="24" viewBox="0 0 24 24" fill="none" xmlns="http://www.w3.org/2000/svg">
<rect width="24" height="24" rx="12" fill="white"/>
<circle cx="12" cy="17" r="1" fill="#C7C7C7"/>
<path fill-rule="evenodd" clip-rule="evenodd" d="M12 20C16.4183 20 20 16.4183 20 12C20 7.58172 16.4183 4 12 4C7.58172 4 4 7.58172 4 12C4 16.4183 7.58172 20 12 20ZM12 22C17.5228 22 22 17.5228 22 12C22 6.47715 17.5228 2 12 2C6.47715 2 2 6.47715 2 12C2 17.5228 6.47715 22 12 22Z" fill="#C7C7C7"/>
<path d="M9 9.7609C9 9.34258 9.122 8.91986 9.366 8.49273C9.61 8.06121 9.966 7.70454 10.434 7.42272C10.902 7.14091 11.448 7 12.072 7C12.652 7 13.164 7.11889 13.608 7.35667C14.052 7.59005 14.394 7.90929 14.634 8.3144C14.878 8.71951 15 9.15984 15 9.6354C15 10.0097 14.93 10.3377 14.79 10.6196C14.654 10.9014 14.49 11.1458 14.298 11.3527C14.11 11.5553 13.77 11.8987 13.278 12.3831C13.142 12.5196 13.032 12.6407 12.948 12.7464C12.868 12.8476 12.808 12.9423 12.768 13.0304C12.728 13.114 12.696 13.1999 12.672 13.288C12.652 13.3716 12.62 13.5214 12.576 13.7371C12.5 14.1951 12.262 14.424 11.862 14.424C11.654 14.424 11.478 14.3492 11.334 14.1995C11.194 14.0498 11.124 13.8274 11.124 13.5324C11.124 13.1625 11.176 12.8432 11.28 12.5746C11.384 12.3016 11.522 12.0638 11.694 11.8613C11.866 11.6543 12.098 11.41 12.39 11.1281C12.646 10.8816 12.83 10.6966 12.942 10.5733C13.058 10.4456 13.154 10.3047 13.23 10.1506C13.31 9.99648 13.35 9.82915 13.35 9.64861C13.35 9.29635 13.23 8.99912 12.99 8.75694C12.754 8.51475 12.448 8.39366 12.072 8.39366C11.632 8.39366 11.308 8.51695 11.1 8.76354C10.892 9.00572 10.716 9.3646 10.572 9.84016C10.436 10.3377 10.178 10.5865 9.798 10.5865C9.574 10.5865 9.384 10.5007 9.228 10.3289C9.076 10.1528 9 9.96345 9 9.7609Z" fill="#C7C7C7" stroke="#C7C7C7" stroke-width="0.5"/>
</svg>
