<svg width="41" height="40" viewBox="0 0 41 40" fill="none" xmlns="http://www.w3.org/2000/svg">
<path fill-rule="evenodd" clip-rule="evenodd" d="M20.3307 6.66659C12.9669 6.66659 6.9974 12.6361 6.9974 19.9999C6.9974 27.3637 12.9669 33.3333 20.3307 33.3333C27.6945 33.3333 33.6641 27.3637 33.6641 19.9999C33.6641 12.6361 27.6945 6.66659 20.3307 6.66659ZM3.66406 19.9999C3.66406 10.7952 11.126 3.33325 20.3307 3.33325C29.5355 3.33325 36.9974 10.7952 36.9974 19.9999C36.9974 29.2047 29.5355 36.6666 20.3307 36.6666C11.126 36.6666 3.66406 29.2047 3.66406 19.9999ZM20.3307 8.33325C21.2512 8.33325 21.9974 9.07944 21.9974 9.99992V18.3333H27.8307C28.7512 18.3333 29.4974 19.0794 29.4974 19.9999C29.4974 20.9204 28.7512 21.6666 27.8307 21.6666H20.3307C19.4103 21.6666 18.6641 20.9204 18.6641 19.9999V9.99992C18.6641 9.07944 19.4103 8.33325 20.3307 8.33325Z" fill="#D80028"/>
</svg>
