<svg width="41" height="40" viewBox="0 0 41 40" fill="none" xmlns="http://www.w3.org/2000/svg">
<path d="M35.5623 12.891C37.2882 10.814 37.3039 7.60345 37.3035 7.45215L35.3539 7.45632C35.3556 8.28294 35.0953 10.5438 33.9416 11.782C32.0946 10.904 29.7222 10.7897 27.6687 11.5667C23.3017 13.2195 21.5892 20.3911 16.5855 21.9787C12.7937 23.1821 8.63602 22.1434 6.31467 22.4562C0.542985 23.2327 5.88029 32.5484 18.6224 32.5479C35.8478 32.5478 40.2821 17.482 35.5623 12.891ZM6.33316 25.7162C6.04761 25.2669 5.92886 24.8683 5.99872 24.5939C6.10249 24.1852 9.11883 24.4107 9.29227 24.421C17.8038 24.92 20.0081 23.3637 24.2032 17.588C24.9366 16.5783 25.648 15.5993 26.3889 14.8223C26.8901 16.0658 26.8852 16.4689 27.0228 17.5992C28.0379 17.409 29.3935 17.1247 30.6707 17.2129C31.0789 18.7182 31.0584 19.5441 31.1113 20.9419C32.3403 20.5206 33.597 20.0282 35.0459 20.0688C32.2259 32.7248 11.0253 33.1007 6.33316 25.7162ZM35.3239 18.1303C34.461 18.0726 33.5772 18.2017 32.8971 18.3497C32.7088 17.0582 32.3626 16.0659 32.3437 16.0126C32.1196 15.3775 32.3007 15.5391 31.6442 15.3872C30.7062 15.1701 29.474 15.2501 28.63 15.3503C28.4537 14.7158 28.2037 14.0841 27.9727 13.564C30.0411 12.49 35.7209 12.4182 35.3239 18.1303Z" fill="#D80028" stroke="#D80028" stroke-width="0.5"/>
</svg>
