<svg width="40" height="40" viewBox="0 0 40 40" fill="none" xmlns="http://www.w3.org/2000/svg">
<rect width="40" height="40" rx="20" fill="#FFF0F3"/>
<path fill-rule="evenodd" clip-rule="evenodd" d="M11.8084 14.0008C11.8084 14.0008 11.8091 14.0006 11.8106 14.0004L11.8084 14.0008ZM12 14H28V26H12V14ZM11.8084 25.9992C11.8084 25.9991 11.8092 25.9992 11.8106 25.9996L11.8084 25.9992ZM28.1916 25.9992C28.1916 25.9992 28.1909 25.9994 28.1894 25.9996L28.1916 25.9992ZM28.1916 14.0008C28.1916 14.0009 28.1908 14.0008 28.1894 14.0004L28.1916 14.0008ZM10 13.6364C10 12.5133 11.0625 12 11.8182 12H28.1818C28.9375 12 30 12.5133 30 13.6364V26.3636C30 27.4867 28.9375 28 28.1818 28H11.8182C11.0625 28 10 27.4867 10 26.3636V13.6364Z" fill="#D80028"/>
<circle cx="14.5" cy="16.5" r="1.5" fill="#D80028"/>
<path d="M26.5051 19.1702L24.3611 16.72C23.5643 15.8094 22.1477 15.8094 21.3509 16.72L18.5719 19.8958C18.1574 20.3696 17.4203 20.3696 17.0057 19.8958C16.5911 19.422 15.8541 19.422 15.4395 19.8958L13.4166 22.2076C13.148 22.5145 13 22.9085 13 23.3163C13 24.2462 13.7538 25 14.6837 25H25C26.1046 25 27 24.1046 27 23V20.4873C27 20.0028 26.8242 19.5348 26.5051 19.1702Z" fill="#D80028"/>
</svg>
