<svg width="32" height="32" viewBox="0 0 32 32" fill="none" xmlns="http://www.w3.org/2000/svg">
<path d="M27.5 19.0001C27.5 15.5624 25.4371 12.5855 22.4184 10.8428C22.3051 10.7759 22.2227 10.6671 22.189 10.5399C22.1553 10.4123 22.1734 10.2764 22.2394 10.1621L21.8081 9.91308L22.2394 10.1621C22.3054 10.0478 22.414 9.96417 22.5414 9.92958C22.6684 9.8951 22.8039 9.91208 22.9184 9.9768C26.3205 11.9412 28.5 15.274 28.5 19.0001C28.5 24.8745 23.0015 29.8335 16 29.8335C8.99854 29.8335 3.5 24.8745 3.5 19.0001C3.5 15.2739 5.67953 11.9411 9.08164 9.97678C9.19617 9.91208 9.33161 9.8951 9.45859 9.92958C9.58601 9.96417 9.69458 10.0478 9.7606 10.1621C9.82662 10.2765 9.84473 10.4123 9.81098 10.5399C9.77735 10.6671 9.69494 10.7759 9.58166 10.8427C6.56287 12.5855 4.5 15.5624 4.5 19.0001C4.5 24.5486 9.77355 28.8335 16 28.8335C22.2265 28.8335 27.5 24.5486 27.5 19.0001Z" fill="#D80028" stroke="#D80028"/>
<path d="M22.0265 15.6666C22.0167 15.1667 22.0168 15.1667 22.0169 15.1667H22.0169L22.0142 15.1667L22.0005 15.1669C21.9877 15.1669 21.9678 15.167 21.9411 15.1668C21.8879 15.1664 21.808 15.165 21.7056 15.161C21.5007 15.153 21.2065 15.1345 20.8555 15.0929C20.15 15.0092 19.2317 14.8337 18.3501 14.4709L17.8089 14.2482L17.6734 14.8175C17.4826 15.6192 17.0879 16.4961 16.294 17.0717C16.2082 17.1332 16.1053 17.1662 15.9998 17.1662C15.8942 17.1662 15.7914 17.1332 15.7056 17.0717C14.9117 16.4961 14.517 15.6192 14.3262 14.8175L14.1907 14.2482L13.6495 14.4709C12.7679 14.8337 11.8496 15.0092 11.1441 15.0929C10.7931 15.1345 10.4989 15.153 10.294 15.161C10.1916 15.165 10.1117 15.1664 10.0584 15.1668C10.0318 15.167 10.0119 15.1669 9.99908 15.1669L9.98537 15.1667L9.98452 15.1667C9.89386 15.1638 9.80569 15.1363 9.72935 15.0873C9.65244 15.0379 9.59046 14.9685 9.55007 14.8865C9.05541 13.8736 9.31611 13.0218 9.88352 12.307C10.0297 12.1258 10.1914 11.9578 10.3669 11.8049L10.8542 11.3804L10.3209 11.0153C9.62995 10.5424 9.10598 10.0156 8.75501 9.60677C8.57994 9.40282 8.44913 9.22963 8.36325 9.10929C8.32034 9.04917 8.28874 9.00238 8.26854 8.9717C8.25844 8.95637 8.2512 8.94508 8.24682 8.93818L8.24241 8.93117L8.24232 8.93103L8.24219 8.93083L8.24209 8.93066L8.24193 8.93041L8.24182 8.93023L8.24139 8.92952C8.20367 8.86834 8.17958 8.79974 8.17076 8.7284C8.16195 8.65706 8.16862 8.58466 8.19033 8.51614C8.21203 8.44761 8.24825 8.38457 8.29653 8.33132C8.3448 8.27806 8.40399 8.23583 8.47006 8.20752L8.4701 8.2075C12.2377 6.59263 14.7599 7.44146 15.7747 7.95308L15.9998 8.06655L16.2249 7.95308C17.2397 7.44146 19.7619 6.59263 23.5295 8.20751L23.5309 8.20813C23.597 8.23619 23.6562 8.27821 23.7045 8.3313C23.7527 8.38439 23.7889 8.4473 23.8106 8.51571C23.8323 8.58412 23.8389 8.6564 23.83 8.7276C23.8211 8.79881 23.7969 8.86724 23.759 8.9282L23.7578 8.93023L23.7576 8.93041L23.7575 8.93066L23.7574 8.93083L23.7573 8.93103L23.7572 8.93117L23.7528 8.93818C23.7484 8.94508 23.7411 8.95637 23.731 8.9717C23.7108 9.00238 23.6792 9.04917 23.6363 9.10929C23.5504 9.22963 23.4196 9.40282 23.2446 9.60677C22.8936 10.0156 22.3696 10.5424 21.6787 11.0153L21.1454 11.3804L21.6327 11.8049C21.8082 11.9578 21.9699 12.1258 22.1161 12.307C22.6835 13.0219 22.9442 13.8736 22.4495 14.8865C22.4091 14.9685 22.3471 15.0379 22.2702 15.0873C22.1932 15.1368 22.1041 15.1643 22.0126 15.1668L22.0265 15.6666ZM22.0265 15.6666C22.0265 15.6666 20.3546 15.6991 18.6313 15.1103L22.5065 11.9946C23.1611 12.8186 23.4998 13.8759 22.8985 15.1066C22.8179 15.2705 22.6941 15.4093 22.5404 15.508C22.3867 15.6067 22.209 15.6615 22.0265 15.6666ZM15.693 9.0615L15.6995 9.06643C15.8779 9.2 16.1217 9.2 16.3 9.06643L16.3066 9.0615L16.3133 9.05679L16.5998 9.46661C16.3133 9.05679 16.3136 9.05662 16.3138 9.05645L16.3144 9.05607L16.3156 9.05524L16.3185 9.05324L16.3264 9.04789C16.3325 9.04375 16.3405 9.03848 16.3503 9.03217C16.3699 9.01956 16.3967 9.00282 16.4307 8.98284C16.4987 8.94287 16.5954 8.88987 16.72 8.83085C16.9692 8.71282 17.3305 8.5706 17.7972 8.46087C18.734 8.24065 20.0826 8.15458 21.7841 8.64193L22.6163 8.88027L21.994 9.48202C21.3723 10.0833 20.6359 10.5533 19.8287 10.8639L19.8251 10.8653L19.8251 10.8653C19.732 10.9003 19.6515 10.9622 19.5938 11.0432C19.5361 11.1242 19.5039 11.2206 19.5012 11.32C19.4986 11.4194 19.5256 11.5173 19.5789 11.6013C19.6322 11.6852 19.7093 11.7514 19.8004 11.7913L19.801 11.7915L19.6045 12.2386C19.801 11.7915 19.801 11.7916 19.8011 11.7916L19.8013 11.7917L19.8017 11.7918L19.8026 11.7923L19.8052 11.7934L19.8128 11.7968L19.8379 11.8084C19.8588 11.8181 19.8879 11.832 19.9238 11.85C19.9955 11.8858 20.0951 11.938 20.2112 12.0058C20.4409 12.1399 20.7468 12.3416 21.0305 12.6054C21.2351 12.7947 21.5256 13.0934 21.6424 13.493L21.8483 14.1976L21.1173 14.1312C20.2388 14.0515 18.7679 13.7944 17.6348 12.9342C17.5579 12.8758 17.4658 12.841 17.3695 12.8338C17.2732 12.8267 17.1769 12.8476 17.0923 12.894C17.0076 12.9404 16.9382 13.0103 16.8924 13.0952L16.4522 12.858L16.8924 13.0952C16.8471 13.1792 16.8269 13.2742 16.8339 13.3693L16.8348 13.3792C16.8357 13.3894 16.8369 13.4033 16.8381 13.4205C16.8406 13.4549 16.8433 13.5028 16.845 13.5619C16.8483 13.6797 16.8474 13.8441 16.831 14.0366C16.7987 14.416 16.7041 14.9334 16.4389 15.4204L15.9998 16.2268L15.5607 15.4204C15.2955 14.9334 15.2008 14.416 15.1686 14.0366C15.1522 13.8441 15.1513 13.6797 15.1546 13.5619C15.1563 13.5028 15.159 13.4549 15.1614 13.4205C15.1627 13.4033 15.1638 13.3894 15.1648 13.3792L15.1657 13.3693C15.1727 13.2742 15.1524 13.1792 15.1072 13.0952C15.0614 13.0103 14.992 12.9404 14.9073 12.894C14.8226 12.8476 14.7264 12.8267 14.6301 12.8338C14.5338 12.841 14.4417 12.8758 14.3648 12.9342L15.693 9.0615ZM15.693 9.0615L15.6862 9.05679L15.3998 9.46661M15.693 9.0615L15.3998 9.46661M12.3998 12.2493C12.1986 11.7915 12.1985 11.7916 12.1985 11.7916L12.1983 11.7917L12.1979 11.7918L12.197 11.7923L12.1944 11.7934L12.1868 11.7968L12.1617 11.8084C12.1408 11.8181 12.1117 11.832 12.0757 11.85C12.004 11.8858 11.9045 11.938 11.7883 12.0058C11.5588 12.1399 11.2532 12.3413 10.9696 12.6049C10.765 12.7942 10.4741 13.093 10.3572 13.493L10.1512 14.1976L10.8823 14.1312C11.7608 14.0515 13.2317 13.7944 14.3648 12.9342L12.3998 12.2493ZM12.3998 12.2493L12.1986 11.7915M12.3998 12.2493L12.1986 11.7915M15.3998 9.46661C15.6862 9.05679 15.686 9.05662 15.6857 9.05645L15.6852 9.05607L15.684 9.05524L15.6811 9.05324L15.6732 9.04789C15.667 9.04375 15.6591 9.03847 15.6493 9.03217C15.6297 9.01955 15.6028 9.00282 15.5688 8.98283C15.5008 8.94287 15.4042 8.88986 15.2795 8.83084C15.0303 8.71281 14.669 8.57059 14.2022 8.46087C13.2652 8.24065 11.9163 8.15458 10.2142 8.64192L9.38101 8.88046L10.0045 9.48234C10.6269 10.0831 11.3635 10.5529 12.1707 10.8639L12.1707 10.8639L12.1745 10.8653C12.2676 10.9003 12.3481 10.9622 12.4058 11.0432C12.4635 11.1242 12.4957 11.2206 12.4984 11.32C12.501 11.4194 12.474 11.5173 12.4207 11.6013C12.3674 11.6852 12.2902 11.7514 12.1992 11.7913L12.1986 11.7915M15.3998 9.46661L12.1986 11.7915" fill="#D80028" stroke="#D80028"/>
<path d="M15.7565 8.42049C15.6435 8.3592 15.5586 8.25681 15.5192 8.13469L15.5127 8.10967C15.5067 8.08574 15.4977 8.04845 15.4869 7.99902C15.4652 7.9001 15.4361 7.75302 15.4089 7.56755C15.3543 7.19568 15.3077 6.67467 15.3394 6.08113C15.4029 4.89188 15.777 3.44932 16.9904 2.30371L16.9904 2.3038L16.9981 2.29625C17.0455 2.24953 17.1017 2.21275 17.1635 2.18805C17.2253 2.16335 17.2914 2.15124 17.358 2.15242C17.4245 2.1536 17.4901 2.16806 17.551 2.19493C17.6119 2.22181 17.6668 2.26056 17.7125 2.30893C17.7582 2.3573 17.7938 2.41431 17.8172 2.47661C17.8406 2.53891 17.8513 2.60526 17.8487 2.67176C17.8461 2.73825 17.8303 2.80357 17.8021 2.86387C17.774 2.92417 17.7341 2.97824 17.6848 3.02292L17.6847 3.02284L17.6773 3.02986C16.6383 4.01033 16.3469 5.23735 16.307 6.18447C16.2871 6.65915 16.3294 7.07343 16.3767 7.3697C16.4005 7.5183 16.4257 7.63854 16.4454 7.72341C16.4553 7.76587 16.4639 7.79959 16.4702 7.8237L16.4781 7.85257L16.4794 7.85704C16.5115 7.98248 16.4937 8.11553 16.4296 8.22817C16.3649 8.34195 16.2582 8.42582 16.1323 8.46177C16.0065 8.49773 15.8715 8.48291 15.7565 8.42049L15.518 8.85996L15.7565 8.42049Z" fill="#D80028" stroke="#D80028"/>
</svg>
