<svg width="40" height="40" viewBox="0 0 40 40" fill="none" xmlns="http://www.w3.org/2000/svg">
<rect width="40" height="40" rx="8" fill="#FFC1CC"/>
<path d="M19.9947 13.3362C19.4602 13.3372 18.9275 13.4021 18.4071 13.5298C16.0334 14.1098 14.1226 16.0835 13.5396 18.5577C12.9565 21.032 13.6248 23.5599 15.3306 25.3143C15.8614 25.8626 16.1809 26.7441 16.1809 27.6767V27.8362C16.1812 28.1683 16.2443 28.497 16.3665 28.8034C16.4886 29.1098 16.6675 29.3878 16.8926 29.6213V30.8209C16.8933 31.4871 17.146 32.1257 17.5953 32.5968C18.0447 33.0678 18.6538 33.3328 19.2892 33.3335H20.7127C21.3481 33.3328 21.9573 33.0678 22.4066 32.5968C22.8559 32.1257 23.1086 31.4871 23.1093 30.8209V29.6219C23.3341 29.388 23.5124 29.1099 23.6342 28.8034C23.7559 28.4969 23.8185 28.1682 23.8184 27.8362V27.6718C23.8184 26.754 24.1547 25.8527 24.7179 25.2595C25.6493 24.2813 26.2832 23.0355 26.5393 21.6796C26.7955 20.3237 26.6623 18.9187 26.1568 17.6421C25.6512 16.3656 24.7959 15.2749 23.6991 14.5079C22.6022 13.741 21.3131 13.3323 19.9947 13.3335V13.3362ZM18.8364 30.3494H21.1603V30.8214C21.1602 30.9466 21.1127 31.0666 21.0283 31.1551C20.9439 31.2436 20.8294 31.2933 20.7101 31.2935H19.2866C19.1673 31.2933 19.0528 31.2436 18.9684 31.1551C18.884 31.0666 18.8365 30.9466 18.8364 30.8214V30.3494ZM21.8694 27.6734V27.8379C21.8693 27.963 21.8218 28.083 21.7374 28.1715C21.653 28.26 21.5385 28.3098 21.4192 28.3099H18.5749C18.4555 28.3098 18.3411 28.26 18.2567 28.1715C18.1723 28.083 18.1248 27.963 18.1247 27.8379V27.6778C18.1247 26.1866 17.6017 24.7951 16.6934 23.8604C15.4844 22.6169 15.0116 20.8181 15.4289 19.0484C15.637 18.1886 16.0656 17.405 16.6683 16.7825C17.271 16.16 18.0248 15.7224 18.8479 15.5172C19.2224 15.425 19.6058 15.3781 19.9905 15.3774C20.9239 15.3763 21.8367 15.6655 22.6134 16.2083C23.3901 16.7511 23.9958 17.5231 24.354 18.4268C24.7122 19.3304 24.8068 20.3252 24.6259 21.2852C24.4449 22.2452 23.9965 23.1275 23.3373 23.8203C22.407 24.8012 21.872 26.2052 21.872 27.6718L21.8694 27.6734Z" fill="#FF264E"/>
<ellipse cx="19.9997" cy="18.6667" rx="1.33333" ry="1.33333" transform="rotate(180 19.9997 18.6667)" fill="#FF264E"/>
<path fill-rule="evenodd" clip-rule="evenodd" d="M19.9997 21.3335C20.7361 21.3335 21.333 21.9304 21.333 22.6668L21.333 25.3335C21.333 26.0699 20.7361 26.6668 19.9997 26.6668C19.2633 26.6668 18.6663 26.0699 18.6663 25.3335L18.6663 22.6668C18.6663 21.9304 19.2633 21.3335 19.9997 21.3335Z" fill="#FF264E"/>
<path fill-rule="evenodd" clip-rule="evenodd" d="M12 21.3332C12 22.0696 11.403 22.6665 10.6667 22.6665L8 22.6665C7.26362 22.6665 6.66667 22.0696 6.66667 21.3332C6.66667 20.5968 7.26362 19.9998 8 19.9998L10.6667 19.9998C11.403 19.9998 12 20.5968 12 21.3332Z" fill="#FF264E"/>
<path fill-rule="evenodd" clip-rule="evenodd" d="M20.0003 12C19.2639 12 18.667 11.403 18.667 10.6667L18.667 8C18.667 7.26362 19.2639 6.66667 20.0003 6.66667C20.7367 6.66667 21.3337 7.26362 21.3337 8L21.3337 10.6667C21.3337 11.403 20.7367 12 20.0003 12Z" fill="#FF264E"/>
<path fill-rule="evenodd" clip-rule="evenodd" d="M13.4955 14.8287C12.9748 15.3494 12.1306 15.3494 11.6099 14.8287L9.72431 12.9431C9.20361 12.4224 9.20361 11.5781 9.72431 11.0574C10.245 10.5367 11.0892 10.5367 11.6099 11.0574L13.4955 12.9431C14.0162 13.4638 14.0162 14.308 13.4955 14.8287Z" fill="#FF264E"/>
<path fill-rule="evenodd" clip-rule="evenodd" d="M25.7241 14.8286C25.2034 14.3079 25.2034 13.4636 25.7241 12.9429L27.6097 11.0573C28.1304 10.5366 28.9746 10.5366 29.4953 11.0573C30.016 11.578 30.016 12.4222 29.4953 12.9429L27.6097 14.8286C27.089 15.3493 26.2448 15.3493 25.7241 14.8286Z" fill="#FF264E"/>
<path fill-rule="evenodd" clip-rule="evenodd" d="M33.333 21.3332C33.333 22.0696 32.7361 22.6665 31.9997 22.6665L29.333 22.6665C28.5966 22.6665 27.9997 22.0696 27.9997 21.3332C27.9997 20.5968 28.5966 19.9998 29.333 19.9998L31.9997 19.9998C32.7361 19.9998 33.333 20.5968 33.333 21.3332Z" fill="#FF264E"/>
</svg>
