<svg width="57" height="56" viewBox="0 0 57 56" fill="none" xmlns="http://www.w3.org/2000/svg">
<rect x="0.5" width="56" height="56" rx="28" fill="#D80028"/>
<path fill-rule="evenodd" clip-rule="evenodd" d="M39.0355 17.4645C37.0829 15.5118 33.9171 15.5118 31.9645 17.4645L25.9645 23.4645C24.0118 25.4171 24.0118 28.5829 25.9645 30.5355C26.379 30.95 26.8464 31.2754 27.344 31.5131C27.8424 31.7512 28.0534 32.3481 27.8153 32.8465C27.5773 33.3448 26.9803 33.5558 26.4819 33.3178C25.7823 32.9835 25.1275 32.527 24.5503 31.9497C21.8166 29.2161 21.8166 24.7839 24.5503 22.0503L30.5503 16.0503C33.2839 13.3166 37.7161 13.3166 40.4497 16.0503C43.1834 18.7839 43.1834 23.2161 40.4497 25.9497L38.1071 28.2924C37.7166 28.6829 37.0834 28.6829 36.6929 28.2924C36.3024 27.9019 36.3024 27.2687 36.6929 26.8782L39.0355 24.5355C40.9882 22.5829 40.9882 19.4171 39.0355 17.4645ZM29.1847 23.1535C29.4227 22.6552 30.0197 22.4442 30.5181 22.6822C31.2177 23.0165 31.8725 23.473 32.4497 24.0503C35.1834 26.7839 35.1834 31.2161 32.4497 33.9497L26.4497 39.9497C23.7161 42.6834 19.2839 42.6834 16.5503 39.9497C13.8166 37.2161 13.8166 32.7839 16.5503 30.0503L18.8929 27.7076C19.2834 27.3171 19.9166 27.3171 20.3071 27.7076C20.6976 28.0981 20.6976 28.7313 20.3071 29.1218L17.9645 31.4645C16.0118 33.4171 16.0118 36.5829 17.9645 38.5355C19.9171 40.4882 23.0829 40.4882 25.0355 38.5355L31.0355 32.5355C32.9882 30.5829 32.9882 27.4171 31.0355 25.4645C30.621 25.05 30.1536 24.7246 29.656 24.4869C29.1576 24.2488 28.9466 23.6519 29.1847 23.1535Z" fill="white"/>
</svg>
