<svg width="16" height="16" viewBox="0 0 16 16" fill="none" xmlns="http://www.w3.org/2000/svg">
<rect width="16" height="16" rx="8" fill="white"/>
<ellipse cx="8.00065" cy="11.3333" rx="0.666667" ry="0.666667" fill="#C7C7C7"/>
<path fill-rule="evenodd" clip-rule="evenodd" d="M8.00065 13.3334C10.9462 13.3334 13.334 10.9456 13.334 8.00004C13.334 5.05452 10.9462 2.66671 8.00065 2.66671C5.05513 2.66671 2.66732 5.05452 2.66732 8.00004C2.66732 10.9456 5.05513 13.3334 8.00065 13.3334ZM8.00065 14.6667C11.6825 14.6667 14.6673 11.6819 14.6673 8.00004C14.6673 4.31814 11.6825 1.33337 8.00065 1.33337C4.31875 1.33337 1.33398 4.31814 1.33398 8.00004C1.33398 11.6819 4.31875 14.6667 8.00065 14.6667Z" fill="#C7C7C7"/>
<path d="M6 6.50722C6 6.22835 6.08133 5.94653 6.244 5.66178C6.40667 5.3741 6.644 5.13632 6.956 4.94844C7.268 4.76056 7.632 4.66663 8.048 4.66663C8.43467 4.66663 8.776 4.74589 9.072 4.90441C9.368 5.05999 9.596 5.27282 9.756 5.54289C9.91867 5.81296 10 6.10652 10 6.42356C10 6.67308 9.95333 6.89178 9.86 7.07966C9.76933 7.26754 9.66 7.43046 9.532 7.56843C9.40667 7.70347 9.18 7.93244 8.852 8.25535C8.76133 8.34636 8.688 8.42708 8.632 8.49754C8.57867 8.56506 8.53867 8.62817 8.512 8.68688C8.48533 8.74266 8.464 8.7999 8.448 8.85861C8.43467 8.91439 8.41333 9.0142 8.384 9.15804C8.33333 9.46334 8.17467 9.61599 7.908 9.61599C7.76933 9.61599 7.652 9.56608 7.556 9.46627C7.46267 9.36646 7.416 9.21822 7.416 9.02154C7.416 8.77495 7.45067 8.56212 7.52 8.38305C7.58933 8.20105 7.68133 8.04252 7.796 7.90749C7.91067 7.76952 8.06533 7.60659 8.26 7.41872C8.43067 7.25433 8.55333 7.13103 8.628 7.04884C8.70533 6.9637 8.76933 6.86977 8.82 6.76702C8.87333 6.66428 8.9 6.55273 8.9 6.43237C8.9 6.19752 8.82 5.99937 8.66 5.83792C8.50267 5.67646 8.29867 5.59573 8.048 5.59573C7.75467 5.59573 7.53867 5.67793 7.4 5.84232C7.26133 6.00378 7.144 6.24302 7.048 6.56006C6.95733 6.89178 6.78533 7.05764 6.532 7.05764C6.38267 7.05764 6.256 7.0004 6.152 6.88591C6.05067 6.76849 6 6.64226 6 6.50722Z" fill="#C7C7C7" stroke="#C7C7C7" stroke-width="0.5"/>
</svg>
