<svg width="24" height="24" viewBox="0 0 24 24" fill="none" xmlns="http://www.w3.org/2000/svg">
<path d="M5.87507 10.1817H18.1249C18.3619 10.1817 18.567 10.0918 18.7401 9.91188C18.9131 9.73198 19 9.51894 19 9.27272C19 9.0265 18.9132 8.81357 18.7401 8.63342L12.6152 2.26985C12.4421 2.09015 12.2371 2 12 2C11.7629 2 11.5579 2.09015 11.3847 2.26985L5.25973 8.63342C5.08653 8.81337 5 9.0265 5 9.27272C5 9.51889 5.08653 9.73198 5.25973 9.91188C5.43313 10.0918 5.63813 10.1817 5.87507 10.1817ZM18.1249 13.8184H5.87507C5.63794 13.8184 5.43294 13.9084 5.25973 14.0881C5.08653 14.2681 5 14.4811 5 14.7273C5 14.9735 5.08653 15.1866 5.25973 15.3665L11.3847 21.7299C11.5581 21.9099 11.7631 22 12 22C12.2369 22 12.4421 21.9099 12.6152 21.7299L18.7401 15.3664C18.9131 15.1866 19 14.9735 19 14.7272C19 14.4811 18.9132 14.2681 18.7401 14.0881C18.5671 13.9082 18.3619 13.8184 18.1249 13.8184Z" fill="#C7C7C7"/>
</svg>
