<svg width="32" height="32" viewBox="0 0 32 32" fill="none" xmlns="http://www.w3.org/2000/svg">
<path fill-rule="evenodd" clip-rule="evenodd" d="M25.3337 4.6665H6.66699C5.56242 4.6665 4.66699 5.56193 4.66699 6.6665V25.3332C4.66699 26.4377 5.56242 27.3332 6.66699 27.3332H25.3337C26.4382 27.3332 27.3337 26.4377 27.3337 25.3332V6.6665C27.3337 5.56193 26.4382 4.6665 25.3337 4.6665ZM6.66699 2.6665C4.45785 2.6665 2.66699 4.45736 2.66699 6.6665V25.3332C2.66699 27.5423 4.45785 29.3332 6.66699 29.3332H25.3337C27.5428 29.3332 29.3337 27.5423 29.3337 25.3332V6.6665C29.3337 4.45736 27.5428 2.6665 25.3337 2.6665H6.66699ZM10.667 10.6665C10.667 11.4029 10.07 11.9998 9.33366 11.9998C8.59728 11.9998 8.00033 11.4029 8.00033 10.6665C8.00033 9.93012 8.59728 9.33317 9.33366 9.33317C10.07 9.33317 10.667 9.93012 10.667 10.6665ZM9.33366 17.3332C10.07 17.3332 10.667 16.7362 10.667 15.9998C10.667 15.2635 10.07 14.6665 9.33366 14.6665C8.59728 14.6665 8.00033 15.2635 8.00033 15.9998C8.00033 16.7362 8.59728 17.3332 9.33366 17.3332ZM10.667 21.3332C10.667 22.0695 10.07 22.6665 9.33366 22.6665C8.59728 22.6665 8.00033 22.0695 8.00033 21.3332C8.00033 20.5968 8.59728 19.9998 9.33366 19.9998C10.07 19.9998 10.667 20.5968 10.667 21.3332ZM14.667 9.33317C13.9306 9.33317 13.3337 9.93012 13.3337 10.6665C13.3337 11.4029 13.9306 11.9998 14.667 11.9998H22.667C23.4034 11.9998 24.0003 11.4029 24.0003 10.6665C24.0003 9.93012 23.4034 9.33317 22.667 9.33317H14.667ZM13.3337 15.9998C13.3337 15.2635 13.9306 14.6665 14.667 14.6665H22.667C23.4034 14.6665 24.0003 15.2635 24.0003 15.9998C24.0003 16.7362 23.4034 17.3332 22.667 17.3332H14.667C13.9306 17.3332 13.3337 16.7362 13.3337 15.9998ZM14.667 19.9998C13.9306 19.9998 13.3337 20.5968 13.3337 21.3332C13.3337 22.0695 13.9306 22.6665 14.667 22.6665H22.667C23.4034 22.6665 24.0003 22.0695 24.0003 21.3332C24.0003 20.5968 23.4034 19.9998 22.667 19.9998H14.667Z" fill="#D80028"/>
</svg>
