<svg width="57" height="56" viewBox="0 0 57 56" fill="none" xmlns="http://www.w3.org/2000/svg">
<path d="M0.5 28C0.5 43.464 13.036 56 28.5 56C43.964 56 56.5 43.464 56.5 28C56.5 12.536 43.964 0 28.5 0C13.036 0 0.5 12.536 0.5 28Z" fill="#25D366"/>
<path fill-rule="evenodd" clip-rule="evenodd" d="M38.3 18.025C35.675 15.4 32.175 14 28.5 14C20.8 14 14.5 20.3 14.5 28C14.5 30.45 15.2 32.9 16.425 35L14.5 42L21.85 40.075C23.95 41.125 26.225 41.825 28.5 41.825C36.2 41.825 42.5 35.525 42.5 27.825C42.5 24.15 40.925 20.65 38.3 18.025ZM28.5 39.55C26.4 39.55 24.3 39.025 22.55 37.975L22.2 37.8L17.825 39.025L19.05 34.825L18.7 34.3C17.475 32.375 16.95 30.275 16.95 28.175C16.95 21.875 22.2 16.625 28.5 16.625C31.65 16.625 34.45 17.85 36.725 19.95C39 22.225 40.05 25.025 40.05 28.175C40.05 34.3 34.975 39.55 28.5 39.55ZM34.8 30.8C34.45 30.625 32.7 29.75 32.35 29.75C32 29.575 31.825 29.575 31.65 29.925C31.475 30.275 30.775 30.975 30.6 31.325C30.425 31.5 30.25 31.5 29.9 31.5C29.55 31.325 28.5 30.975 27.1 29.75C26.05 28.875 25.35 27.65 25.175 27.3C25 26.95 25.175 26.775 25.35 26.6C25.525 26.425 25.7 26.25 25.875 26.075C26.05 25.9 26.05 25.725 26.225 25.55C26.4 25.375 26.225 25.2 26.225 25.025C26.225 24.85 25.525 23.1 25.175 22.4C25 21.875 24.65 21.875 24.475 21.875C24.3 21.875 24.125 21.875 23.775 21.875C23.6 21.875 23.25 21.875 22.9 22.225C22.55 22.575 21.675 23.45 21.675 25.2C21.675 26.95 22.9 28.525 23.075 28.875C23.25 29.05 25.525 32.725 29.025 34.125C32 35.35 32.525 35 33.225 35C33.925 35 35.325 34.125 35.5 33.425C35.85 32.55 35.85 31.85 35.675 31.85C35.5 30.975 35.15 30.975 34.8 30.8Z" fill="white"/>
</svg>
