<svg width="48" height="48" viewBox="0 0 48 48" fill="none" xmlns="http://www.w3.org/2000/svg">
<rect width="48" height="48" rx="24" fill="#D80028"/>
<path fill-rule="evenodd" clip-rule="evenodd" d="M36.4262 38C37.2731 38 38.0206 37.4335 38.2669 36.6046L43.9167 18.0236C44.1393 17.2749 43.9069 16.4624 43.3248 15.9545C42.7429 15.4464 41.9218 15.3394 41.2338 15.682L33.1218 19.7209L25.4535 10.6785C25.0881 10.2475 24.5577 10 24 10C23.4422 10 22.912 10.2476 22.5465 10.6785L14.8783 19.7208L6.76622 15.6819C6.07817 15.3394 5.25719 15.4463 4.67515 15.9543C4.09313 16.4623 3.86073 17.2748 4.08324 18.0235L10.0756 36.6046C10.3219 37.4335 11.0693 38 11.9164 38H36.4262ZM16.8175 23.4407L24 14.9711L31.1826 23.4406C31.7533 24.1138 32.695 24.3105 33.4782 23.9206L38.9521 21.1951L35 34.0645H13.3424L9.04787 21.1951L14.5219 23.9206C15.3053 24.3106 16.2467 24.1136 16.8175 23.4407Z" fill="white"/>
</svg>
