<svg width="148" height="32" viewBox="0 0 148 32" fill="none" xmlns="http://www.w3.org/2000/svg">
<rect width="32" height="32" transform="translate(0.5)" fill="white"/>
<path fill-rule="evenodd" clip-rule="evenodd" d="M14.5722 17.0914L11.528 4.61372C11.4439 4.27236 11.2899 3.95195 11.0758 3.67249C10.8616 3.39303 10.5919 3.16053 10.2835 2.98952C9.97503 2.8185 9.63444 2.71264 9.28304 2.67855C8.93163 2.64447 8.57694 2.68288 8.24111 2.7914L4.94682 3.85749C4.61071 3.96554 4.30061 4.14144 4.03589 4.37422C3.77118 4.60698 3.55754 4.89161 3.40834 5.2103C3.25914 5.529 3.17758 5.8749 3.16877 6.22639C3.15995 6.57788 3.22407 6.92741 3.35711 7.25311L8.26705 19.1295C8.51225 19.7269 8.9752 20.21 9.56311 20.4819C10.151 20.7538 10.8204 20.7945 11.4372 20.5958L12.8731 20.131C13.4896 19.9316 14.0075 19.5074 14.3227 18.9436C14.6378 18.3797 14.7269 17.718 14.5722 17.0914ZM15.0298 29.1633C14.3679 29.3763 13.6574 29.3893 12.9882 29.2006C12.3188 29.012 11.7206 28.6302 11.2691 28.1034C10.8176 27.5767 10.5329 26.9286 10.4512 26.2409C10.3693 25.5532 10.494 24.8568 10.8094 24.2396C11.1248 23.6224 11.6169 23.1121 12.2234 22.773C12.8299 22.434 13.5238 22.2814 14.2174 22.3346C14.9109 22.3878 15.5731 22.6443 16.1204 23.0718C16.6676 23.4993 17.0753 24.0786 17.2921 24.7366C17.4366 25.1751 17.4926 25.6377 17.457 26.0978C17.4214 26.5579 17.2949 27.0065 17.0847 27.4178C16.8745 27.8291 16.5847 28.195 16.2321 28.4946C15.8795 28.7941 15.4709 29.0214 15.0298 29.1633ZM22.3429 25.9595C26.86 24.4987 30.5063 19.314 28.6924 13.7548C26.8767 8.19932 20.8661 6.13539 16.349 7.59619C15.8419 7.75981 15.4159 8.10857 15.1567 8.57227C14.8975 9.03597 14.8244 9.58017 14.952 10.0954L15.4078 11.9638C15.4774 12.2443 15.6042 12.5076 15.7804 12.7371C15.9567 12.9666 16.1785 13.1576 16.4321 13.2982C16.6857 13.4386 16.9656 13.5256 17.2545 13.5538C17.5433 13.5819 17.8349 13.5505 18.111 13.4615L18.2963 13.4025C18.7433 13.2444 19.2175 13.177 19.691 13.2044C20.1646 13.2318 20.6278 13.3533 21.0534 13.5619C21.4789 13.7705 21.8581 14.0618 22.1687 14.4188C22.4792 14.7757 22.7148 15.191 22.8614 15.64C23.008 16.0891 23.0627 16.5629 23.0223 17.0334C22.9819 17.5038 22.8472 17.9615 22.6261 18.3793C22.4051 18.7971 22.1022 19.1665 21.7353 19.4658C21.3684 19.7651 20.9449 19.9882 20.49 20.1218L20.3047 20.1808C20.0291 20.2706 19.7751 20.4159 19.5584 20.6078C19.3417 20.7996 19.1671 21.0339 19.0454 21.2959C18.9237 21.5579 18.8575 21.8421 18.851 22.1307C18.8446 22.4193 18.898 22.7062 19.0078 22.9733L19.736 24.7551C19.9373 25.2465 20.318 25.6439 20.8016 25.8673C21.2852 26.0908 21.8358 26.1237 22.3429 25.9595Z" fill="#E31E52"/>
<path fill-rule="evenodd" clip-rule="evenodd" d="M38.5845 12.7684C39.7224 12.1339 41.1246 12.25 42.0747 13.2383C42.9861 14.1892 43.0045 15.5561 43.0045 16.0937C43.0045 17.616 42.3293 18.8987 41.0438 19.2937C39.3326 19.8395 36.7116 19.3577 36.7116 19.3577C36.6535 19.351 36.5997 19.3221 36.5607 19.2768C36.5217 19.2314 36.5001 19.1727 36.5 19.1118V10.7002C36.5 10.6471 36.5202 10.5962 36.5563 10.5586C36.5924 10.5211 36.6413 10.5 36.6923 10.5H38.2974C38.3484 10.5 38.3973 10.5211 38.4333 10.5586C38.4694 10.5962 38.4896 10.6471 38.4896 10.7002V12.7117C38.4897 12.7232 38.4927 12.7345 38.4982 12.7445C38.5038 12.7544 38.5118 12.7627 38.5214 12.7685C38.531 12.7742 38.5419 12.7772 38.5529 12.7772C38.564 12.7772 38.5749 12.7741 38.5845 12.7684ZM38.5678 17.5895C39.0612 17.7339 40.0464 17.7888 40.6101 17.1789V17.1808C40.9964 16.7894 41.4486 15.5241 40.5407 14.5787C40.1579 14.1709 39.531 13.9505 38.66 14.3291C38.6084 14.3547 38.565 14.3952 38.5348 14.4458C38.5046 14.4963 38.4889 14.5548 38.4896 14.6143V17.4743C38.4889 17.4997 38.4961 17.5247 38.5102 17.5455C38.5243 17.5663 38.5445 17.5817 38.5678 17.5895ZM66.3778 10.7057V19.4062C66.3781 19.4415 66.3918 19.4753 66.4156 19.5003C66.4397 19.5253 66.4721 19.5394 66.506 19.5397H68.2509C68.2849 19.5397 68.3175 19.5256 68.3417 19.5006C68.3658 19.4756 68.3794 19.4417 68.3798 19.4062V10.7057C68.3798 10.6526 68.3594 10.6017 68.3236 10.5641C68.2874 10.5266 68.2385 10.5055 68.1874 10.5055H66.5686C66.5178 10.506 66.4692 10.5273 66.4337 10.5648C66.3978 10.6023 66.3778 10.6529 66.3778 10.7057ZM50.7892 18.0009C50.6911 17.9866 50.5981 17.9466 50.5188 17.8848C50.431 17.8043 50.3844 17.6626 50.3748 17.4322V12.6184C50.3745 12.5722 50.3568 12.5279 50.3254 12.4952C50.294 12.4625 50.2515 12.444 50.2071 12.4438H48.5616C48.5171 12.4438 48.4745 12.4622 48.443 12.495C48.4116 12.5277 48.3939 12.5721 48.3939 12.6184V17.0838C48.3948 17.0905 48.3948 17.0973 48.3939 17.104C48.2359 17.6855 47.5809 17.861 47.0672 17.7705C46.3376 17.6425 46.0329 17.0043 46.0592 16.2692C46.0592 16.2436 46.0689 12.8671 46.0706 12.6184C46.0706 12.5721 46.0529 12.5277 46.0215 12.495C45.99 12.4622 45.9474 12.4438 45.9029 12.4438H44.261C44.2169 12.4438 44.1746 12.462 44.1433 12.4944C44.1121 12.5268 44.0944 12.5707 44.0941 12.6166C44.0941 13.348 44.0889 16.8644 44.0889 16.8644C44.0889 17.413 44.254 19.1904 45.9696 19.5159C46.7766 19.6686 47.7363 19.3988 48.5116 18.8247C48.5187 18.8191 48.5269 18.8151 48.5355 18.813C48.5441 18.8108 48.5531 18.8104 48.5619 18.812C48.5707 18.8135 48.5791 18.8169 48.5866 18.8219C48.5941 18.8269 48.6005 18.8334 48.6055 18.8411C48.7923 19.1094 49.058 19.3068 49.3624 19.4034C49.8152 19.5585 50.4302 19.4959 50.616 19.477L50.6206 19.4766C50.6498 19.4732 50.677 19.4596 50.6977 19.438C50.7185 19.4164 50.7315 19.3881 50.7348 19.3577L50.8919 18.1545C50.8978 18.12 50.8903 18.0844 50.8711 18.0556C50.8518 18.0268 50.8224 18.0071 50.7892 18.0009ZM83.7077 15.3741C83.649 14.5906 83.4161 13.7732 82.9385 13.1798L82.9258 13.1638L82.9134 13.1485C82.7169 12.902 82.1914 12.2429 80.5732 12.2481C79.9102 12.2481 79.2466 12.2948 78.5861 12.3606C78.2085 12.3963 77.8311 12.4365 77.4544 12.4776C77.2104 12.5043 77.211 12.6584 77.212 12.8658C77.212 12.8785 77.212 12.8915 77.212 12.9046V21.2083C77.2072 21.2486 77.2101 21.2896 77.2202 21.3288C77.2307 21.3681 77.2485 21.4048 77.2726 21.4368C77.3322 21.4816 77.4059 21.5012 77.4789 21.4917H78.9241C78.9597 21.5021 78.9971 21.5027 79.033 21.4935C79.0689 21.4841 79.1019 21.4652 79.1282 21.4386C79.1549 21.412 79.1745 21.3786 79.1847 21.3417C79.1952 21.3048 79.1961 21.2657 79.1875 21.2284C79.191 20.746 79.1901 20.2702 79.1888 19.7927C79.1882 19.5534 79.1875 19.3136 79.1875 19.0724C79.1875 19.0597 79.1907 19.0471 79.1974 19.0362C79.2037 19.0253 79.2129 19.0166 79.224 19.0111C79.2352 19.0056 79.2475 19.0036 79.2599 19.0052C79.272 19.0068 79.2837 19.0121 79.2929 19.0203C79.8689 19.5424 80.7302 19.6869 81.4697 19.4638C82.253 19.2297 82.9026 18.6043 83.2758 17.8482C83.649 17.0921 83.7699 16.2226 83.7077 15.3741ZM81.6884 16.3744C81.523 17.0464 81.2272 17.563 80.3386 17.6187C79.8943 17.6452 79.1885 17.3837 79.1885 16.9531V14.3775C79.1885 14.2788 79.199 14.2066 79.2913 14.1636C79.4817 14.0722 79.9936 13.9981 80.3862 14.0109C82.0756 14.0612 81.7744 16.0425 81.6925 16.3744H81.6884ZM55.9582 15.7417C55.8176 15.9492 55.8176 16.0196 55.9493 16.2135L58.2781 19.3321C58.2917 19.3521 58.3 19.3757 58.3016 19.4003C58.3032 19.4249 58.2981 19.4494 58.2867 19.4711C58.2762 19.4932 58.26 19.5117 58.2397 19.5245C58.2197 19.5372 58.1962 19.5438 58.1727 19.5433H56.2549C56.2336 19.5432 56.213 19.5377 56.1943 19.5271C56.1756 19.5166 56.1597 19.5015 56.1479 19.483L54.1425 16.7748C54.1301 16.7584 54.113 16.7463 54.094 16.7402C54.0746 16.734 54.0543 16.7341 54.0349 16.7405C54.0159 16.7469 53.9991 16.7592 53.987 16.7758C53.9746 16.7924 53.9677 16.8125 53.9667 16.8334V19.4099C53.9667 19.4453 53.9527 19.4793 53.9286 19.5043C53.9045 19.5293 53.8718 19.5433 53.8379 19.5433H52.1063C52.0724 19.5431 52.04 19.529 52.0159 19.504C51.9918 19.479 51.9784 19.4452 51.9781 19.4099V10.7057C51.9778 10.6792 51.9826 10.6529 51.9924 10.6283C52.0019 10.6038 52.0162 10.5814 52.034 10.5626C52.0521 10.5438 52.0733 10.5289 52.0968 10.5188C52.1206 10.5087 52.1457 10.5035 52.1714 10.5037H53.7738C53.8245 10.5037 53.8734 10.5248 53.9096 10.5623C53.9458 10.5999 53.9661 10.6508 53.9661 10.7039V15.2754C53.9667 15.294 53.9727 15.312 53.9835 15.327C53.9943 15.342 54.0089 15.3531 54.0261 15.359C54.0432 15.3649 54.0613 15.3651 54.0787 15.3599C54.0959 15.3545 54.1111 15.3439 54.1222 15.3293C54.5084 14.7807 55.8404 12.837 56.054 12.5197C56.0657 12.5019 56.0813 12.4873 56.0997 12.4773C56.1181 12.4672 56.1384 12.462 56.1594 12.4621H58.0321C58.0562 12.4615 58.08 12.4682 58.1004 12.4815C58.121 12.4949 58.1372 12.5142 58.147 12.5371C58.1581 12.5593 58.1629 12.5845 58.1607 12.6095C58.1581 12.6345 58.1489 12.6582 58.134 12.6779L55.9582 15.7417ZM96.1496 16.2135C96.0186 16.0196 96.0186 15.9492 96.1592 15.7417L98.3385 12.6779C98.3531 12.658 98.362 12.6343 98.3642 12.6095C98.3664 12.5846 98.3623 12.5596 98.3515 12.5372C98.341 12.5148 98.3245 12.4959 98.3042 12.4826C98.2839 12.4694 98.2607 12.4622 98.2366 12.4621H96.3604C96.3394 12.462 96.3191 12.4671 96.3007 12.4772C96.2823 12.4872 96.2664 12.5018 96.255 12.5197C96.0414 12.837 94.7095 14.7807 94.3232 15.3293C94.3121 15.3443 94.2969 15.3552 94.2794 15.3608C94.2623 15.3663 94.2436 15.366 94.2264 15.3601C94.209 15.3542 94.1941 15.3429 94.1833 15.3277C94.1725 15.3125 94.1664 15.2943 94.1661 15.2754V10.7039C94.1661 10.6776 94.161 10.6516 94.1515 10.6273C94.1417 10.603 94.1277 10.5809 94.1096 10.5623C94.0919 10.5437 94.0706 10.529 94.0474 10.5189C94.0239 10.5088 93.9989 10.5037 93.9738 10.5037H92.368C92.3426 10.5037 92.3175 10.5088 92.2943 10.5189C92.2708 10.529 92.2496 10.5437 92.2318 10.5623C92.214 10.5809 92.1997 10.603 92.1902 10.6273C92.1804 10.6516 92.1756 10.6776 92.1756 10.7039V19.408C92.1756 19.4435 92.1896 19.4774 92.2137 19.5024C92.2378 19.5275 92.2705 19.5415 92.3045 19.5415H94.036C94.07 19.5412 94.1027 19.5271 94.1265 19.5021C94.1506 19.4771 94.1642 19.4433 94.1642 19.408V16.8334C94.1658 16.8127 94.1731 16.793 94.1852 16.7767C94.1975 16.7604 94.2141 16.7484 94.2331 16.742C94.2518 16.7358 94.2721 16.7355 94.2912 16.7414C94.3102 16.7472 94.3273 16.7589 94.34 16.7748L96.3455 19.483C96.3572 19.5014 96.3731 19.5165 96.3918 19.527C96.4105 19.5375 96.4311 19.5431 96.4524 19.5433H98.3709C98.3947 19.5436 98.4178 19.537 98.4378 19.5242C98.4581 19.5114 98.4743 19.493 98.4851 19.4711C98.4962 19.4494 98.5013 19.4248 98.4997 19.4001C98.4981 19.3755 98.4896 19.3519 98.4756 19.3321L96.1496 16.2135ZM65.1598 17.9996L65.1801 18.0045C65.2122 18.0122 65.2404 18.0323 65.2588 18.0606C65.2772 18.0889 65.2845 18.1234 65.2794 18.1572L65.1204 19.3604C65.1176 19.3906 65.1049 19.4187 65.0846 19.4402C65.0639 19.4617 65.037 19.4752 65.0081 19.4784L64.9776 19.4817C64.7551 19.5062 64.0687 19.5819 63.5752 19.3376C63.3413 19.2299 63.1395 19.0584 62.9912 18.8411C62.9868 18.8337 62.9811 18.8273 62.9741 18.8223C62.9671 18.8174 62.9595 18.814 62.9513 18.8122C62.943 18.8105 62.9344 18.8106 62.9262 18.8124C62.9179 18.8142 62.9103 18.8178 62.9037 18.8228C62.6523 19.0112 61.5574 19.7445 60.3219 19.5067C59.9623 19.4418 59.625 19.2802 59.3438 19.0377C58.4228 18.2148 58.3615 16.4493 59.2657 15.5698C59.4926 15.3722 59.7494 15.2146 60.0252 15.1035C61.194 14.5759 62.7831 14.6546 62.7831 14.6546C62.8008 14.3382 62.7447 13.9341 61.9877 13.8628C61.379 13.7929 60.2543 13.9988 59.9211 14.0599C59.8922 14.0651 59.8693 14.0693 59.8532 14.0722C59.8281 14.077 59.8021 14.0765 59.7773 14.0708C59.7522 14.065 59.7284 14.0541 59.7078 14.0387C59.6869 14.0232 59.6691 14.0036 59.6558 13.9809C59.6421 13.9583 59.6332 13.933 59.6294 13.9067L59.2657 12.7812C59.2616 12.7552 59.2622 12.7285 59.2679 12.7028C59.2733 12.6771 59.2838 12.6528 59.2987 12.6313C59.3133 12.6098 59.332 12.5916 59.3533 12.5776C59.3749 12.5636 59.3987 12.5542 59.4238 12.5499C59.7697 12.4932 60.7348 12.3496 61.1528 12.303C63.2912 12.0387 63.9459 12.7726 64.1858 13.0415L64.1861 13.0416C64.2007 13.0581 64.214 13.073 64.2258 13.0856C64.7466 13.6927 64.7815 14.5485 64.7764 15.3192L64.7624 17.3307C64.7624 17.9053 64.951 17.9501 65.1598 17.9996ZM62.6742 17.5026C62.7402 17.4322 62.7777 17.3377 62.778 17.2393V16.0708C62.778 15.9481 62.4593 15.9842 62.3806 15.9932C62.3711 15.9943 62.3654 15.9949 62.3635 15.9949C61.8262 16.0708 61.4451 16.175 61.202 16.3067C60.8928 16.4767 60.7373 16.7337 60.7373 17.0747C60.7329 17.1908 60.7545 17.3064 60.8002 17.4123C60.8459 17.5183 60.9144 17.6118 61.0007 17.6855C61.6504 18.1682 62.4635 17.7357 62.6742 17.5026ZM76.0177 18.0045L75.9971 17.9996C75.7892 17.95 75.6007 17.9052 75.6007 17.3307L75.615 15.3192C75.6201 14.5485 75.5842 13.6927 75.0644 13.0856C75.0523 13.0728 75.0387 13.0577 75.0237 13.0408C74.7825 12.7714 74.1269 12.0389 71.9913 12.303C71.5734 12.3496 70.6083 12.4932 70.2623 12.5499C70.2122 12.559 70.1675 12.5885 70.1379 12.6318C70.1084 12.6751 70.0967 12.7288 70.1053 12.7812L70.4686 13.9067C70.4724 13.933 70.4816 13.9583 70.495 13.9809C70.5086 14.0036 70.5261 14.0232 70.547 14.0387C70.568 14.0541 70.5914 14.065 70.6165 14.0708C70.6416 14.0765 70.6673 14.077 70.6927 14.0722L70.7073 14.0694C70.9459 14.024 72.1786 13.7894 72.8244 13.861C73.5813 13.9323 73.6375 14.3364 73.6207 14.6527C73.6207 14.6527 72.0307 14.5741 70.8622 15.1017C70.5873 15.2132 70.3318 15.3707 70.1062 15.568C69.2027 16.4475 69.263 18.213 70.1843 19.0359C70.4655 19.2783 70.8025 19.44 71.1624 19.5049C72.3985 19.7426 73.4928 19.0094 73.7438 18.821C73.7505 18.816 73.7584 18.8124 73.7667 18.8106C73.7746 18.8087 73.7832 18.8087 73.7914 18.8104C73.7997 18.8121 73.8076 18.8156 73.8143 18.8205C73.8213 18.8255 73.827 18.8319 73.8314 18.8393C73.9796 19.0565 74.1815 19.2281 74.4154 19.3358C74.9089 19.5801 75.5953 19.5044 75.8178 19.4799L75.8486 19.4766C75.8774 19.4734 75.9041 19.4599 75.9247 19.4384C75.945 19.4169 75.9581 19.3887 75.9609 19.3586L76.124 18.1572C76.1291 18.1224 76.1205 18.087 76.1009 18.0585C76.0809 18.0299 76.051 18.0106 76.0177 18.0045ZM73.62 17.2393C73.6194 17.3377 73.5823 17.4322 73.5163 17.5026C73.3046 17.7357 72.4918 18.1682 71.8428 17.6855C71.7565 17.6117 71.6879 17.5182 71.6422 17.4123C71.5965 17.3063 71.575 17.1908 71.5794 17.0747C71.5794 16.7337 71.7349 16.4767 72.0447 16.3067C72.2881 16.175 72.6683 16.0708 73.2056 15.9949C73.2072 15.9949 73.2132 15.9943 73.2224 15.9932C73.3014 15.9842 73.6207 15.9481 73.6207 16.0708L73.62 17.2393ZM90.9487 17.9996C90.9554 18.0013 90.9623 18.0029 90.969 18.0045C91.0011 18.012 91.0293 18.0316 91.048 18.0595C91.0668 18.0874 91.075 18.1216 91.0709 18.1554L90.9119 19.3586C90.909 19.3887 90.8963 19.4169 90.876 19.4384C90.8554 19.4599 90.8284 19.4734 90.7995 19.4766C90.7907 19.4775 90.7802 19.4787 90.7684 19.48C90.5447 19.5046 89.8589 19.5799 89.3666 19.3358C89.1324 19.2283 88.9309 19.0567 88.7827 18.8393C88.7783 18.832 88.7725 18.8257 88.7656 18.8208C88.7586 18.8159 88.751 18.8125 88.7427 18.8108C88.7345 18.8091 88.7259 18.8091 88.718 18.8109C88.7097 18.8126 88.7018 18.8161 88.6951 18.821C88.4438 19.0094 87.3489 19.7426 86.1137 19.5049C85.7538 19.4402 85.4164 19.2785 85.1356 19.0359C84.2143 18.213 84.153 16.4475 85.0572 15.568C85.2831 15.3707 85.5386 15.2132 85.8131 15.1017C86.982 14.5741 88.5713 14.6527 88.5713 14.6527C88.5878 14.3364 88.5326 13.9323 87.7757 13.861C87.1264 13.7891 85.8858 14.026 85.6554 14.07L85.6437 14.0722C85.6186 14.077 85.5926 14.0766 85.5675 14.0708C85.5427 14.0651 85.5189 14.0541 85.498 14.0387C85.477 14.0233 85.4593 14.0037 85.4456 13.981C85.432 13.9583 85.4231 13.9331 85.419 13.9067L85.0556 12.7812C85.0473 12.7287 85.0594 12.675 85.0889 12.6317C85.1184 12.5885 85.1632 12.559 85.2136 12.5499C85.5586 12.4932 86.5243 12.3496 86.9417 12.303C89.0801 12.0387 89.7348 12.7726 89.9747 13.0415C89.9896 13.0581 90.0026 13.0729 90.0147 13.0856C90.5345 13.6927 90.5704 14.5485 90.5653 15.3192L90.551 17.3307C90.551 17.9053 90.7399 17.9501 90.9487 17.9996ZM88.4666 17.5026C88.5326 17.4322 88.5697 17.3377 88.5704 17.2393V16.0708C88.5704 15.9481 88.2517 15.9842 88.1727 15.9932C88.1635 15.9943 88.1575 15.9949 88.1559 15.9949C87.6177 16.0708 87.2375 16.175 86.9944 16.3067C86.6843 16.4767 86.5297 16.7337 86.5297 17.0747C86.5253 17.1908 86.5469 17.3064 86.5926 17.4123C86.6383 17.5183 86.7068 17.6118 86.7931 17.6855C87.4428 18.1682 88.2552 17.7357 88.4666 17.5026Z" fill="#303330"/>
</svg>
