<svg width="148" height="32" viewBox="0 0 148 32" fill="none" xmlns="http://www.w3.org/2000/svg">
<path d="M16.0088 26.6668C15.8195 26.6681 15.6331 26.6203 15.4684 26.5284C14.0578 25.7242 3.61101 19.2699 3.21648 19.0729C2.91624 18.9348 2.71121 18.652 2.67604 18.3273V9.27424C2.66827 8.93631 2.83781 8.6183 3.12461 8.43284L3.20027 8.39024C4.2109 7.7725 7.59408 5.73822 8.12912 5.44533C8.2519 5.37353 8.39174 5.33496 8.53446 5.3335C8.66828 5.33499 8.79981 5.36785 8.9182 5.42935C8.9182 5.42935 13.6525 8.47012 14.3767 8.74171C14.8848 8.97175 15.4389 9.0864 15.998 9.07721C16.6316 9.09026 17.2577 8.93971 17.8139 8.64053C18.5219 8.27308 23.0454 5.44533 23.0941 5.44533C23.2081 5.37745 23.3392 5.3424 23.4724 5.34415C23.6153 5.34484 23.7553 5.38347 23.8777 5.45598C24.4939 5.79147 28.6877 8.32101 28.866 8.43284C29.161 8.6082 29.3398 8.92418 29.3362 9.2636V18.3167C29.3032 18.6421 29.0975 18.9258 28.7958 19.0622C28.4013 19.2752 17.9869 25.7295 16.5493 26.5177C16.3856 26.6134 16.1992 26.6649 16.0088 26.6668Z" fill="url(#paint0_linear_1189_13459)"/>
<path d="M15.9531 26.6666L16.0072 26.6666C16.1965 26.6679 16.3829 26.6201 16.5476 26.5281C17.9582 25.724 28.3996 19.2697 28.7941 19.0726C29.0958 18.9363 29.3015 18.6525 29.3346 18.3271V9.27403C29.3363 9.12077 29.3011 8.96929 29.2319 8.83203L15.9531 16.0159V26.6666Z" fill="url(#paint1_linear_1189_13459)"/>
<path d="M15.9062 26.5391L15.8528 26.5391C15.6655 26.5404 15.4811 26.4931 15.3181 26.4021C13.9226 25.6065 3.59239 19.221 3.20205 19.026C2.9036 18.8911 2.70011 18.6104 2.66738 18.2884V9.33182C2.66566 9.1802 2.70046 9.03033 2.76897 8.89453L15.9062 16.0019V26.5391Z" fill="url(#paint2_linear_1189_13459)"/>
<path fill-rule="evenodd" clip-rule="evenodd" d="M70.6862 13.584C71.6593 13.5712 72.5819 14.0156 73.179 14.7842V10.3027H74.8944V21.5391H73.179V20.4967C72.5819 21.2653 71.6593 21.7096 70.6862 21.6969C68.5474 21.6969 66.9241 19.8696 66.9241 17.6385C66.9241 15.4074 68.5474 13.584 70.6862 13.584ZM70.9977 15.1458C69.6089 15.1458 68.6897 16.2383 68.6897 17.6385C68.6897 19.0388 69.6284 20.1351 70.9977 20.1351C72.3673 20.1351 73.3057 19.0426 73.3057 17.6385C73.3057 16.2344 72.3865 15.1458 70.9977 15.1458ZM37.8388 10.9297H36L36.0077 21.5237H41.0084V19.7772H37.8388V10.9297ZM47.7635 14.7842C47.1644 14.0158 46.241 13.5718 45.2668 13.584C43.128 13.584 41.5046 15.4073 41.5046 17.6385C41.5046 19.8696 43.128 21.6968 45.2668 21.6968C46.241 21.709 47.1644 21.2649 47.7635 20.4966V21.5391H49.479V13.7417H47.7635V14.7842ZM43.2702 17.6385C43.2702 16.2383 44.1898 15.1458 45.5785 15.1458C46.967 15.1458 47.8866 16.2344 47.8866 17.6385C47.8866 19.0425 46.9518 20.135 45.5785 20.135C44.205 20.135 43.2702 19.0387 43.2702 17.6385ZM50.814 20.1853L54.9031 15.2999H50.8754V13.7419H57.1187V15.1152L53.0451 19.9814H57.2111V21.5393H50.814V20.1853ZM64.0698 14.7842C63.4711 14.0158 62.5473 13.5718 61.5734 13.584C59.4346 13.584 57.8149 15.4073 57.8149 17.6385C57.8149 19.8696 59.4346 21.6968 61.5734 21.6968C62.5473 21.709 63.4711 21.2649 64.0698 20.4966V21.5391H65.7856V13.7417H64.0698V14.7842ZM59.5769 17.6385C59.5769 16.2383 60.4961 15.1458 61.8849 15.1458C63.2737 15.1458 64.1929 16.2344 64.1929 17.6385C64.1929 19.0425 63.2582 20.135 61.8849 20.135C60.5116 20.135 59.5769 19.0387 59.5769 17.6385ZM82.2881 14.7842C81.6914 14.0155 80.7684 13.5712 79.7954 13.584C77.6566 13.584 76.0256 15.4074 76.0256 17.6385C76.0256 19.8696 77.649 21.6968 79.7878 21.6968C80.7608 21.7096 81.6835 21.2653 82.2805 20.4967V21.5391H83.9999V13.7417H82.2881V14.7842ZM77.7988 17.6385C77.7988 16.2383 78.7184 15.1458 80.1071 15.1458C81.4956 15.1458 82.4152 16.2344 82.4152 17.6385C82.4152 19.0426 81.4765 20.1351 80.1071 20.1351C78.7375 20.1351 77.7988 19.0387 77.7988 17.6385Z" fill="#000083"/>
<defs>
<linearGradient id="paint0_linear_1189_13459" x1="2.65959" y1="5.52844" x2="29.0749" y2="5.3208" gradientUnits="userSpaceOnUse">
<stop offset="1e-07" stop-color="#FF9200"/>
<stop offset="0.337553" stop-color="#F36D00"/>
<stop offset="0.56729" stop-color="#F83C72"/>
<stop offset="0.78" stop-color="#FC1CBE"/>
<stop offset="0.93" stop-color="#FE08ED"/>
<stop offset="1" stop-color="#FF00FF"/>
</linearGradient>
<linearGradient id="paint1_linear_1189_13459" x1="10.0788" y1="24.4403" x2="36.8226" y2="9.41248" gradientUnits="userSpaceOnUse">
<stop stop-color="#EE0A3F"/>
<stop offset="1" stop-color="#EE0A3F" stop-opacity="0"/>
</linearGradient>
<linearGradient id="paint2_linear_1189_13459" x1="12.6989" y1="20.6113" x2="-0.163519" y2="10.0959" gradientUnits="userSpaceOnUse">
<stop stop-color="#ED6600"/>
<stop offset="1" stop-color="#F98200"/>
</linearGradient>
</defs>
</svg>
