<svg width="16" height="16" viewBox="0 0 16 16" fill="none" xmlns="http://www.w3.org/2000/svg">
<g clip-path="url(#clip0_577_2553)">
<path d="M10.0479 2.3999C9.4535 2.3999 8.8839 2.6359 8.4639 3.0555L7.9999 3.5187L7.5359 3.0559C7.11574 2.63591 6.54599 2.39995 5.9519 2.3999H4.3131C4.06188 2.39985 3.8131 2.44929 3.58098 2.54539C3.34887 2.64149 3.13795 2.78238 2.96029 2.96001C2.78263 3.13763 2.6417 3.34852 2.54554 3.58061C2.44939 3.81271 2.3999 4.06148 2.3999 4.3127V11.6871C2.3998 11.9383 2.4492 12.1871 2.54529 12.4192C2.64138 12.6513 2.78227 12.8623 2.95991 13.0399C3.13756 13.2175 3.34846 13.3584 3.58058 13.4545C3.8127 13.5506 4.06148 13.6 4.3127 13.5999H8.6699C11.3919 13.6011 13.5999 11.3947 13.5999 8.6727V4.2687C13.5999 3.77307 13.403 3.29773 13.0525 2.94726C12.7021 2.59679 12.2267 2.3999 11.7311 2.3999H10.0483H10.0479Z" fill="#7A08C9"/>
<path d="M2.3999 10.3999V4.3127C2.3998 4.06148 2.4492 3.8127 2.54529 3.58058C2.64138 3.34846 2.78227 3.13756 2.95991 2.95991C3.13756 2.78227 3.34846 2.64138 3.58058 2.54529C3.8127 2.4492 4.06148 2.3998 4.3127 2.3999H5.9519C6.5459 2.3999 7.1151 2.6359 7.5359 3.0555L7.9999 3.5187L8.2863 3.2327C8.3607 3.6103 8.3999 4.0007 8.3999 4.3999C8.3999 7.7135 5.7135 10.3999 2.3999 10.3999Z" fill="#9F30ED"/>
<path d="M10.1417 5.48001C10.2518 5.38283 10.38 5.3083 10.5189 5.26066C10.6579 5.21302 10.8048 5.19321 10.9514 5.20237C11.098 5.21153 11.2413 5.24947 11.3733 5.31402C11.5052 5.37858 11.6231 5.46848 11.7203 5.57861C11.8175 5.68874 11.892 5.81692 11.9396 5.95586C11.9873 6.09479 12.0071 6.24174 11.9979 6.38833C11.9888 6.53492 11.9508 6.67826 11.8863 6.81019C11.8217 6.94211 11.7318 7.06003 11.6217 7.15721L7.80807 10.5204C7.59915 10.7047 7.32897 10.8044 7.05043 10.7999C6.77188 10.7955 6.50502 10.6873 6.30207 10.4964L4.35247 8.66401C4.13632 8.46085 4.00973 8.18015 4.00054 7.88366C3.99135 7.58716 4.10032 7.29916 4.30347 7.08301C4.50663 6.86686 4.78733 6.74026 5.08382 6.73107C5.38032 6.72188 5.66832 6.83085 5.88447 7.03401L7.09247 8.16921L10.1413 5.47961L10.1417 5.48001Z" fill="#FFC400"/>
<path d="M5.36607 9.61674L4.35247 8.66394C4.13632 8.46079 4.00973 8.18009 4.00054 7.88359C3.99135 7.5871 4.10032 7.29909 4.30347 7.08294C4.50663 6.86679 4.78733 6.7402 5.08382 6.73101C5.38032 6.72182 5.66832 6.83079 5.88447 7.03394L7.07887 8.15634C6.60463 8.74619 6.02358 9.24149 5.36607 9.61634V9.61674Z" fill="#FF8B00"/>
</g>
<defs>
<clipPath id="clip0_577_2553">
<rect width="16" height="16" fill="white"/>
</clipPath>
</defs>
</svg>
