<svg width="148" height="32" viewBox="0 0 148 32" fill="none" xmlns="http://www.w3.org/2000/svg">
<path d="M5.07593 9.81413H10.8395C11.0156 7.89632 11.559 6.17405 12.3397 4.84287C13.373 3.083 14.8426 2 16.5036 2C18.1645 2 19.6265 3.09052 20.6674 4.84287C21.4482 6.16653 21.9916 7.89632 22.1677 9.81413H27.9236C28.6048 9.81413 29.2171 10.3631 29.1636 11.0325L28.0078 26.8789C27.8624 28.8644 26.5918 30 24.7471 30H8.26006C6.20874 30 5.12185 28.5936 4.99938 26.8789L3.83595 11.04C3.79003 10.3707 4.39471 9.81413 5.07593 9.81413ZM12.2785 9.81413H20.7134C20.545 8.15203 20.0781 6.67795 19.4122 5.54983C18.6467 4.23368 17.6058 3.41391 16.5036 3.41391C15.3937 3.41391 14.3604 4.23368 13.5797 5.55735C12.9138 6.67795 12.4545 8.15955 12.2785 9.81413Z" fill="#EA501F"/>
<path d="M12.3166 24.4421C12.0487 24.2616 11.9798 23.9081 12.1635 23.6449C12.3472 23.3817 12.7069 23.314 12.9748 23.4945C13.1432 23.6073 13.3193 23.7201 13.5106 23.8329C14.8577 24.6376 16.0977 25.0362 17.131 25.0362C18.0648 25.0362 18.8226 24.6903 19.3048 23.9909C19.3354 23.9382 19.366 23.9081 19.3737 23.8856C19.5115 23.6675 19.611 23.4343 19.6799 23.2087C19.8176 22.7424 19.7947 22.2611 19.6033 21.8249C19.3967 21.3661 18.9986 20.9224 18.3787 20.5538C17.9653 20.3057 17.4525 20.0876 16.8325 19.9221C15.2558 19.4859 14.0923 18.8692 13.4647 18.0419C12.7758 17.1319 12.7222 16.0338 13.457 14.7026C13.9469 13.8227 14.9496 13.2737 16.2202 13.1759C17.3147 13.0932 18.6312 13.3489 19.9707 14.0183C20.2616 14.1611 20.3764 14.5071 20.2233 14.7929C20.0702 15.0787 19.7258 15.1915 19.4349 15.0411C18.2945 14.4695 17.2076 14.2514 16.3044 14.3191C15.4395 14.3868 14.7812 14.7177 14.4903 15.2441C14.0005 16.1241 14.0081 16.816 14.4062 17.3425C14.8654 17.9516 15.8222 18.4255 17.154 18.794C17.8735 18.997 18.4858 19.2527 18.991 19.5536C19.8253 20.0499 20.384 20.6742 20.6826 21.351C20.9887 22.0505 21.027 22.7875 20.8203 23.5095C20.7285 23.8329 20.5831 24.1563 20.384 24.4722C20.3381 24.5399 20.3075 24.5925 20.2845 24.6301C19.5727 25.6605 18.4782 26.1719 17.1463 26.1794C15.8987 26.1794 14.4444 25.7282 12.9136 24.8106C12.7222 24.7053 12.5232 24.585 12.3166 24.4421Z" fill="white"/>
<g clip-path="url(#clip0_574_2389)">
<path fill-rule="evenodd" clip-rule="evenodd" d="M36.7226 18.1432C36.4985 17.9925 36.4285 17.6911 36.5825 17.4582C36.7366 17.239 37.0446 17.1705 37.2827 17.3212C37.4227 17.4171 37.5768 17.513 37.7448 17.6089C38.8931 18.294 39.9713 18.6365 40.8536 18.6365C41.6518 18.6365 42.3099 18.3351 42.716 17.7459C42.7235 17.7349 42.731 17.7249 42.738 17.7156C42.757 17.6902 42.772 17.6701 42.772 17.65C42.8841 17.4582 42.9821 17.2664 43.0381 17.0746C43.1501 16.6773 43.1361 16.2663 42.9681 15.8964C42.8 15.4991 42.45 15.1292 41.9178 14.8141C41.5677 14.6086 41.1196 14.4168 40.5875 14.2661C39.2292 13.8962 38.2349 13.3619 37.6888 12.6632C37.1007 11.8823 37.0586 10.9507 37.6888 9.81362C38.1089 9.06012 38.9631 8.59432 40.0554 8.51212C40.9936 8.44362 42.1279 8.66282 43.2762 9.23822C43.5282 9.36152 43.6262 9.66292 43.5002 9.89582C43.3742 10.1424 43.0661 10.2383 42.828 10.115C41.8478 9.62182 40.9096 9.44372 40.1394 9.49852C39.3972 9.55332 38.8231 9.84102 38.585 10.2931C38.1649 11.0466 38.1649 11.6357 38.515 12.0878C38.9071 12.6084 39.7333 13.0194 40.8676 13.3345C41.4837 13.4989 42.0018 13.7318 42.4359 13.9921C43.1501 14.4168 43.6262 14.9511 43.8783 15.5265C44.1444 16.1156 44.1724 16.7595 43.9903 17.3623C43.9063 17.6363 43.7803 17.924 43.6122 18.1843C43.5702 18.2391 43.5422 18.2939 43.5282 18.3213C42.9261 19.1982 41.9738 19.6366 40.8256 19.6366C39.7613 19.6366 38.515 19.253 37.1987 18.472C37.1117 18.3964 37.0048 18.3273 36.887 18.2513L36.887 18.2512C36.8341 18.2171 36.779 18.1815 36.7226 18.1432ZM45.6707 8.97816C45.6707 8.71786 45.8948 8.51236 46.1748 8.51236C46.4549 8.51236 46.679 8.71786 46.679 8.97816V13.9258C47.2404 13.4493 47.8311 13.1333 48.4152 12.9647C49.0314 12.7866 49.6335 12.7729 50.1517 12.9099C50.6978 13.0606 51.1739 13.362 51.51 13.8278C51.8321 14.2662 52.0141 14.8279 52.0141 15.4992V19.1434C52.0141 19.4174 51.79 19.6366 51.51 19.6366C51.2299 19.6366 51.0059 19.4174 51.0059 19.1434V15.4992C51.0059 15.0334 50.8938 14.6635 50.6978 14.3895C50.5017 14.1292 50.2357 13.9511 49.8996 13.8552C49.5495 13.7593 49.1434 13.773 48.7093 13.8963C48.0371 14.1018 47.337 14.5676 46.7068 15.3211C46.6978 15.3312 46.6885 15.341 46.679 15.3503V19.1573C46.679 19.4176 46.4549 19.6231 46.1748 19.6231C45.8948 19.6231 45.6707 19.4176 45.6707 19.1573V8.97816ZM56.9575 12.8139C57.9238 12.8139 58.792 13.1975 59.4221 13.814C60.0523 14.4305 60.4444 15.2799 60.4444 16.2252C60.4444 17.1705 60.0523 18.0199 59.4221 18.6364C58.792 19.2529 57.9238 19.6365 56.9575 19.6365C55.9913 19.6365 55.1231 19.2529 54.493 18.6364C53.8628 18.0199 53.4707 17.1705 53.4707 16.2252C53.4707 15.2799 53.8628 14.4305 54.493 13.814C55.1231 13.1975 56.0053 12.8139 56.9575 12.8139ZM58.722 14.499C58.2739 14.0606 57.6437 13.7866 56.9575 13.7866C56.2714 13.7866 55.6552 14.0606 55.1931 14.499C54.745 14.9374 54.4649 15.5539 54.4649 16.2252C54.4649 16.8965 54.745 17.513 55.1931 17.9514C55.6412 18.3898 56.2714 18.6638 56.9575 18.6638C57.6437 18.6638 58.2599 18.3898 58.722 17.9514C59.1701 17.513 59.4502 16.8965 59.4502 16.2252C59.4502 15.5539 59.1701 14.9374 58.722 14.499ZM62.3767 12.8139C62.0966 12.8139 61.8726 13.0331 61.8726 13.3071V23.0067C61.8726 23.2807 62.0966 23.4999 62.3767 23.4999C62.6567 23.4999 62.8808 23.2807 62.8808 23.0067V18.5268C62.9082 18.5447 62.9297 18.5685 62.953 18.5942L62.953 18.5942C62.9654 18.6079 62.9783 18.6222 62.9928 18.6364C63.623 19.2529 64.4912 19.6365 65.4574 19.6365C66.4237 19.6365 67.2919 19.2529 67.922 18.6364C68.5522 18.0199 68.9443 17.1705 68.9443 16.2252C68.9443 15.2799 68.5522 14.4305 67.922 13.814C67.2919 13.1975 66.4237 12.8139 65.4574 12.8139C64.4912 12.8139 63.623 13.1975 62.9928 13.814C62.9654 13.8319 62.9439 13.8557 62.9206 13.8814C62.9082 13.8951 62.8954 13.9094 62.8808 13.9236V13.3071C62.8808 13.0331 62.6567 12.8139 62.3767 12.8139ZM65.4434 13.7866C66.1296 13.7866 66.7597 14.0606 67.2079 14.499C67.656 14.9374 67.936 15.5539 67.936 16.2252C67.936 16.8965 67.656 17.513 67.2079 17.9514C66.7457 18.3898 66.1296 18.6638 65.4434 18.6638C64.7573 18.6638 64.1271 18.3898 63.679 17.9514C63.2309 17.513 62.9508 16.8965 62.9508 16.2252C62.9508 15.5539 63.2309 14.9374 63.679 14.499C64.1411 14.0606 64.7573 13.7866 65.4434 13.7866ZM73.6775 12.8139C74.5317 12.8139 75.3159 13.1427 75.89 13.7181C76.3662 14.1839 76.5622 14.6497 76.7303 15.1429C77.1495 16.4791 76.3934 16.4739 76.114 16.4719L76.0861 16.4718H71.451C71.493 16.8006 71.577 17.102 71.675 17.376C71.8571 17.8007 72.1231 18.1158 72.4592 18.335C72.8093 18.5542 73.2574 18.6638 73.7755 18.6638C74.3357 18.6638 74.9938 18.5131 75.722 18.2117C75.9741 18.1021 76.2681 18.2254 76.3802 18.472C76.4922 18.7186 76.3662 19.0063 76.1141 19.1159C75.2739 19.4584 74.4897 19.6228 73.7895 19.6365C73.0754 19.6502 72.4452 19.4858 71.9271 19.157C71.409 18.8282 70.9609 18.3761 70.7508 17.7459C70.2747 16.3622 70.2607 14.9922 71.465 13.7181C72.0251 13.129 72.8233 12.8139 73.6775 12.8139ZM75.1899 14.4168C74.7838 14.0332 74.2517 13.8003 73.6775 13.8003C73.1034 13.8003 72.5712 14.0332 72.1651 14.4168C71.8711 14.7045 71.633 15.0607 71.507 15.4717H75.862C75.708 15.0607 75.4839 14.7045 75.1899 14.4168ZM83.5358 13.7181C82.9617 13.1427 82.1775 12.8139 81.3233 12.8139C80.4691 12.8139 79.6709 13.129 79.1107 13.7181C77.9064 14.9922 77.9204 16.3622 78.3966 17.7459C78.6066 18.3761 79.0547 18.8282 79.5728 19.157C80.091 19.4858 80.7211 19.6502 81.4353 19.6365C82.1355 19.6228 82.9197 19.4584 83.7599 19.1159C84.0119 19.0063 84.1379 18.7186 84.0259 18.472C83.9139 18.2254 83.6198 18.1021 83.3678 18.2117C82.6396 18.5131 81.9814 18.6638 81.4213 18.6638C80.9032 18.6638 80.4551 18.5542 80.105 18.335C79.7689 18.1158 79.5028 17.8007 79.3208 17.376C79.2228 17.102 79.1387 16.8006 79.0967 16.4718H83.7318C83.7405 16.4718 83.7498 16.4719 83.7598 16.4719C84.0392 16.4739 84.7952 16.4791 84.376 15.1429C84.208 14.6497 84.0119 14.1839 83.5358 13.7181ZM81.3233 13.8003C81.8974 13.8003 82.4295 14.0332 82.8356 14.4168C83.1297 14.7045 83.3538 15.0607 83.5078 15.4717H79.1527C79.2788 15.0607 79.5168 14.7045 79.8109 14.4168C80.217 14.0332 80.7491 13.8003 81.3233 13.8003Z" fill="#EA501F"/>
</g>
<defs>
<clipPath id="clip0_574_2389">
<rect width="48" height="15" fill="white" transform="translate(36.5 8.5)"/>
</clipPath>
</defs>
</svg>
