<svg width="14" height="14" viewBox="0 0 14 14" fill="none" xmlns="http://www.w3.org/2000/svg">
<path fill-rule="evenodd" clip-rule="evenodd" d="M6.99992 1.66659C4.0544 1.66659 1.66659 4.0544 1.66659 6.99992C1.66659 9.94544 4.0544 12.3333 6.99992 12.3333C9.94544 12.3333 12.3333 9.94544 12.3333 6.99992C12.3333 4.0544 9.94544 1.66659 6.99992 1.66659ZM0.333252 6.99992C0.333252 3.31802 3.31802 0.333252 6.99992 0.333252C10.6818 0.333252 13.6666 3.31802 13.6666 6.99992C13.6666 10.6818 10.6818 13.6666 6.99992 13.6666C3.31802 13.6666 0.333252 10.6818 0.333252 6.99992ZM6.99992 2.33325C7.36811 2.33325 7.66659 2.63173 7.66659 2.99992V6.33325H9.99992C10.3681 6.33325 10.6666 6.63173 10.6666 6.99992C10.6666 7.36811 10.3681 7.66659 9.99992 7.66659H6.99992C6.63173 7.66659 6.33325 7.36811 6.33325 6.99992V2.99992C6.33325 2.63173 6.63173 2.33325 6.99992 2.33325Z" fill="#D80028"/>
</svg>
