<svg width="148" height="32" viewBox="0 0 148 32" fill="none" xmlns="http://www.w3.org/2000/svg">
<path fill-rule="evenodd" clip-rule="evenodd" d="M22.2231 7.35196H28.6668V22.0016C28.6611 24.1212 27.7971 26.1524 26.2638 27.6511C24.7304 29.1499 22.6524 29.9944 20.4839 30H3.3335V7.35196H9.77726C9.97168 5.87277 10.7108 4.51349 11.8564 3.52842C13.0019 2.54336 14.4754 2 16.0012 2C17.5269 2 19.0004 2.54336 20.146 3.52842C21.2915 4.51349 22.0307 5.87277 22.2251 7.35196H22.2231ZM11.3687 7.40162C12.0795 7.46068 12.7842 7.57629 13.4758 7.7473C14.3508 7.96382 15.1974 8.27824 15.9988 8.68435C16.8005 8.27881 17.6473 7.96484 18.5225 7.74863C19.2141 7.57761 19.9188 7.462 20.6296 7.40295C20.452 6.32763 19.8884 5.34925 19.04 4.64308C18.1915 3.93691 17.1135 3.54909 15.9991 3.54909C14.8848 3.54909 13.8068 3.93691 12.9583 4.64308C12.1099 5.34925 11.5463 6.32763 11.3687 7.40295V7.40162Z" fill="#414141"/>
<path fill-rule="evenodd" clip-rule="evenodd" d="M21.8339 8.22095H27.691C27.7132 8.22112 27.7344 8.22983 27.7502 8.24519C27.7659 8.26055 27.7748 8.28134 27.775 8.30306V22.0018C27.775 25.9222 24.4938 29.1293 20.4836 29.1293H15.9985V9.67784C17.5758 8.77986 19.5602 8.22095 21.8339 8.22095Z" fill="#4F9D4E"/>
<path fill-rule="evenodd" clip-rule="evenodd" d="M10.1642 8.22095H4.30715C4.28493 8.22112 4.26366 8.22983 4.24795 8.24519C4.23223 8.26055 4.22332 8.28134 4.22314 8.30306V29.1293H15.9989V9.67784C14.4223 8.77986 12.4379 8.22095 10.1642 8.22095Z" fill="#60BB55"/>
<path fill-rule="evenodd" clip-rule="evenodd" d="M25.1395 27.4764C23.8342 28.545 22.1862 29.131 20.4836 29.132H15.9985V21.5886C20.0493 21.6072 23.5372 24.013 25.1395 27.4764Z" fill="#60BB55"/>
<path fill-rule="evenodd" clip-rule="evenodd" d="M6.16895 29.1294H15.9989V21.5886H15.9528C11.2645 21.588 7.32071 24.7872 6.16895 29.1294Z" fill="#84C567"/>
<path fill-rule="evenodd" clip-rule="evenodd" d="M10.5034 11.0022C11.6772 11.0025 12.8248 11.3414 13.8024 11.9765C14.78 12.6116 15.544 13.5146 15.9987 14.5723C16.4567 13.5062 17.2291 12.5975 18.2173 11.962C19.2056 11.3264 20.3651 10.9929 21.548 11.0037C22.7309 11.0146 23.8837 11.3694 24.8596 12.023C25.8355 12.6766 26.5902 13.5993 27.0277 14.6736C27.4651 15.7479 27.5655 16.9252 27.3159 18.0555C27.0664 19.1858 26.4783 20.2178 25.6265 21.0202C24.7747 21.8226 23.6978 22.359 22.533 22.5611C21.3683 22.7631 20.1683 22.6217 19.0861 22.1547L18.7954 22.4388L16.4425 24.7387L15.9526 25.2182L15.4608 24.7354L13.1078 22.4355L12.8456 22.1792C12.0319 22.5229 11.1501 22.6849 10.2644 22.6535C9.3786 22.6221 8.51114 22.398 7.72513 21.9976C6.93911 21.5972 6.25433 21.0305 5.72061 20.3388C5.18689 19.6471 4.81767 18.8478 4.63981 17.9991C4.46196 17.1504 4.47995 16.2735 4.69248 15.4325C4.905 14.5914 5.30672 13.8072 5.86838 13.137C6.43004 12.4668 7.13753 11.9274 7.93933 11.5581C8.74113 11.1888 9.61709 10.9989 10.5034 11.0022ZM16.6972 20.2813C16.4168 19.9094 16.1823 19.5064 15.9987 19.0807C15.8191 19.4988 15.5899 19.8949 15.3158 20.2608C15.7734 20.182 16.2422 20.189 16.6972 20.2813Z" fill="#414141"/>
<path d="M21.4948 21.7759C24.2933 21.7759 26.5619 19.5585 26.5619 16.8231C26.5619 14.0878 24.2933 11.8704 21.4948 11.8704C18.6963 11.8704 16.4277 14.0878 16.4277 16.8231C16.4277 19.5585 18.6963 21.7759 21.4948 21.7759Z" fill="white"/>
<path d="M10.5036 21.7759C13.3021 21.7759 15.5707 19.5585 15.5707 16.8231C15.5707 14.0878 13.3021 11.8704 10.5036 11.8704C7.70513 11.8704 5.43652 14.0878 5.43652 16.8231C5.43652 19.5585 7.70513 21.7759 10.5036 21.7759Z" fill="white"/>
<path fill-rule="evenodd" clip-rule="evenodd" d="M11.0607 13.6929C11.7652 13.6932 12.4499 13.9205 13.0087 14.3398C13.5676 14.759 13.9694 15.3467 14.1519 16.0118C14.3344 16.6769 14.2874 17.3823 14.0182 18.0186C13.749 18.6549 13.2725 19.1867 12.6627 19.5315C12.0529 19.8763 11.3438 20.015 10.6453 19.9259C9.94668 19.8369 9.29765 19.5251 8.79874 19.039C8.29982 18.5528 7.97887 17.9194 7.88561 17.2368C7.79235 16.5543 7.93198 15.8608 8.28289 15.2637C8.35837 15.482 8.48326 15.681 8.64826 15.8456C8.81326 16.0103 9.01413 16.1365 9.23592 16.2148C9.45771 16.2931 9.69471 16.3215 9.92929 16.298C10.1639 16.2744 10.39 16.1994 10.5908 16.0786C10.7917 15.9578 10.962 15.7943 11.0893 15.6002C11.2165 15.4061 11.2974 15.1865 11.3258 14.9577C11.3542 14.7289 11.3295 14.4968 11.2534 14.2786C11.1774 14.0604 11.052 13.8618 10.8865 13.6975C10.9448 13.6949 11.0024 13.6929 11.0607 13.6929Z" fill="#414141"/>
<path fill-rule="evenodd" clip-rule="evenodd" d="M20.8267 13.6929C21.5308 13.6933 22.2151 13.9207 22.7736 14.3399C23.3321 14.759 23.7336 15.3464 23.916 16.0112C24.0983 16.676 24.0512 17.3809 23.7821 18.0169C23.513 18.6529 23.0368 19.1844 22.4273 19.529C21.8178 19.8737 21.1091 20.0123 20.4109 19.9233C19.7127 19.8343 19.0639 19.5228 18.5652 19.037C18.0665 18.5511 17.7456 17.9181 17.6523 17.2359C17.5589 16.5537 17.6983 15.8605 18.0489 15.2637C18.1241 15.4825 18.2488 15.6819 18.4138 15.8471C18.5789 16.0122 18.7799 16.1388 19.0019 16.2175C19.224 16.2961 19.4613 16.3247 19.6962 16.3012C19.9312 16.2777 20.1577 16.2026 20.3588 16.0817C20.5599 15.9607 20.7305 15.7969 20.8579 15.6025C20.9852 15.4081 21.066 15.1881 21.0943 14.9589C21.1225 14.7297 21.0974 14.4972 21.021 14.2788C20.9445 14.0604 20.8186 13.8617 20.6526 13.6975C20.7102 13.6949 20.7684 13.6929 20.8267 13.6929Z" fill="#414141"/>
<path fill-rule="evenodd" clip-rule="evenodd" d="M15.9526 20.8806C16.8781 20.8806 17.7142 21.2938 18.3056 21.9567L15.9526 24.2566V20.8806Z" fill="#FFC868"/>
<path fill-rule="evenodd" clip-rule="evenodd" d="M15.9528 24.2566L13.5991 21.9567C14.1913 21.2945 15.0266 20.8806 15.9528 20.8806V24.2566Z" fill="#FCF5AE"/>
<g clip-path="url(#clip0_574_2543)">
<path fill-rule="evenodd" clip-rule="evenodd" d="M45.609 14.3637C45.4102 14.1457 45.1699 13.9735 44.9036 13.8584C44.6373 13.7432 44.3508 13.6875 44.0626 13.6948C42.7147 13.6948 41.8979 14.7325 41.8979 16.0934C41.8979 17.431 42.7147 18.4919 44.0626 18.4919C45.3883 18.4919 46.2273 17.4533 46.2273 16.0934C46.2051 15.3781 46.0067 14.8012 45.6045 14.3637H45.609ZM87.7246 12.32H89.1829V19.7227H89.0726C88.71 19.7208 88.3628 19.5695 88.1064 19.3018C87.85 19.0341 87.7052 18.6716 87.7033 18.2931V12.32H87.7246ZM75.3576 19.8621C74.4296 20.0692 73.5016 19.9076 72.5994 19.3771C72.178 19.1423 71.8062 18.8211 71.5065 18.4327C71.2067 18.0444 70.985 17.5969 70.8547 17.117C70.2586 15.0873 71.4731 12.8272 73.4349 12.2968C74.4065 12.0181 75.3344 12.1584 76.2179 12.6684C77.6753 13.5211 78.2278 14.8356 78.1175 16.542L72.2195 16.5197C72.3085 17.2109 72.7276 17.7645 73.3023 18.0878C73.8984 18.4333 74.4287 18.503 74.9367 18.3414C75.4892 18.1556 75.9528 17.6726 76.306 17.2341L77.5018 18.1556C77.016 19.1013 76.3532 19.6549 75.3593 19.863L75.3576 19.8621ZM76.4831 15.1338C76.3051 14.5337 76.064 14.2346 75.5337 13.9345C74.2748 13.1969 73.0158 13.8193 72.4411 15.1338H76.4831ZM96.5417 15.5732C96.5495 15.2935 96.4934 15.0159 96.3782 14.7633C96.2629 14.5107 96.0918 14.2903 95.8789 14.1203C95.4821 13.797 94.9963 13.6354 94.3771 13.6354C93.0523 13.6354 92.191 14.7195 92.191 16.0571C92.191 17.3484 93.0959 18.4092 94.3557 18.4092C95.2392 18.4092 95.7027 17.8788 96.2108 17.2099V19.1245C95.9497 19.3397 95.6683 19.5264 95.3709 19.6818C95.0127 19.8297 94.6295 19.9002 94.2445 19.889C92.1243 19.889 90.7328 18.0673 90.7328 15.9457C90.7328 14.8616 91.0638 13.9624 91.7044 13.2703C92.3894 12.5327 93.2952 12.163 94.3993 12.163C96.4981 12.163 98 13.4087 98 15.693V19.7283H97.8897C97.527 19.7263 97.1797 19.5751 96.9232 19.3075C96.6667 19.0398 96.5216 18.6773 96.5195 18.2987V15.5732H96.5417ZM89.0948 11.445C88.94 11.6307 88.7193 11.6986 88.4542 11.6986C88.3401 11.7023 88.2265 11.6816 88.1203 11.6377C88.0142 11.5939 87.9177 11.5278 87.837 11.4436C87.7562 11.3593 87.6928 11.2587 87.6507 11.1479C87.6086 11.0371 87.5886 10.9185 87.5921 10.7993C87.5866 10.6796 87.6052 10.56 87.6466 10.4482C87.688 10.3365 87.7513 10.2349 87.8325 10.1502C87.9136 10.0654 88.0109 9.99933 88.1179 9.95611C88.225 9.91289 88.3395 9.89351 88.4542 9.89921C88.5684 9.89546 88.682 9.91619 88.7882 9.96011C88.8944 10.004 88.9908 10.0702 89.0715 10.1546C89.1522 10.2389 89.2155 10.3397 89.2575 10.4506C89.2994 10.5615 89.3192 10.6802 89.3155 10.7993C89.322 10.9176 89.3059 11.0361 89.268 11.1477C89.2301 11.2594 89.1712 11.362 89.0948 11.4496V11.445ZM84.9638 18.7557C84.301 19.5165 83.4175 19.8853 82.3837 19.8853C81.2786 19.8853 80.3729 19.4933 79.6887 18.686C79.0481 17.9252 78.7162 16.9796 78.7162 15.85C78.7162 13.8435 80.1967 12.1825 82.1408 12.1825C82.8614 12.1671 83.5721 12.36 84.1942 12.7399V14.4008C83.6604 14.0293 83.002 13.6577 82.3392 13.6577C80.9699 13.6577 80.1522 14.6498 80.1522 16.033C80.1522 17.4162 81.0135 18.4315 82.3605 18.4315C82.6489 18.4383 82.9351 18.3778 83.1983 18.2546C83.4615 18.1313 83.695 17.9484 83.882 17.719C84.2788 17.2341 84.4781 16.542 84.4781 15.5964V10.4296C84.4799 10.0511 84.6248 9.68857 84.8812 9.42088C85.1376 9.1532 85.4848 9.00195 85.8473 9H85.9541V15.8268C85.9541 17.026 85.6231 17.994 84.9603 18.7557H84.9638ZM69.0824 18.8244C68.3973 19.5397 67.6019 19.9085 66.6526 19.9085C65.932 19.9212 65.2217 19.7285 64.5982 19.3511V17.719C65.132 18.0906 65.7913 18.4566 66.4533 18.4566C67.8234 18.4566 68.6402 17.4654 68.6402 16.0813C68.6402 14.6972 67.8012 13.6828 66.4319 13.6828C66.1479 13.6744 65.8657 13.7321 65.6058 13.8518C65.3459 13.9715 65.1147 14.1502 64.9292 14.3748C64.5101 14.882 64.3108 15.5741 64.3108 16.5197V23H64.2005C63.8379 22.998 63.4907 22.8468 63.2343 22.5791C62.978 22.3114 62.8331 21.9489 62.8312 21.5704V16.2643C62.8312 14.0274 64.156 12.2058 66.4097 12.2058C67.5361 12.2058 68.4418 12.5978 69.126 13.405C69.7666 14.1426 70.0984 15.1115 70.0984 16.242C70.1058 16.7219 70.0196 17.1984 69.8449 17.6424C69.6702 18.0863 69.4108 18.4885 69.0824 18.8244ZM60.0331 14.3655C59.8343 14.1475 59.594 13.9754 59.3277 13.8602C59.0614 13.745 58.7749 13.6893 58.4867 13.6967C57.1388 13.6967 56.322 14.7343 56.322 16.0952C56.322 17.4329 57.1388 18.4937 58.4867 18.4937C59.8115 18.4937 60.6514 17.4552 60.6514 16.0952C60.6292 15.3799 60.4308 14.8031 60.0331 14.3655ZM61.0705 18.8625C60.3731 19.5712 59.4349 19.9618 58.4618 19.9484C57.9845 19.9542 57.5109 19.8613 57.0681 19.6753C56.6253 19.4892 56.2221 19.2137 55.8816 18.8644C55.153 18.1259 54.7997 17.2034 54.7997 16.0971C54.7997 13.9289 56.3897 12.2457 58.4885 12.2457C58.9712 12.2407 59.4501 12.336 59.8972 12.5261C60.3443 12.7162 60.7507 12.9973 61.0927 13.353C61.8214 14.0915 62.1977 15.0139 62.1977 16.1212C62.197 16.6344 62.0967 17.1421 61.903 17.6137C61.7092 18.0853 61.426 18.511 61.0705 18.8653V18.8625ZM53.5168 14.1807C53.3625 14.4598 53.1928 14.7293 53.0087 14.9879C52.9006 15.1421 52.7745 15.2816 52.6333 15.4032C53.6493 15.7487 54.0248 16.4872 54.0248 17.5713V19.785H53.9145C53.5517 19.7832 53.2043 19.6321 52.9477 19.3644C52.6912 19.0967 52.5462 18.734 52.5443 18.3553V17.7051C52.5443 16.9898 52.2356 16.5049 51.5282 16.5049H50.2035V19.7803H50.0931C49.7304 19.7786 49.383 19.6275 49.1264 19.3597C48.8698 19.092 48.7248 18.7294 48.723 18.3507V10.4891C48.7248 10.1104 48.8698 9.74773 49.1264 9.48001C49.383 9.2123 49.7304 9.06116 50.0931 9.05945H50.2035V15.0557H50.6483C51.1341 15.0557 51.4437 14.8941 51.6208 14.5708L52.8566 12.4036H54.5355L53.5194 14.1788L53.5168 14.1807ZM46.6659 18.8625C45.9699 19.5698 45.0338 19.9603 44.0626 19.9484C43.5854 19.9542 43.1117 19.8613 42.6689 19.6753C42.2261 19.4892 41.8229 19.2137 41.4824 18.8644C40.7493 18.1222 40.4005 17.1997 40.4005 16.0934C40.4005 13.9252 41.9905 12.242 44.0893 12.242C44.5718 12.2378 45.0503 12.3339 45.497 12.5247C45.9436 12.7154 46.3494 12.997 46.6909 13.353C47.4204 14.0915 47.7959 15.0139 47.7959 16.1212C47.7514 17.2044 47.3982 18.1268 46.6686 18.8653L46.6659 18.8625ZM38.1424 19.8063C36.7073 19.8063 36 18.791 36 17.3614V11.9652C36.0019 11.5865 36.1467 11.2239 36.4031 10.9561C36.6594 10.6883 37.0066 10.5368 37.3693 10.5346H37.4805V12.3804H39.9557V13.8565H37.4805V17.523C37.4805 18.1454 37.7474 18.3302 38.3195 18.3302H39.9557V19.8063H38.1424Z" fill="#42B549"/>
</g>
<defs>
<clipPath id="clip0_574_2543">
<rect width="62" height="14" fill="white" transform="translate(36 9)"/>
</clipPath>
</defs>
</svg>
