<svg width="40" height="40" viewBox="0 0 40 40" fill="none" xmlns="http://www.w3.org/2000/svg">
<path d="M10.7478 26.182C10.8725 26.2375 11.0073 26.2661 11.1436 26.2658C11.3571 26.2649 11.5644 26.1933 11.7335 26.062L13.1346 24.9927C13.1561 24.975 13.1783 24.9567 13.1998 24.937C13.4979 24.6657 13.7396 24.3375 13.9109 23.9716C14.0823 23.6056 14.1798 23.2091 14.1979 22.805C14.2376 22.0132 13.9703 21.2368 13.4524 20.6395L10.7405 16.7082L12.5083 13.748C13.3 12.5384 14.3079 12.1099 16.3498 12.1099C17.1957 12.1108 18.0067 12.4493 18.6048 13.0512C19.2029 13.6531 19.5394 14.4693 19.5402 15.3205C19.5402 15.5269 19.436 15.7588 19.2987 16.0412C18.9292 16.8078 18.5227 17.5365 18.1298 18.2411L18.1267 18.2467L18.126 18.2478C17.2011 19.9056 16.4025 21.3369 16.4025 22.6621C16.4025 24.804 18.5115 25.9159 19.757 26.2357C19.8991 26.2721 20.0475 26.2759 20.1912 26.2467C20.3349 26.2176 20.4702 26.1562 20.5872 26.0673C20.7286 25.9597 20.8382 25.8154 20.9043 25.6499C21.0267 25.4435 21.8731 24.1796 26.9674 18.6103C29.2293 16.1369 30.415 15.2582 32.5499 15.2582H35.6896C35.9486 15.2582 36.197 15.1547 36.3802 14.9704C36.5633 14.7861 36.6662 14.5361 36.6662 14.2754V4.31619C36.6662 4.05553 36.5633 3.80555 36.3802 3.62123C36.197 3.43692 35.9486 3.33337 35.6896 3.33337H21.6088C20.8496 3.3457 20.093 3.42463 19.3475 3.56925L11.4392 5.23611C10.6168 5.40909 9.6903 6.05119 9.23452 6.76275L3.89546 15.1102C3.49236 15.6835 3.29529 16.3779 3.33672 17.079C3.37814 17.7801 3.65558 18.4461 4.12335 18.9674L10.4202 25.9434C10.5116 26.0452 10.6232 26.1264 10.7478 26.182Z" fill="#FFC035"/>
<path d="M14.9972 31.6667C14.9424 31.6669 14.8876 31.6643 14.8331 31.6589C14.7799 31.6533 14.7222 31.6445 14.6724 31.6345C14.6225 31.6245 14.5615 31.61 14.5138 31.5945C14.4662 31.5789 14.4107 31.5601 14.3609 31.539C14.311 31.5179 14.2611 31.4946 14.2134 31.469C14.1658 31.4435 14.1192 31.4157 14.0738 31.3857C14.0283 31.3557 13.984 31.3224 13.9429 31.2891C13.9019 31.2558 13.8598 31.2169 13.821 31.1781C13.7818 31.1399 13.7447 31.0995 13.7102 31.057C13.6758 31.0148 13.6436 30.9704 13.6137 30.926C13.5833 30.8804 13.5552 30.8334 13.5295 30.785C13.5039 30.7374 13.4809 30.6885 13.4607 30.6384C13.4395 30.588 13.421 30.5365 13.4053 30.484C13.3898 30.433 13.3765 30.3797 13.3654 30.3264C13.3546 30.2731 13.3464 30.2194 13.341 30.1653C13.3357 30.1107 13.3331 30.0559 13.3333 30.001C13.3331 29.9461 13.3357 29.8913 13.341 29.8367C13.3464 29.7826 13.3546 29.7289 13.3654 29.6756C13.3765 29.6223 13.3898 29.5646 13.4053 29.5168C13.4211 29.4648 13.4396 29.4137 13.4607 29.3636C13.4809 29.3135 13.5039 29.2646 13.5295 29.217C13.5552 29.1686 13.5833 29.1216 13.6137 29.076C13.6436 29.0316 13.6758 28.9872 13.7102 28.945C13.745 28.9024 13.782 28.8616 13.821 28.8228C13.8598 28.7851 13.9008 28.7473 13.9429 28.7118C13.9847 28.6771 14.0283 28.6448 14.0738 28.6152C14.1192 28.5852 14.1658 28.5574 14.2134 28.5308C14.2611 28.5041 14.311 28.483 14.3609 28.4619C14.4107 28.4408 14.4628 28.4231 14.5138 28.4064C14.5648 28.3897 14.6191 28.3775 14.6724 28.3664C14.7256 28.3553 14.7832 28.3475 14.8331 28.342C14.9436 28.3305 15.0551 28.3305 15.1656 28.342C15.22 28.3475 15.2765 28.3564 15.3275 28.3664C15.3785 28.3764 15.4328 28.3909 15.4849 28.4064C15.537 28.4219 15.588 28.4408 15.6379 28.4619C15.6878 28.483 15.7376 28.5063 15.7853 28.5308C15.833 28.5552 15.8806 28.5852 15.925 28.6152C15.9706 28.6451 16.0146 28.6773 16.0569 28.7118C16.099 28.7462 16.14 28.7839 16.1777 28.8228C16.2167 28.8616 16.2537 28.9024 16.2886 28.945C16.3229 28.9872 16.3562 29.0316 16.3861 29.076C16.4162 29.1216 16.4439 29.1686 16.4693 29.217C16.4944 29.2651 16.5177 29.314 16.5391 29.3636C16.5591 29.4136 16.5779 29.4658 16.5934 29.5168C16.61 29.5689 16.6233 29.6219 16.6333 29.6756C16.6442 29.7289 16.6523 29.7826 16.6577 29.8367C16.6634 29.8912 16.6664 29.9461 16.6666 30.001C16.6664 30.0559 16.6634 30.1107 16.6577 30.1653C16.6523 30.2194 16.6442 30.2731 16.6333 30.3264C16.6234 30.3797 16.6101 30.4324 16.5934 30.484C16.5779 30.5362 16.5591 30.5884 16.5391 30.6384C16.5192 30.6884 16.4948 30.7372 16.4693 30.785C16.4439 30.8334 16.4162 30.8804 16.3861 30.926C16.3562 30.9704 16.3229 31.0148 16.2886 31.057C16.254 31.0995 16.217 31.1399 16.1777 31.1781C16.14 31.2169 16.099 31.2536 16.0569 31.2891C16.0148 31.3247 15.9704 31.3557 15.925 31.3857C15.8799 31.4158 15.8332 31.4436 15.7853 31.469C15.7376 31.4946 15.6878 31.5179 15.6379 31.539C15.588 31.5601 15.537 31.5778 15.4849 31.5945C15.4328 31.6111 15.3807 31.6234 15.3275 31.6345C15.2743 31.6456 15.2166 31.6533 15.1656 31.6589C15.1097 31.6644 15.0534 31.667 14.9972 31.6667Z" fill="#D80028"/>
<path d="M11.6639 36.6667C11.6091 36.6669 11.5544 36.6643 11.4998 36.6589C11.4466 36.6533 11.389 36.6445 11.3391 36.6345C11.2892 36.6245 11.2282 36.61 11.1806 36.5945C11.1329 36.579 11.0775 36.5601 11.0276 36.539C10.9777 36.5179 10.9278 36.4946 10.8802 36.469C10.8325 36.4435 10.7859 36.4157 10.7405 36.3858C10.6951 36.3561 10.6514 36.3238 10.6097 36.2892C10.5665 36.2547 10.5266 36.217 10.4878 36.1781C10.4488 36.1393 10.4118 36.0985 10.3769 36.056C10.3425 36.0138 10.3104 35.9694 10.2805 35.925C10.25 35.8794 10.2219 35.8323 10.1962 35.7839C10.1706 35.7364 10.1477 35.6875 10.1275 35.6374C10.1062 35.587 10.0877 35.5354 10.0721 35.483C10.0565 35.4319 10.0432 35.3787 10.0322 35.3254C10.0213 35.2721 10.0132 35.2184 10.0078 35.1643C10.0024 35.1097 9.99983 35.0549 10 35C9.99983 34.9451 10.0024 34.8903 10.0078 34.8357C10.0132 34.7816 10.0213 34.7279 10.0322 34.6747C10.0432 34.6214 10.0565 34.5636 10.0721 34.517C10.0877 34.4646 10.1062 34.4131 10.1275 34.3627C10.1477 34.3126 10.1706 34.2636 10.1962 34.2161C10.2219 34.1677 10.25 34.1206 10.2805 34.0751C10.3104 34.0307 10.3425 33.9863 10.3769 33.9441C10.4118 33.9015 10.4488 33.8607 10.4878 33.8219C10.5266 33.7842 10.5665 33.7464 10.6097 33.7109C10.6514 33.6762 10.6951 33.644 10.7405 33.6143C10.7856 33.5847 10.8321 33.5569 10.8802 33.531C10.9278 33.5055 10.9777 33.4821 11.0276 33.461C11.0775 33.44 11.1285 33.4222 11.1806 33.4055C11.2327 33.3889 11.2859 33.3767 11.3391 33.3656C11.3923 33.3545 11.45 33.3467 11.4998 33.3411C11.6104 33.3308 11.7218 33.3308 11.8324 33.3411C11.8867 33.3467 11.9432 33.3556 11.9942 33.3656C12.0452 33.3755 12.1051 33.39 12.1516 33.4055C12.1982 33.4211 12.2547 33.44 12.3046 33.461C12.3545 33.4821 12.4044 33.5055 12.4521 33.531C12.5 33.5564 12.5466 33.5842 12.5917 33.6143C12.6373 33.6442 12.6813 33.6765 12.7236 33.7109C12.7658 33.7453 12.8068 33.7831 12.8445 33.8219C12.8835 33.8607 12.9205 33.9015 12.9553 33.9441C12.9897 33.9863 13.0229 34.0307 13.0529 34.0751C13.0829 34.1207 13.1107 34.1677 13.136 34.2161C13.1611 34.2642 13.1844 34.3131 13.2059 34.3627C13.2268 34.4131 13.2449 34.4646 13.2602 34.517C13.2768 34.5686 13.2902 34.6213 13.3001 34.6747C13.3109 34.7279 13.3191 34.7816 13.3245 34.8357C13.3302 34.8903 13.3331 34.9451 13.3333 35C13.3331 35.0549 13.3302 35.1098 13.3245 35.1643C13.3191 35.2184 13.3109 35.2721 13.3001 35.3254C13.2902 35.3787 13.2768 35.4314 13.2602 35.483C13.2449 35.5354 13.2268 35.587 13.2059 35.6374C13.1844 35.687 13.1611 35.7358 13.136 35.7839C13.1107 35.8323 13.0829 35.8794 13.0529 35.925C13.0229 35.9694 12.9897 36.0138 12.9553 36.056C12.9205 36.0985 12.8835 36.1393 12.8445 36.1781C12.8068 36.2159 12.7658 36.2536 12.7236 36.2892C12.6813 36.3236 12.6373 36.3558 12.5917 36.3858C12.5466 36.4159 12.5 36.4437 12.4521 36.469C12.4044 36.4946 12.3556 36.5179 12.3046 36.539C12.2536 36.5601 12.2037 36.5778 12.1516 36.5945C12.0995 36.6112 12.0474 36.6234 11.9942 36.6345C11.941 36.6456 11.8834 36.6533 11.8324 36.6589C11.7764 36.6645 11.7202 36.667 11.6639 36.6667Z" fill="#D80028"/>
<path d="M18.3306 36.6667C18.2759 36.6669 18.2211 36.6643 18.1666 36.6589C18.1134 36.6533 18.0557 36.6445 18.0059 36.6345C17.956 36.6245 17.895 36.61 17.8473 36.5945C17.7997 36.579 17.7442 36.5601 17.6944 36.539C17.6445 36.5179 17.5946 36.4946 17.5469 36.469C17.4993 36.4435 17.4527 36.4157 17.4072 36.3858C17.3618 36.3561 17.3182 36.3238 17.2764 36.2892C17.2343 36.2547 17.1933 36.217 17.1545 36.1781C17.1155 36.1393 17.0785 36.0985 17.0437 36.056C17.0093 36.0138 16.9771 35.9694 16.9472 35.925C16.9168 35.8794 16.8887 35.8323 16.863 35.7839C16.8374 35.7364 16.8144 35.6875 16.7942 35.6374C16.773 35.587 16.7545 35.5354 16.7388 35.483C16.7233 35.4319 16.71 35.3787 16.6989 35.3254C16.6881 35.2721 16.6799 35.2184 16.6745 35.1643C16.6692 35.1097 16.6666 35.0549 16.6668 35C16.6666 34.9451 16.6692 34.8903 16.6745 34.8357C16.6799 34.7816 16.6881 34.7279 16.6989 34.6747C16.71 34.6214 16.7233 34.5636 16.7388 34.517C16.7545 34.4646 16.773 34.4131 16.7942 34.3627C16.8144 34.3126 16.8374 34.2636 16.863 34.2161C16.8887 34.1677 16.9168 34.1206 16.9472 34.0751C16.9771 34.0307 17.0093 33.9863 17.0437 33.9441C17.0785 33.9015 17.1155 33.8607 17.1545 33.8219C17.1933 33.7842 17.2343 33.7464 17.2764 33.7109C17.3182 33.6762 17.3618 33.644 17.4072 33.6143C17.4523 33.5847 17.4989 33.5569 17.5469 33.531C17.5946 33.5055 17.6445 33.4821 17.6944 33.461C17.7442 33.44 17.7963 33.4222 17.8473 33.4055C17.8983 33.3889 17.9526 33.3767 18.0059 33.3656C18.0591 33.3545 18.1167 33.3467 18.1666 33.3411C18.2772 33.3308 18.3885 33.3308 18.4991 33.3411C18.5535 33.3467 18.61 33.3556 18.661 33.3656C18.712 33.3755 18.7663 33.39 18.8184 33.4055C18.8705 33.4211 18.9215 33.44 18.9714 33.461C19.0213 33.4821 19.0711 33.5055 19.1188 33.531C19.1667 33.5564 19.2134 33.5842 19.2585 33.6143C19.3041 33.6442 19.3481 33.6765 19.3904 33.7109C19.4325 33.7453 19.4735 33.7831 19.5112 33.8219C19.5502 33.8607 19.5872 33.9015 19.6221 33.9441C19.6564 33.9863 19.6897 34.0307 19.7196 34.0751C19.7497 34.1207 19.7774 34.1677 19.8028 34.2161C19.8279 34.2642 19.8512 34.3131 19.8726 34.3627C19.8926 34.4126 19.9114 34.4648 19.9269 34.517C19.9436 34.5686 19.9569 34.6213 19.9668 34.6747C19.9777 34.7279 19.9858 34.7816 19.9912 34.8357C19.9969 34.8903 19.9999 34.9451 20.0001 35C19.9999 35.0549 19.9969 35.1098 19.9912 35.1643C19.9858 35.2184 19.9777 35.2721 19.9668 35.3254C19.9569 35.3787 19.9436 35.4314 19.9269 35.483C19.9114 35.5352 19.8926 35.5874 19.8726 35.6374C19.8526 35.6873 19.8283 35.7362 19.8028 35.7839C19.7774 35.8323 19.7497 35.8794 19.7196 35.925C19.6897 35.9694 19.6564 36.0138 19.6221 36.056C19.5872 36.0985 19.5502 36.1393 19.5112 36.1781C19.4735 36.2159 19.4325 36.2536 19.3904 36.2892C19.3481 36.3236 19.3041 36.3558 19.2585 36.3858C19.2134 36.4159 19.1667 36.4437 19.1188 36.469C19.0711 36.4946 19.0213 36.5179 18.9714 36.539C18.9215 36.5601 18.8705 36.5778 18.8184 36.5945C18.7663 36.6112 18.7142 36.6234 18.661 36.6345C18.6078 36.6456 18.5501 36.6533 18.4991 36.6589C18.4432 36.6645 18.3869 36.667 18.3306 36.6667Z" fill="#D80028"/>
<path d="M11.1436 26.2658C11.0073 26.2661 10.8725 26.2375 10.7478 26.182C10.6232 26.1264 10.5116 26.0452 10.4202 25.9434L4.12335 18.9674C3.65558 18.4461 3.37814 17.7801 3.33672 17.079C3.29529 16.3779 3.49236 15.6835 3.89546 15.1102L9.23452 6.76275C9.6903 6.05119 10.6168 5.40909 11.4392 5.23611L19.3475 3.56925C20.093 3.42463 20.8496 3.3457 21.6088 3.33337H35.6896C35.9486 3.33337 36.197 3.43692 36.3802 3.62123C36.5633 3.80555 36.6662 4.05553 36.6662 4.31619V14.2754C36.6662 14.5361 36.5633 14.7861 36.3802 14.9704C36.197 15.1547 35.9486 15.2582 35.6896 15.2582H32.5499C30.415 15.2582 29.2293 16.1369 26.9674 18.6103C21.8731 24.1796 21.0267 25.4435 20.9043 25.6499C20.8382 25.8154 20.7286 25.9597 20.5872 26.0673C20.4702 26.1562 20.3349 26.2176 20.1912 26.2467C20.0475 26.2759 19.8991 26.2721 19.757 26.2357C18.5115 25.9159 16.4025 24.804 16.4025 22.6621C16.4025 21.3366 17.2014 19.905 18.1267 18.2467C18.5206 17.5403 18.9282 16.8098 19.2987 16.0412C19.436 15.7588 19.5402 15.5269 19.5402 15.3205C19.5394 14.4693 19.2029 13.6531 18.6048 13.0512C18.0067 12.4493 17.1957 12.1108 16.3498 12.1099C14.3079 12.1099 13.3 12.5384 12.5083 13.748L10.7405 16.7082L13.4524 20.6395C13.9703 21.2368 14.2376 22.0132 14.1979 22.805C14.1798 23.2091 14.0823 23.6056 13.9109 23.9716C13.7396 24.3375 13.4979 24.6657 13.1998 24.937C13.1783 24.9567 13.1561 24.975 13.1346 24.9927L11.7335 26.062C11.5644 26.1933 11.3571 26.2649 11.1436 26.2658ZM16.3524 10.1535C17.7161 10.155 19.0236 10.7009 19.9879 11.6713C20.9522 12.6416 21.4946 13.9573 21.4961 15.3297C21.4961 16.0026 21.2318 16.5477 21.0573 16.9087C20.6595 17.7284 20.2382 18.4812 19.8306 19.2151C19.0727 20.5733 18.3565 21.8569 18.3565 22.668C18.3565 23.3658 19.0623 23.835 19.6099 24.0931C19.7238 23.9404 19.8606 23.7655 20.0233 23.5604C21.0768 22.2389 22.9299 20.1271 25.531 17.2848C27.6673 14.9509 29.4207 13.2985 32.5506 13.2985H34.7136V5.30491H21.6114C20.9867 5.31791 20.3642 5.38366 19.7505 5.50147L11.8422 7.16178C11.5349 7.2273 11.0492 7.56277 10.8799 7.82878L5.52648 16.1972L5.49523 16.243C5.3469 16.4503 5.27352 16.7024 5.28726 16.9575C5.301 17.2126 5.40103 17.4552 5.57075 17.6452L11.2653 23.9555L11.9164 23.4602C12.1187 23.264 12.2383 22.997 12.2504 22.7145C12.2579 22.5684 12.2365 22.4223 12.1873 22.2846C12.1381 22.1469 12.0622 22.0204 11.964 21.9126C11.9353 21.8807 11.9088 21.847 11.8845 21.8117L8.78005 17.3084C8.67318 17.1529 8.61314 16.9697 8.60713 16.7807C8.60113 16.5918 8.64941 16.4051 8.74619 16.243L10.8486 12.7213C10.8551 12.7101 10.8616 12.6996 10.8688 12.6891C12.0395 10.884 13.6295 10.1476 16.3518 10.1476L16.3524 10.1535Z" fill="#D80028"/>
<path d="M30.0001 8.33337L24.1667 8.33337" stroke="white" stroke-width="2" stroke-linecap="round"/>
</svg>
