<svg width="16" height="16" viewBox="0 0 16 16" fill="none" xmlns="http://www.w3.org/2000/svg">
<rect width="16" height="16" rx="8" fill="#1F1F1F"/>
<path fill-rule="evenodd" clip-rule="evenodd" d="M10.0723 10.3334C10.2135 10.3334 10.3381 10.239 10.3791 10.1008L11.3208 7.00402C11.3579 6.87923 11.3191 6.74382 11.2221 6.65916C11.1251 6.57448 10.9883 6.55665 10.8736 6.61374L9.5216 7.2869L8.24355 5.77983C8.18265 5.708 8.09426 5.66675 8.0013 5.66675C7.90834 5.66675 7.81996 5.70801 7.75905 5.77983L6.48101 7.28688L5.12901 6.61373C5.01433 6.55665 4.8775 6.57447 4.78049 6.65914C4.68349 6.7438 4.64476 6.87922 4.68184 7.004L5.68056 10.1008C5.72162 10.239 5.84619 10.3334 5.98736 10.3334H10.0723ZM6.80422 7.90686L8.0013 6.49526L9.1984 7.90685C9.29352 8.01904 9.45048 8.05183 9.581 7.98685L10.4933 7.5326L9.83464 9.67749H6.22503L5.50928 7.5326L6.42161 7.98685C6.55218 8.05185 6.70909 8.01902 6.80422 7.90686Z" fill="white"/>
</svg>
