<svg width="49" height="48" viewBox="0 0 49 48" fill="none" xmlns="http://www.w3.org/2000/svg">
<rect x="0.5" width="48" height="48" rx="24" fill="#2583B8"/>
<path fill-rule="evenodd" clip-rule="evenodd" d="M36.9262 38C37.7731 38 38.5206 37.4335 38.7669 36.6046L44.4167 18.0236C44.6393 17.2749 44.4069 16.4624 43.8248 15.9545C43.2429 15.4464 42.4218 15.3394 41.7338 15.682L33.6218 19.7209L25.9535 10.6785C25.5881 10.2475 25.0577 10 24.5 10C23.9422 10 23.412 10.2476 23.0465 10.6785L15.3783 19.7208L7.26622 15.6819C6.57817 15.3394 5.75719 15.4463 5.17515 15.9543C4.59313 16.4623 4.36073 17.2748 4.58324 18.0235L10.5756 36.6046C10.8219 37.4335 11.5693 38 12.4164 38H36.9262ZM17.3175 23.4407L24.5 14.9711L31.6826 23.4406C32.2533 24.1138 33.195 24.3105 33.9782 23.9206L39.4521 21.1951L35.5 34.0645H13.8424L9.54787 21.1951L15.0219 23.9206C15.8053 24.3106 16.7467 24.1136 17.3175 23.4407Z" fill="white"/>
</svg>
