<svg width="25" height="24" viewBox="0 0 25 24" fill="none" xmlns="http://www.w3.org/2000/svg">
<path fill-rule="evenodd" clip-rule="evenodd" d="M4.8999 8V20H20.8999V8H4.8999ZM2.8999 7.77778C2.8999 6.83053 3.64944 6 4.6499 6H21.1499C22.1504 6 22.8999 6.83053 22.8999 7.77778V20.2222C22.8999 21.1695 22.1504 22 21.1499 22H4.6499C3.64944 22 2.8999 21.1695 2.8999 20.2222V7.77778Z" fill="#D80028"/>
<path fill-rule="evenodd" clip-rule="evenodd" d="M12.8999 4C12.1706 4 11.4711 4.28973 10.9554 4.80546C10.4396 5.32118 10.1499 6.02065 10.1499 6.75V9.75C10.1499 10.3023 9.70219 10.75 9.1499 10.75C8.59762 10.75 8.1499 10.3023 8.1499 9.75V6.75C8.1499 5.49022 8.65035 4.28204 9.54115 3.39124C10.4319 2.50044 11.6401 2 12.8999 2C14.1597 2 15.3679 2.50044 16.2587 3.39124C17.1495 4.28204 17.6499 5.49022 17.6499 6.75V9.75C17.6499 10.3023 17.2022 10.75 16.6499 10.75C16.0976 10.75 15.6499 10.3023 15.6499 9.75V6.75C15.6499 6.02065 15.3602 5.32118 14.8444 4.80546C14.3287 4.28973 13.6292 4 12.8999 4Z" fill="#D80028"/>
</svg>
