<svg width="24" height="24" viewBox="0 0 24 24" fill="none" xmlns="http://www.w3.org/2000/svg">
<path d="M3 8.55556C3 7.72671 3.67458 7 4.575 7H19.425C20.3254 7 21 7.72671 21 8.55556V19.4444C21 20.2733 20.3254 21 19.425 21H4.575C3.67458 21 3 20.2733 3 19.4444V8.55556Z" fill="#FFC035"/>
<path fill-rule="evenodd" clip-rule="evenodd" d="M4.8 8.75V19.25H19.2V8.75H4.8ZM3 8.55556C3 7.72671 3.67458 7 4.575 7H19.425C20.3254 7 21 7.72671 21 8.55556V19.4444C21 20.2733 20.3254 21 19.425 21H4.575C3.67458 21 3 20.2733 3 19.4444V8.55556Z" fill="#D80028"/>
<path fill-rule="evenodd" clip-rule="evenodd" d="M12 4.82857C11.3858 4.82857 10.7968 5.09347 10.3625 5.56499C9.92819 6.03651 9.68421 6.67603 9.68421 7.34286V10.0857C9.68421 10.5907 9.30719 11 8.84211 11C8.37702 11 8 10.5907 8 10.0857V7.34286C8 6.19106 8.42143 5.08644 9.17157 4.27199C9.92172 3.45755 10.9391 3 12 3C13.0609 3 14.0783 3.45755 14.8284 4.27199C15.5786 5.08644 16 6.19106 16 7.34286V10.0857C16 10.5907 15.623 11 15.1579 11C14.6928 11 14.3158 10.5907 14.3158 10.0857V7.34286C14.3158 6.67603 14.0718 6.03651 13.6375 5.56499C13.2032 5.09347 12.6142 4.82857 12 4.82857Z" fill="#D80028"/>
</svg>
