<svg width="16" height="17" viewBox="0 0 16 17" fill="none" xmlns="http://www.w3.org/2000/svg">
<g clip-path="url(#clip0_457_39355)">
<path fill-rule="evenodd" clip-rule="evenodd" d="M3.80475 3.36195C3.5444 3.1016 3.12229 3.1016 2.86194 3.36195C2.60159 3.6223 2.60159 4.04441 2.86194 4.30476L7.05714 8.49996L2.86177 12.6953C2.60142 12.9556 2.60141 13.3777 2.86176 13.6381C3.12211 13.8984 3.54422 13.8984 3.80457 13.6381L7.99995 9.44276L12.1953 13.6381C12.4556 13.8984 12.8777 13.8984 13.1381 13.6381C13.3984 13.3777 13.3984 12.9556 13.1381 12.6953L8.94277 8.49996L13.138 4.30482C13.3983 4.04447 13.3983 3.62236 13.138 3.36201C12.8776 3.10166 12.4555 3.10165 12.1952 3.362L7.99996 7.55715L3.80475 3.36195Z" fill="#C7C7C7"/>
</g>
<defs>
<clipPath id="clip0_457_39355">
<rect width="16" height="16" fill="white" transform="translate(0 0.5)"/>
</clipPath>
</defs>
</svg>
