<svg width="25" height="24" viewBox="0 0 25 24" fill="none" xmlns="http://www.w3.org/2000/svg">
<path fill-rule="evenodd" clip-rule="evenodd" d="M5.83237 4.29289C5.44185 3.90237 4.80868 3.90237 4.41816 4.29289C4.02764 4.68342 4.02764 5.31658 4.41816 5.70711L10.711 11.9999L4.4179 18.2929C4.02737 18.6834 4.02737 19.3165 4.41789 19.7071C4.80841 20.0976 5.44157 20.0976 5.8321 19.7071L12.1252 13.4141L18.4182 19.7071C18.8087 20.0976 19.4418 20.0976 19.8324 19.7071C20.2229 19.3166 20.2229 18.6834 19.8324 18.2929L13.5394 11.9999L19.8322 5.70719C20.2227 5.31667 20.2227 4.68351 19.8322 4.29298C19.4417 3.90245 18.8085 3.90245 18.418 4.29297L12.1252 10.5857L5.83237 4.29289Z" fill="#D80028"/>
</svg>
