<svg width="16" height="17" viewBox="0 0 16 17" fill="none" xmlns="http://www.w3.org/2000/svg">
<path fill-rule="evenodd" clip-rule="evenodd" d="M1.70737 0.792893C1.31685 0.402369 0.683684 0.402369 0.293159 0.792893C-0.097365 1.18342 -0.097365 1.81658 0.293159 2.20711L6.58595 8.4999L0.292899 14.7929C-0.0976282 15.1834 -0.0976338 15.8165 0.292887 16.2071C0.683408 16.5976 1.31657 16.5976 1.7071 16.2071L8.00017 9.91411L14.2932 16.2071C14.6837 16.5976 15.3168 16.5976 15.7074 16.2071C16.0979 15.8166 16.0979 15.1834 15.7074 14.7929L9.41439 8.49991L15.7072 2.20719C16.0977 1.81667 16.0977 1.18351 15.7072 0.79298C15.3167 0.402453 14.6835 0.402448 14.293 0.792969L8.00018 7.0857L1.70737 0.792893Z" fill="#414141"/>
</svg>
