<svg width="25" height="24" viewBox="0 0 25 24" fill="none" xmlns="http://www.w3.org/2000/svg">
<path fill-rule="evenodd" clip-rule="evenodd" d="M7.375 15C6.27043 15 5.375 15.8954 5.375 17C5.375 18.1046 6.27043 19 7.375 19C8.47957 19 9.375 18.1046 9.375 17C9.375 15.8954 8.47957 15 7.375 15ZM3.375 17C3.375 14.7909 5.16586 13 7.375 13C9.58414 13 11.375 14.7909 11.375 17C11.375 19.2091 9.58414 21 7.375 21C5.16586 21 3.375 19.2091 3.375 17Z" fill="#D80028"/>
<path fill-rule="evenodd" clip-rule="evenodd" d="M7.375 5C6.27043 5 5.375 5.89543 5.375 7C5.375 8.10457 6.27043 9 7.375 9C8.47957 9 9.375 8.10457 9.375 7C9.375 5.89543 8.47957 5 7.375 5ZM3.375 7C3.375 4.79086 5.16586 3 7.375 3C9.58414 3 11.375 4.79086 11.375 7C11.375 9.20914 9.58414 11 7.375 11C5.16586 11 3.375 9.20914 3.375 7Z" fill="#D80028"/>
<path fill-rule="evenodd" clip-rule="evenodd" d="M17.375 15C16.2704 15 15.375 15.8954 15.375 17C15.375 18.1046 16.2704 19 17.375 19C18.4796 19 19.375 18.1046 19.375 17C19.375 15.8954 18.4796 15 17.375 15ZM13.375 17C13.375 14.7909 15.1659 13 17.375 13C19.5841 13 21.375 14.7909 21.375 17C21.375 19.2091 19.5841 21 17.375 21C15.1659 21 13.375 19.2091 13.375 17Z" fill="#D80028"/>
<path fill-rule="evenodd" clip-rule="evenodd" d="M17.375 5C16.2704 5 15.375 5.89543 15.375 7C15.375 8.10457 16.2704 9 17.375 9C18.4796 9 19.375 8.10457 19.375 7C19.375 5.89543 18.4796 5 17.375 5ZM13.375 7C13.375 4.79086 15.1659 3 17.375 3C19.5841 3 21.375 4.79086 21.375 7C21.375 9.20914 19.5841 11 17.375 11C15.1659 11 13.375 9.20914 13.375 7Z" fill="#D80028"/>
</svg>
