<svg width="24" height="24" viewBox="0 0 24 24" fill="none" xmlns="http://www.w3.org/2000/svg">
<path fill-rule="evenodd" clip-rule="evenodd" d="M12.0003 2C9.55892 2 7.15866 2.17862 4.812 2.52366C2.70225 2.83387 1.25 4.67955 1.25 6.74064V12.7593C1.25 14.8204 2.70225 16.6661 4.81199 16.9763C5.61848 17.0949 6.43132 17.1938 7.25 17.2726V21C7.25 21.4045 7.49364 21.7691 7.86732 21.9239C8.24099 22.0787 8.67111 21.9931 8.95711 21.7071L13.1406 17.5236C13.1624 17.5019 13.1957 17.4857 13.2364 17.4847C15.2525 17.4348 17.2387 17.263 19.1879 16.9764C21.2977 16.6663 22.75 14.8206 22.75 12.7595V6.74056C22.75 4.67944 21.2977 2.83375 19.188 2.52357C16.8415 2.17859 14.4414 2 12.0003 2ZM5.10294 4.50239C7.35358 4.17147 9.6566 4 12.0003 4C14.3438 4 16.6466 4.17144 18.897 4.5023C19.9554 4.6579 20.75 5.59948 20.75 6.74056V12.7595C20.75 13.9005 19.9554 14.8421 18.897 14.9977C17.0275 15.2726 15.1219 15.4374 13.1868 15.4853C12.643 15.4988 12.1181 15.7177 11.7264 16.1094L9.25 18.5858V16.3556C9.25 15.8332 8.8479 15.3989 8.32705 15.3586C7.2415 15.2747 6.16638 15.154 5.10293 14.9976C4.04458 14.842 3.25 13.9004 3.25 12.7593V6.74064C3.25 5.59957 4.04458 4.658 5.10294 4.50239ZM8.25 8.625C7.62868 8.625 7.125 9.12868 7.125 9.75C7.125 10.3713 7.62868 10.875 8.25 10.875C8.87132 10.875 9.375 10.3713 9.375 9.75C9.375 9.12868 8.87132 8.625 8.25 8.625ZM12 8.625C11.3787 8.625 10.875 9.12868 10.875 9.75C10.875 10.3713 11.3787 10.875 12 10.875C12.6213 10.875 13.125 10.3713 13.125 9.75C13.125 9.12868 12.6213 8.625 12 8.625ZM15.75 8.625C15.1287 8.625 14.625 9.12868 14.625 9.75C14.625 10.3713 15.1287 10.875 15.75 10.875C16.3713 10.875 16.875 10.3713 16.875 9.75C16.875 9.12868 16.3713 8.625 15.75 8.625Z" fill="#D80028"/>
</svg>
