<svg width="40" height="40" viewBox="0 0 40 40" fill="none" xmlns="http://www.w3.org/2000/svg">
<path d="M33.7369 16.2083H4.30981C3.77049 16.2083 3.33325 16.6289 3.33325 17.1478V20.9062C3.33325 23.4966 5.52368 25.6041 8.21606 25.6041H19.9348C22.2929 25.6041 24.2657 23.9875 24.7194 21.8458H33.7369C35.3523 21.8458 36.6666 20.5813 36.6666 19.027C36.6666 17.4727 35.3523 16.2083 33.7369 16.2083ZM33.7369 19.9666H24.8176V18.0874H33.7369C34.2754 18.0874 34.7135 18.5089 34.7135 19.027C34.7135 19.5451 34.2754 19.9666 33.7369 19.9666Z" fill="#FFC035"/>
<path d="M10.8247 8.81317C11.7515 8.21866 12.3049 7.22389 12.3049 6.1522C12.3049 5.08051 11.7515 4.08574 10.8247 3.49123C10.376 3.20346 9.76965 3.3201 9.47049 3.75187C9.17127 4.18364 9.29256 4.767 9.74133 5.05483C10.1292 5.30363 10.3517 5.70364 10.3517 6.1522C10.3517 6.60076 10.1292 7.00077 9.74133 7.24957C8.8145 7.84408 8.26118 8.83885 8.26118 9.91055C8.26118 10.9822 8.8145 11.977 9.74133 12.5715C10.1894 12.8588 10.7959 12.7434 11.0956 12.3109C11.3948 11.8791 11.2735 11.2957 10.8247 11.0079C10.4368 10.7591 10.2143 10.3591 10.2143 9.91055C10.2143 9.46199 10.4368 9.06197 10.8247 8.81317ZM15.7075 8.81317C16.6344 8.21866 17.1877 7.22389 17.1877 6.1522C17.1877 5.08051 16.6344 4.08574 15.7075 3.49123C15.2587 3.20346 14.6525 3.3201 14.3533 3.75187C14.0541 4.18364 14.1754 4.767 14.6241 5.05483C15.012 5.30363 15.2346 5.70364 15.2346 6.1522C15.2346 6.60076 15.012 7.00077 14.6241 7.24957C13.6973 7.84408 13.144 8.83885 13.144 9.91055C13.144 10.9822 13.6973 11.977 14.6241 12.5715C15.0722 12.8588 15.6787 12.7434 15.9784 12.3109C16.2776 11.8791 16.1563 11.2957 15.7075 11.0079C15.3196 10.7591 15.0971 10.3591 15.0971 9.91055C15.0971 9.46199 15.3196 9.06197 15.7075 8.81317ZM20.5903 8.81317C21.5172 8.21866 22.0705 7.22389 22.0705 6.1522C22.0705 5.08051 21.5172 4.08574 20.5903 3.49123C20.1415 3.20346 19.5353 3.3201 19.2361 3.75187C18.9369 4.18364 19.0582 4.767 19.507 5.05483C19.8948 5.30363 20.1174 5.70364 20.1174 6.1522C20.1174 6.60076 19.8948 7.00077 19.507 7.24957C18.5801 7.84408 18.0268 8.83885 18.0268 9.91055C18.0268 10.9822 18.5801 11.977 19.507 12.5715C19.955 12.8588 20.5615 12.7434 20.8612 12.3109C21.1604 11.8791 21.0391 11.2957 20.5903 11.0079C20.2025 10.7591 19.9799 10.3591 19.9799 9.91055C19.9799 9.46199 20.2025 9.06197 20.5903 8.81317ZM33.7369 16.2083H4.30981C3.77049 16.2083 3.33325 16.629 3.33325 17.1479V20.9062C3.33325 23.4967 5.52368 25.6042 8.21606 25.6042H19.9348C22.2929 25.6042 24.2657 23.9876 24.7194 21.8458H33.7369C35.3523 21.8458 36.6666 20.5813 36.6666 19.0271C36.6666 17.4728 35.3523 16.2083 33.7369 16.2083ZM22.8645 20.9051V20.9071C22.864 22.4609 21.55 23.725 19.9348 23.725H8.21606C6.60063 23.725 5.28638 22.4605 5.28638 20.9062V18.0875H22.8645V20.9051ZM33.7369 19.9667H24.8176V18.0875H33.7369C34.2754 18.0875 34.7135 18.509 34.7135 19.0271C34.7135 19.5452 34.2754 19.9667 33.7369 19.9667ZM8.88709 32.5998L7.10981 29.6218C7.02426 29.4784 6.90091 29.3593 6.75222 29.2765C6.60352 29.1937 6.43475 29.15 6.26294 29.15C6.09113 29.15 5.92236 29.1937 5.77366 29.2765C5.62497 29.3593 5.50162 29.4784 5.41606 29.6218L3.63879 32.5998C3.48475 32.8579 3.33325 33.3453 3.33325 33.8479C3.33325 35.4022 4.64751 36.6667 6.26294 36.6667C7.87837 36.6667 9.19263 35.4022 9.19263 33.8479C9.19263 33.3598 9.04536 32.8651 8.88709 32.5998ZM6.26294 34.7875C5.72446 34.7875 5.28638 34.366 5.28638 33.8479C5.28638 33.7238 5.31079 33.604 5.3589 33.4913L6.26294 31.9765L7.16698 33.4913C7.21522 33.6044 7.23986 33.7256 7.2395 33.8479C7.2395 34.366 6.80142 34.7875 6.26294 34.7875ZM16.6996 32.5998L14.9223 29.6218C14.8368 29.4784 14.7134 29.3593 14.5647 29.2765C14.416 29.1937 14.2473 29.15 14.0754 29.15C13.9036 29.15 13.7349 29.1937 13.5862 29.2765C13.4375 29.3593 13.3141 29.4784 13.2286 29.6218C11.3481 32.7755 11.4447 32.6041 11.4099 32.677C11.235 33.0444 11.1448 33.4439 11.1457 33.8479C11.1457 35.4022 12.4599 36.6667 14.0754 36.6667C15.6908 36.6667 17.0051 35.4022 17.0051 33.8479C17.0051 33.3598 16.8579 32.8651 16.6996 32.5998ZM14.0754 34.7875C13.537 34.7875 13.0989 34.366 13.0989 33.8479C13.0989 33.7238 13.1233 33.604 13.1714 33.4913L14.0754 31.9765L14.9795 33.4913C15.0277 33.6044 15.0524 33.7256 15.052 33.8479C15.052 34.366 14.6139 34.7875 14.0754 34.7875ZM24.5121 32.5998L22.7348 29.6218C22.6493 29.4784 22.5259 29.3593 22.3772 29.2765C22.2285 29.1937 22.0598 29.15 21.8879 29.15C21.7161 29.15 21.5474 29.1937 21.3987 29.2765C21.25 29.3593 21.1266 29.4784 21.0411 29.6218L19.2638 32.5998C19.1097 32.8579 18.9583 33.3453 18.9583 33.8479C18.9583 35.4022 20.2725 36.6667 21.8879 36.6667C23.5034 36.6667 24.8176 35.4022 24.8176 33.8479C24.8176 33.3598 24.6704 32.8651 24.5121 32.5998ZM21.8879 34.7875C21.3495 34.7875 20.9114 34.366 20.9114 33.8479C20.9114 33.7238 20.9358 33.604 20.9839 33.4913L21.8879 31.9765L22.792 33.4913C22.8402 33.6044 22.8649 33.7256 22.8645 33.8479C22.8645 34.366 22.4264 34.7875 21.8879 34.7875Z" fill="#D80028"/>
</svg>
