<svg width="24" height="24" viewBox="0 0 24 24" fill="none" xmlns="http://www.w3.org/2000/svg">
<path fill-rule="evenodd" clip-rule="evenodd" d="M15.314 12.9611L15.2983 12.989C15.231 13.1057 15.1719 13.2928 15.1714 13.5207V18.8575C15.1714 19.6221 14.7353 20.3199 14.048 20.6551L11.7053 21.7976C11.0855 22.0999 10.3536 22.0615 9.76878 21.6961C9.18394 21.3306 8.82865 20.6896 8.82865 20V13.5209C8.82809 13.2929 8.76899 13.1059 8.70183 12.9894L8.68584 12.9611L4.25126 4.97051C3.90746 4.35103 3.91706 3.5959 4.27648 2.98536C4.63591 2.37482 5.29152 2 6 2H18C18.7085 2 19.3641 2.37483 19.7235 2.98537C20.0829 3.59592 20.0925 4.35106 19.7487 4.97053L15.314 12.9611ZM13.1714 13.5191C13.1722 12.9689 13.3101 12.4335 13.5653 11.9906L18 4H6L10.4346 11.9906C10.6899 12.4335 10.8278 12.9689 10.8286 13.5191V20L13.1714 18.8575V13.5191Z" fill="#D80028"/>
</svg>
