<svg width="16" height="16" viewBox="0 0 16 16" fill="none" xmlns="http://www.w3.org/2000/svg">
<rect width="16" height="16" rx="8" fill="#F99707"/>
<path fill-rule="evenodd" clip-rule="evenodd" d="M12.1407 12.6666C12.4231 12.6666 12.6722 12.4778 12.7543 12.2015L14.6376 6.00779C14.7118 5.75822 14.6343 5.4874 14.4403 5.31807C14.2463 5.14872 13.9726 5.11306 13.7433 5.22725L11.0393 6.57355L8.4832 3.55941C8.3614 3.41576 8.18461 3.33325 7.9987 3.33325C7.81277 3.33325 7.63602 3.41577 7.5142 3.55941L4.95812 6.57353L2.2541 5.22721C2.02475 5.11306 1.7511 5.1487 1.55708 5.31803C1.36307 5.48736 1.28561 5.75819 1.35978 6.00777L3.35722 12.2014C3.43934 12.4777 3.68847 12.6666 3.97082 12.6666H12.1407ZM5.60453 7.81347L7.9987 4.99027L10.3929 7.81346C10.5831 8.03784 10.897 8.10342 11.1581 7.97345L12.9827 7.06495L11.6654 11.3547H4.44616L3.01465 7.06495L4.83932 7.97346C5.10046 8.10346 5.41428 8.03779 5.60453 7.81347Z" fill="white"/>
</svg>
