<svg width="16" height="16" viewBox="0 0 16 16" fill="none" xmlns="http://www.w3.org/2000/svg">
<rect width="16" height="16" rx="8" fill="#62A047"/>
<path fill-rule="evenodd" clip-rule="evenodd" d="M12.1422 12.6666C12.4245 12.6666 12.6737 12.4778 12.7558 12.2015L14.6391 6.00779C14.7133 5.75822 14.6358 5.4874 14.4418 5.31807C14.2478 5.14872 13.9741 5.11306 13.7447 5.22725L11.0408 6.57355L8.48467 3.55941C8.36286 3.41576 8.18608 3.33325 8.00017 3.33325C7.81424 3.33325 7.63748 3.41577 7.51567 3.55941L4.95958 6.57353L2.25557 5.22721C2.02622 5.11306 1.75256 5.1487 1.55855 5.31803C1.36454 5.48736 1.28707 5.75819 1.36124 6.00777L3.35868 12.2014C3.44081 12.4777 3.68994 12.6666 3.97229 12.6666H12.1422ZM5.60599 7.81347L8.00017 4.99027L10.3944 7.81346C10.5846 8.03784 10.8985 8.10342 11.1596 7.97345L12.9842 7.06495L11.6668 11.3547H4.44762L3.01612 7.06495L4.84078 7.97346C5.10192 8.10346 5.41574 8.03779 5.60599 7.81347Z" fill="white"/>
</svg>
