<svg width="16" height="16" viewBox="0 0 16 16" fill="none" xmlns="http://www.w3.org/2000/svg">
<path fill-rule="evenodd" clip-rule="evenodd" d="M3.73101 2.29346C4.20213 2.09973 4.70724 2 5.21737 2C5.7275 2 6.23261 2.09973 6.70373 2.29346C7.17486 2.48719 7.60273 2.77112 7.96282 3.12896L7.96484 3.13097L8.00017 3.16642L8.0355 3.13097L8.03751 3.12896C8.3976 2.77112 8.82548 2.48719 9.2966 2.29346C9.76773 2.09973 10.2728 2 10.783 2C11.2931 2 11.7982 2.09973 12.2693 2.29346C12.7403 2.48712 13.168 2.77092 13.528 3.12859C15.0693 4.65538 15.1036 7.17983 13.2773 9.02237L13.2733 9.02634L8.4284 13.8243C8.31483 13.9368 8.16079 14 8.00017 14C7.83955 14 7.68551 13.9368 7.57193 13.8243L2.72305 9.02238C0.8967 7.17984 0.93099 4.65537 2.4723 3.12859C2.8323 2.77092 3.26005 2.48712 3.73101 2.29346ZM5.21737 3.1995C4.86666 3.1995 4.5194 3.26807 4.1955 3.40126C3.8716 3.53445 3.57743 3.72965 3.32987 3.97567L3.32913 3.9764C2.30345 4.99215 2.18007 6.76054 3.58555 8.18018L8.00017 12.5521L12.4148 8.18019C13.8203 6.76055 13.6969 4.99215 12.6712 3.9764L12.6705 3.97567C12.4229 3.72965 12.1287 3.53445 11.8048 3.40126C11.4809 3.26807 11.1337 3.1995 10.783 3.1995C10.4323 3.1995 10.085 3.26807 9.76109 3.40126C9.43762 3.53427 9.1438 3.72914 8.89644 3.9747C8.89612 3.97502 8.89579 3.97534 8.89547 3.97567L8.43115 4.44147C8.31736 4.55562 8.16214 4.61987 8.00017 4.61987C7.83819 4.61987 7.68297 4.55562 7.56918 4.44147L7.10487 3.97567C7.10454 3.97534 7.10422 3.97502 7.10389 3.9747C6.85653 3.72914 6.56272 3.53427 6.23924 3.40126C5.91535 3.26807 5.56808 3.1995 5.21737 3.1995Z" fill="#E3E3E3"/>
</svg>
