<svg width="16" height="16" viewBox="0 0 16 16" fill="none" xmlns="http://www.w3.org/2000/svg">
<path d="M3.73101 2.29346C4.20214 2.09973 4.70724 2 5.21737 2C5.7275 2 6.23261 2.09973 6.70373 2.29346C7.17486 2.48719 7.60273 2.77112 7.96282 3.12896L7.96484 3.13097L8.00017 3.16642L8.0355 3.13097L8.03751 3.12896C8.3976 2.77112 8.82548 2.48719 9.2966 2.29346C9.76773 2.09973 10.2728 2 10.783 2C11.2931 2 11.7982 2.09973 12.2693 2.29346C12.7403 2.48712 13.168 2.77092 13.528 3.12859C15.0693 4.65538 15.1036 7.17983 13.2773 9.02237L13.2733 9.02634L8.4284 13.8243C8.31483 13.9368 8.16079 14 8.00017 14C7.83955 14 7.68551 13.9368 7.57193 13.8243L2.72305 9.02238C0.8967 7.17984 0.93099 4.65537 2.4723 3.12859C2.8323 2.77092 3.26005 2.48712 3.73101 2.29346Z" fill="#FF264E"/>
</svg>
