<svg width="20" height="18" viewBox="0 0 20 18" fill="none" xmlns="http://www.w3.org/2000/svg">
<path fill-rule="evenodd" clip-rule="evenodd" d="M3.59627 0.440188C4.30296 0.149589 5.06062 0 5.82581 0C6.591 0 7.34867 0.149589 8.05536 0.440188C8.76204 0.730787 9.40386 1.15668 9.94399 1.69344L9.94701 1.69645L10 1.74963L10.053 1.69645L10.056 1.69344C10.5962 1.15668 11.238 0.730787 11.9447 0.440188C12.6513 0.149589 13.409 0 14.1742 0C14.9394 0 15.6971 0.149589 16.4037 0.440188C17.1102 0.730687 17.7518 1.15639 18.2918 1.69289C20.6038 3.98307 20.6552 7.76974 17.9157 10.5335L17.9098 10.5395L10.6424 17.7365C10.472 17.9052 10.2409 18 10 18C9.75908 18 9.52802 17.9052 9.35766 17.7365L2.08433 10.5336C-0.655194 7.76976 -0.603759 3.98306 1.7082 1.69288C2.24821 1.15638 2.88983 0.730686 3.59627 0.440188ZM5.82581 1.79926C5.29974 1.79926 4.77885 1.9021 4.293 2.10189C3.80715 2.30167 3.36591 2.59447 2.99457 2.9635L2.99345 2.9646C1.45494 4.48823 1.26986 7.14082 3.37809 9.27028L10 15.8281L16.6219 9.27029C18.7302 7.14082 18.5451 4.48823 17.0066 2.9646L17.0054 2.9635C16.6341 2.59447 16.1929 2.30167 15.707 2.10189C15.2212 1.9021 14.7003 1.79926 14.1742 1.79926C13.6481 1.79926 13.1272 1.9021 12.6414 2.10189C12.1562 2.30141 11.7155 2.5937 11.3444 2.96204C11.3439 2.96253 11.3434 2.96301 11.343 2.9635L10.6465 3.6622C10.4758 3.83343 10.243 3.92981 10 3.92981C9.75705 3.92981 9.52421 3.83343 9.35353 3.6622L8.65706 2.9635C8.65657 2.96301 8.65608 2.96253 8.65559 2.96204C8.28456 2.5937 7.84383 2.30141 7.35862 2.10189C6.87277 1.9021 6.35188 1.79926 5.82581 1.79926Z" fill="#D80028"/>
</svg>
