<svg width="24" height="24" viewBox="0 0 24 24" fill="none" xmlns="http://www.w3.org/2000/svg">
<path fill-rule="evenodd" clip-rule="evenodd" d="M19.907 12.7868L20.412 13.2954C20.7753 13.6612 21.3643 13.6612 21.7275 13.2954C22.0908 12.9296 22.0908 12.3365 21.7275 11.9707L13.3978 3.583C12.6258 2.80567 11.3742 2.80567 10.6022 3.583L2.27246 11.9707C1.90918 12.3365 1.90918 12.9296 2.27246 13.2954C2.63574 13.6612 3.22473 13.6612 3.58801 13.2954L4.09302 12.7868V20.0095C4.09302 21.1088 4.97804 22 6.06977 22H17.9302C19.022 22 19.907 21.1088 19.907 20.0095V12.7868ZM13.1628 20.1266H10.8372V16.4969C10.8372 16.4322 10.8893 16.3798 10.9535 16.3798H13.0465C13.1107 16.3798 13.1628 16.4322 13.1628 16.4969V20.1266Z" fill="#FFC035"/>
<path fill-rule="evenodd" clip-rule="evenodd" d="M12.0822 4.90769C12.0368 4.86197 11.9632 4.86197 11.9178 4.90769L5.95349 10.9134V20.0095C5.95349 20.0742 6.00555 20.1266 6.06977 20.1266H8.97674V16.4969C8.97674 15.3976 9.86176 14.5064 10.9535 14.5064H13.0465C14.1382 14.5064 15.0233 15.3976 15.0233 16.4969V20.1266H17.9302C17.9945 20.1266 18.0465 20.0742 18.0465 20.0095V10.9134L12.0822 4.90769ZM19.907 12.7868L20.412 13.2954C20.7753 13.6612 21.3643 13.6612 21.7275 13.2954C22.0908 12.9296 22.0908 12.3365 21.7275 11.9707L13.3978 3.583C12.6258 2.80567 11.3742 2.80567 10.6022 3.583L2.27246 11.9707C1.90918 12.3365 1.90918 12.9296 2.27246 13.2954C2.63574 13.6612 3.22473 13.6612 3.58801 13.2954L4.09302 12.7868V20.0095C4.09302 21.1088 4.97804 22 6.06977 22H17.9302C19.022 22 19.907 21.1088 19.907 20.0095V12.7868ZM13.1628 20.1266H10.8372V16.4969C10.8372 16.4322 10.8893 16.3798 10.9535 16.3798H13.0465C13.1107 16.3798 13.1628 16.4322 13.1628 16.4969V20.1266Z" fill="#D80028"/>
</svg>
