<svg width="21" height="19" viewBox="0 0 21 19" fill="none" xmlns="http://www.w3.org/2000/svg">
<path fill-rule="evenodd" clip-rule="evenodd" d="M10.9572 1.90769C10.9118 1.86197 10.8382 1.86197 10.7928 1.90769L4.82849 7.91344V17.0095C4.82849 17.0742 4.88055 17.1266 4.94477 17.1266H7.85174V13.4969C7.85174 12.3976 8.73676 11.5064 9.82849 11.5064H11.9215C13.0132 11.5064 13.8983 12.3976 13.8983 13.4969V17.1266H16.8052C16.8695 17.1266 16.9215 17.0742 16.9215 17.0095V7.91344L10.9572 1.90769ZM18.782 9.78683L19.287 10.2954C19.6503 10.6612 20.2393 10.6612 20.6025 10.2954C20.9658 9.92956 20.9658 9.33647 20.6025 8.97067L12.2728 0.582999C11.5008 -0.194333 10.2492 -0.194333 9.47723 0.583L1.14746 8.97067C0.78418 9.33647 0.78418 9.92956 1.14746 10.2954C1.51074 10.6612 2.09973 10.6612 2.46301 10.2954L2.96802 9.78683V17.0095C2.96802 18.1088 3.85304 19 4.94477 19H16.8052C17.897 19 18.782 18.1088 18.782 17.0095V9.78683ZM12.0378 17.1266H9.71221V13.4969C9.71221 13.4322 9.76427 13.3798 9.82849 13.3798H11.9215C11.9857 13.3798 12.0378 13.4322 12.0378 13.4969V17.1266Z" fill="#D80028"/>
</svg>
