<svg width="24" height="25" viewBox="0 0 24 25" fill="none" xmlns="http://www.w3.org/2000/svg">
<path d="M19.2727 4.51758H4.72727C4.32561 4.51758 4 4.84319 4 5.24485V19.7903C4 20.192 4.32561 20.5176 4.72727 20.5176H19.2727C19.6744 20.5176 20 20.192 20 19.7903V5.24485C20 4.84319 19.6744 4.51758 19.2727 4.51758Z" fill="#62A047"/>
<path fill-rule="evenodd" clip-rule="evenodd" d="M5 5.51758V19.5176H19V5.51758H5ZM3 5.24485C3 4.2909 3.77333 3.51758 4.72727 3.51758H19.2727C20.2267 3.51758 21 4.29091 21 5.24485V19.7903C21 20.7443 20.2267 21.5176 19.2727 21.5176H4.72727C3.77333 21.5176 3 20.7443 3 19.7903V5.24485Z" fill="#62A047"/>
<path fill-rule="evenodd" clip-rule="evenodd" d="M16.7229 9.3266C17.1045 9.72583 17.0902 10.3588 16.691 10.7405L11.4602 15.7405C11.0737 16.11 10.4648 16.11 10.0783 15.7405L7.30902 13.0934C6.90979 12.7118 6.89551 12.0788 7.27713 11.6795C7.65875 11.2803 8.29175 11.266 8.69098 11.6476L10.7692 13.6342L15.309 9.29471C15.7083 8.91309 16.3413 8.92737 16.7229 9.3266Z" fill="white"/>
</svg>
