<svg width="24" height="24" viewBox="0 0 24 24" fill="none" xmlns="http://www.w3.org/2000/svg">
<path d="M19.2727 4H4.72727C4.32561 4 4 4.32561 4 4.72727V19.2727C4 19.6744 4.32561 20 4.72727 20H19.2727C19.6744 20 20 19.6744 20 19.2727V4.72727C20 4.32561 19.6744 4 19.2727 4Z" fill="#F99707"/>
<path fill-rule="evenodd" clip-rule="evenodd" d="M5 5V19H19V5H5ZM3 4.72727C3 3.77333 3.77333 3 4.72727 3H19.2727C20.2267 3 21 3.77333 21 4.72727V19.2727C21 20.2267 20.2267 21 19.2727 21H4.72727C3.77333 21 3 20.2267 3 19.2727V4.72727Z" fill="#F99707"/>
<path fill-rule="evenodd" clip-rule="evenodd" d="M16.7229 8.80902C17.1045 9.20825 17.0902 9.84126 16.691 10.2229L11.4602 15.2229C11.0737 15.5924 10.4648 15.5924 10.0783 15.2229L7.30902 12.5758C6.90979 12.1942 6.89551 11.5612 7.27713 11.162C7.65875 10.7627 8.29175 10.7485 8.69098 11.1301L10.7692 13.1166L15.309 8.77713C15.7083 8.39551 16.3413 8.40979 16.7229 8.80902Z" fill="white"/>
</svg>
