<svg width="40" height="40" viewBox="0 0 40 40" fill="none" xmlns="http://www.w3.org/2000/svg">
<rect width="40" height="40" rx="20" fill="#FFF0F3"/>
<path fill-rule="evenodd" clip-rule="evenodd" d="M23.314 20.9611L23.2983 20.989C23.231 21.1057 23.1719 21.2928 23.1714 21.5207V26.8575C23.1714 27.6221 22.7353 28.3199 22.048 28.6551L19.7053 29.7976C19.0855 30.0999 18.3536 30.0615 17.7688 29.6961C17.1839 29.3306 16.8286 28.6896 16.8286 28V21.5209C16.8281 21.2929 16.769 21.1059 16.7018 20.9894L16.6858 20.9611L12.2513 12.9705C11.9075 12.351 11.9171 11.5959 12.2765 10.9854C12.6359 10.3748 13.2915 10 14 10H26C26.7085 10 27.3641 10.3748 27.7235 10.9854C28.0829 11.5959 28.0925 12.3511 27.7487 12.9705L23.314 20.9611ZM21.1714 21.5191C21.1722 20.9689 21.3101 20.4335 21.5653 19.9906L26 12H14L18.4346 19.9906C18.6899 20.4335 18.8278 20.9689 18.8286 21.5191V28L21.1714 26.8575V21.5191Z" fill="#D80028"/>
</svg>
