<svg width="32" height="33" viewBox="0 0 32 33" fill="none" xmlns="http://www.w3.org/2000/svg">
<path d="M15.9957 9.85382C15.4612 9.85473 14.9285 9.91966 14.408 10.0473C12.0344 10.6274 10.1236 12.6011 9.54053 15.0753C8.95746 17.5495 9.62577 20.0775 11.3316 21.8319C11.8624 22.3801 12.1819 23.2617 12.1819 24.1943V24.3538C12.1822 24.6859 12.2453 25.0146 12.3674 25.321C12.4896 25.6274 12.6684 25.9054 12.8936 26.1389V27.3385C12.8943 28.0046 13.147 28.6433 13.5963 29.1143C14.0456 29.5854 14.6548 29.8503 15.2902 29.8511H16.7137C17.3491 29.8503 17.9583 29.5854 18.4076 29.1143C18.8569 28.6433 19.1096 28.0046 19.1103 27.3385V26.1395C19.335 25.9056 19.5134 25.6274 19.6351 25.321C19.7568 25.0145 19.8195 24.6858 19.8194 24.3538V24.1893C19.8194 23.2716 20.1556 22.3703 20.7188 21.7771C21.6503 20.7989 22.2842 19.5531 22.5403 18.1972C22.7964 16.8413 22.6633 15.4363 22.1577 14.1597C21.6522 12.8832 20.7969 11.7925 19.7001 11.0255C18.6032 10.2586 17.3141 9.84988 15.9957 9.85108V9.85382ZM14.8374 26.867H17.1613V27.339C17.1612 27.4642 17.1137 27.5841 17.0293 27.6726C16.9449 27.7611 16.8304 27.8109 16.711 27.8111H15.2876C15.1682 27.8109 15.0538 27.7611 14.9694 27.6726C14.885 27.5841 14.8375 27.4642 14.8374 27.339V26.867ZM17.8704 24.191V24.3555C17.8703 24.4806 17.8228 24.6006 17.7384 24.6891C17.654 24.7776 17.5395 24.8274 17.4201 24.8275H14.5759C14.4565 24.8274 14.3421 24.7776 14.2577 24.6891C14.1733 24.6006 14.1258 24.4806 14.1256 24.3555V24.1954C14.1256 22.7041 13.6027 21.3127 12.6944 20.3779C11.4853 19.1345 11.0126 17.3357 11.4299 15.566C11.6379 14.7062 12.0666 13.9226 12.6693 13.3001C13.272 12.6776 14.0258 12.24 14.8489 12.0347C15.2234 11.9426 15.6068 11.8957 15.9915 11.8949C16.9249 11.8939 17.8377 12.1831 18.6143 12.7259C19.391 13.2687 19.9968 14.0407 20.355 14.9444C20.7132 15.848 20.8078 16.8428 20.6268 17.8028C20.4459 18.7628 19.9974 19.645 19.3383 20.3379C18.408 21.3187 17.873 22.7228 17.873 24.1893L17.8704 24.191Z" fill="#FF264E"/>
<ellipse cx="16.0007" cy="15.1842" rx="1.33333" ry="1.33333" transform="rotate(180 16.0007 15.1842)" fill="#FF264E"/>
<path fill-rule="evenodd" clip-rule="evenodd" d="M16.0007 17.8511C16.737 17.8511 17.334 18.448 17.334 19.1844L17.334 21.8511C17.334 22.5875 16.737 23.1844 16.0007 23.1844C15.2643 23.1844 14.6673 22.5875 14.6673 21.8511L14.6673 19.1844C14.6673 18.448 15.2643 17.8511 16.0007 17.8511Z" fill="#FF264E"/>
<path fill-rule="evenodd" clip-rule="evenodd" d="M8 17.8507C8 18.5871 7.40305 19.1841 6.66667 19.1841L4 19.1841C3.26362 19.1841 2.66667 18.5871 2.66667 17.8507C2.66667 17.1144 3.26362 16.5174 4 16.5174L6.66667 16.5174C7.40305 16.5174 8 17.1144 8 17.8507Z" fill="#FF264E"/>
<path fill-rule="evenodd" clip-rule="evenodd" d="M15.9993 8.51758C15.263 8.51758 14.666 7.92062 14.666 7.18424L14.666 4.51758C14.666 3.7812 15.263 3.18424 15.9993 3.18424C16.7357 3.18424 17.3327 3.7812 17.3327 4.51758L17.3327 7.18424C17.3327 7.92062 16.7357 8.51758 15.9993 8.51758Z" fill="#FF264E"/>
<path fill-rule="evenodd" clip-rule="evenodd" d="M9.49554 11.3463C8.97484 11.867 8.13062 11.867 7.60993 11.3463L5.72431 9.46064C5.20361 8.93994 5.20361 8.09572 5.72431 7.57502C6.24501 7.05432 7.08923 7.05432 7.60993 7.57502L9.49554 9.46064C10.0162 9.98133 10.0162 10.8256 9.49554 11.3463Z" fill="#FF264E"/>
<path fill-rule="evenodd" clip-rule="evenodd" d="M21.7241 11.3461C21.2034 10.8254 21.2034 9.98121 21.7241 9.46051L23.6097 7.57489C24.1304 7.05419 24.9746 7.05419 25.4953 7.57489C26.016 8.09559 26.016 8.93981 25.4953 9.46051L23.6097 11.3461C23.089 11.8668 22.2448 11.8668 21.7241 11.3461Z" fill="#FF264E"/>
<path fill-rule="evenodd" clip-rule="evenodd" d="M29.334 17.8507C29.334 18.5871 28.737 19.1841 28.0007 19.1841L25.334 19.1841C24.5976 19.1841 24.0007 18.5871 24.0007 17.8507C24.0007 17.1144 24.5976 16.5174 25.334 16.5174L28.0007 16.5174C28.737 16.5174 29.334 17.1144 29.334 17.8507Z" fill="#FF264E"/>
</svg>
