<svg width="40" height="41" viewBox="0 0 40 41" fill="none" xmlns="http://www.w3.org/2000/svg">
<rect y="0.482422" width="40" height="40" rx="20" fill="#F6FAF3"/>
<path fill-rule="evenodd" clip-rule="evenodd" d="M11.8084 14.4833C11.8084 14.4832 11.8091 14.483 11.8106 14.4828L11.8084 14.4833ZM12 14.4824H28V26.4824H12V14.4824ZM11.8084 26.4816C11.8084 26.4815 11.8092 26.4816 11.8106 26.482L11.8084 26.4816ZM28.1916 26.4816C28.1916 26.4816 28.1909 26.4818 28.1894 26.482L28.1916 26.4816ZM28.1916 14.4833C28.1916 14.4833 28.1908 14.4832 28.1894 14.4828L28.1916 14.4833ZM10 14.1188C10 12.9957 11.0625 12.4824 11.8182 12.4824H28.1818C28.9375 12.4824 30 12.9957 30 14.1188V26.8461C30 27.9691 28.9375 28.4824 28.1818 28.4824H11.8182C11.0625 28.4824 10 27.9691 10 26.8461V14.1188Z" fill="#62A047"/>
<circle cx="14.5" cy="16.9824" r="1.5" fill="#62A047"/>
<path d="M26.5051 19.6527L24.3611 17.2025C23.5643 16.2919 22.1477 16.2919 21.3509 17.2025L18.5719 20.3782C18.1574 20.852 17.4203 20.852 17.0057 20.3782C16.5911 19.9044 15.8541 19.9045 15.4395 20.3782L13.4166 22.69C13.148 22.9969 13 23.3909 13 23.7988C13 24.7286 13.7538 25.4824 14.6837 25.4824H25C26.1046 25.4824 27 24.587 27 23.4824V20.9697C27 20.4852 26.8242 20.0172 26.5051 19.6527Z" fill="#62A047"/>
</svg>
