<svg width="24" height="25" viewBox="0 0 24 25" fill="none" xmlns="http://www.w3.org/2000/svg">
<path fill-rule="evenodd" clip-rule="evenodd" d="M6.00196 4.54504C6.00092 4.54746 6 4.55048 6 4.55604V20.4791C6 20.4847 6.00092 20.4877 6.00196 20.4901C6.0033 20.4932 6.00597 20.4977 6.01073 20.5024C6.01549 20.5071 6.02119 20.5109 6.0272 20.5134C6.03259 20.5157 6.03967 20.5176 6.05 20.5176H17.95C17.9603 20.5176 17.9674 20.5157 17.9728 20.5134C17.9788 20.5109 17.9845 20.5071 17.9893 20.5024C17.994 20.4977 17.9967 20.4932 17.998 20.4901C17.9991 20.4877 18 20.4847 18 20.4791V12.1714C18 11.0135 17.0479 10.056 15.85 10.056H14.45C13.3283 10.056 12.4 9.15378 12.4 8.01758V6.63296C12.4 5.47506 11.4479 4.51758 10.25 4.51758H6.05C6.03967 4.51758 6.03259 4.51947 6.0272 4.52172C6.02119 4.52424 6.01549 4.52803 6.01073 4.53274C6.00597 4.53745 6.0033 4.54191 6.00196 4.54504ZM6.05 2.51758C4.92826 2.51758 4 3.41984 4 4.55604V20.4791C4 21.6153 4.92826 22.5176 6.05 22.5176H17.95C19.0717 22.5176 20 21.6153 20 20.4791V11.8253C20 6.67439 15.781 2.51758 10.6 2.51758H6.05ZM14.2275 5.45395C14.3397 5.82705 14.4 6.22272 14.4 6.63296V8.01758C14.4 8.02313 14.4009 8.02615 14.402 8.02858C14.4033 8.03171 14.406 8.03617 14.4107 8.04088C14.4155 8.04559 14.4212 8.04938 14.4272 8.0519C14.4326 8.05415 14.4397 8.05604 14.45 8.05604H15.85C16.2641 8.05604 16.6647 8.11641 17.0429 8.22889C16.3786 7.07063 15.4032 6.10825 14.2275 5.45395ZM7.5 15.2868C7.5 14.7345 7.94772 14.2868 8.5 14.2868H15.5C16.0523 14.2868 16.5 14.7345 16.5 15.2868C16.5 15.8391 16.0523 16.2868 15.5 16.2868H8.5C7.94772 16.2868 7.5 15.8391 7.5 15.2868ZM7.5 18.056C7.5 17.5038 7.94772 17.056 8.5 17.056H12C12.5523 17.056 13 17.5038 13 18.056C13 18.6083 12.5523 19.056 12 19.056H8.5C7.94772 19.056 7.5 18.6083 7.5 18.056Z" fill="#62A047"/>
</svg>
