<svg width="40" height="40" viewBox="0 0 40 40" fill="none" xmlns="http://www.w3.org/2000/svg">
<rect width="40" height="40" rx="8" fill="#D4E9C9"/>
<path d="M19.9952 13.3362C19.4607 13.3372 18.928 13.4021 18.4075 13.5298C16.0339 14.1098 14.1231 16.0835 13.54 18.5577C12.957 21.032 13.6253 23.5599 15.3311 25.3143C15.8619 25.8626 16.1814 26.7441 16.1814 27.6767V27.8362C16.1817 28.1683 16.2448 28.497 16.367 28.8034C16.4891 29.1098 16.6679 29.3878 16.8931 29.6213V30.8209C16.8938 31.4871 17.1465 32.1257 17.5958 32.5968C18.0451 33.0678 18.6543 33.3328 19.2897 33.3335H20.7132C21.3486 33.3328 21.9578 33.0678 22.4071 32.5968C22.8564 32.1257 23.1091 31.4871 23.1098 30.8209V29.6219C23.3346 29.388 23.5129 29.1099 23.6346 28.8034C23.7563 28.4969 23.819 28.1682 23.8189 27.8362V27.6718C23.8189 26.754 24.1551 25.8527 24.7183 25.2595C25.6498 24.2813 26.2837 23.0355 26.5398 21.6796C26.796 20.3237 26.6628 18.9187 26.1573 17.6421C25.6517 16.3656 24.7964 15.2749 23.6996 14.5079C22.6027 13.741 21.3136 13.3323 19.9952 13.3335V13.3362ZM18.8369 30.3494H21.1608V30.8214C21.1607 30.9466 21.1132 31.0666 21.0288 31.1551C20.9444 31.2436 20.8299 31.2933 20.7106 31.2935H19.2871C19.1678 31.2933 19.0533 31.2436 18.9689 31.1551C18.8845 31.0666 18.837 30.9466 18.8369 30.8214V30.3494ZM21.8699 27.6734V27.8379C21.8698 27.963 21.8223 28.083 21.7379 28.1715C21.6535 28.26 21.539 28.3098 21.4197 28.3099H18.5754C18.456 28.3098 18.3416 28.26 18.2572 28.1715C18.1728 28.083 18.1253 27.963 18.1252 27.8379V27.6778C18.1252 26.1866 17.6022 24.7951 16.6939 23.8604C15.4848 22.6169 15.0121 20.8181 15.4294 19.0484C15.6375 18.1886 16.0661 17.405 16.6688 16.7825C17.2715 16.16 18.0253 15.7224 18.8484 15.5172C19.2229 15.425 19.6063 15.3781 19.991 15.3774C20.9244 15.3763 21.8372 15.6655 22.6139 16.2083C23.3905 16.7511 23.9963 17.5231 24.3545 18.4268C24.7127 19.3304 24.8073 20.3252 24.6263 21.2852C24.4454 22.2452 23.997 23.1275 23.3378 23.8203C22.4075 24.8012 21.8725 26.2052 21.8725 27.6718L21.8699 27.6734Z" fill="#62A047"/>
<ellipse cx="20.0002" cy="18.6667" rx="1.33333" ry="1.33333" transform="rotate(180 20.0002 18.6667)" fill="#62A047"/>
<path fill-rule="evenodd" clip-rule="evenodd" d="M20.0002 21.3335C20.7365 21.3335 21.3335 21.9304 21.3335 22.6668L21.3335 25.3335C21.3335 26.0699 20.7365 26.6668 20.0002 26.6668C19.2638 26.6668 18.6668 26.0699 18.6668 25.3335L18.6668 22.6668C18.6668 21.9304 19.2638 21.3335 20.0002 21.3335Z" fill="#62A047"/>
<path fill-rule="evenodd" clip-rule="evenodd" d="M12 21.3332C12 22.0696 11.403 22.6665 10.6667 22.6665L8 22.6665C7.26362 22.6665 6.66667 22.0696 6.66667 21.3332C6.66667 20.5968 7.26362 19.9998 8 19.9998L10.6667 19.9998C11.403 19.9998 12 20.5968 12 21.3332Z" fill="#62A047"/>
<path fill-rule="evenodd" clip-rule="evenodd" d="M19.9998 12C19.2635 12 18.6665 11.403 18.6665 10.6667L18.6665 8C18.6665 7.26362 19.2635 6.66667 19.9998 6.66667C20.7362 6.66667 21.3332 7.26362 21.3332 8L21.3332 10.6667C21.3332 11.403 20.7362 12 19.9998 12Z" fill="#62A047"/>
<path fill-rule="evenodd" clip-rule="evenodd" d="M13.4951 14.8287C12.9744 15.3494 12.1301 15.3494 11.6094 14.8287L9.72382 12.9431C9.20312 12.4224 9.20312 11.5781 9.72382 11.0574C10.2445 10.5367 11.0887 10.5367 11.6094 11.0574L13.4951 12.9431C14.0158 13.4638 14.0158 14.308 13.4951 14.8287Z" fill="#62A047"/>
<path fill-rule="evenodd" clip-rule="evenodd" d="M25.7241 14.8286C25.2034 14.3079 25.2034 13.4636 25.7241 12.9429L27.6097 11.0573C28.1304 10.5366 28.9746 10.5366 29.4953 11.0573C30.016 11.578 30.016 12.4222 29.4953 12.9429L27.6097 14.8286C27.089 15.3493 26.2448 15.3493 25.7241 14.8286Z" fill="#62A047"/>
<path fill-rule="evenodd" clip-rule="evenodd" d="M33.3335 21.3332C33.3335 22.0696 32.7365 22.6665 32.0002 22.6665L29.3335 22.6665C28.5971 22.6665 28.0002 22.0696 28.0002 21.3332C28.0002 20.5968 28.5971 19.9998 29.3335 19.9998L32.0002 19.9998C32.7365 19.9998 33.3335 20.5968 33.3335 21.3332Z" fill="#62A047"/>
</svg>
