<svg width="24" height="25" viewBox="0 0 24 25" fill="none" xmlns="http://www.w3.org/2000/svg">
<mask id="mask0_160_446" style="mask-type:luminance" maskUnits="userSpaceOnUse" x="0" y="0" width="24" height="25">
<path d="M0 0.517578H24V24.5176H0V0.517578Z" fill="white"/>
</mask>
<g mask="url(#mask0_160_446)">
<path fill-rule="evenodd" clip-rule="evenodd" d="M12 2.51758C12.5304 2.51758 13.0391 2.72829 13.4142 3.10336C13.7893 3.47844 14 3.98715 14 4.51758V19.5176C14 20.048 13.7893 20.5567 13.4142 20.9318C13.0391 21.3069 12.5304 21.5176 12 21.5176C11.4696 21.5176 10.9609 21.3069 10.5858 20.9318C10.2107 20.5567 10 20.048 10 19.5176V4.51758C10 3.98715 10.2107 3.47844 10.5858 3.10336C10.9609 2.72829 11.4696 2.51758 12 2.51758ZM5 8.51758C5.53043 8.51758 6.03914 8.72829 6.41421 9.10336C6.78929 9.47844 7 9.98714 7 10.5176V19.5176C7 20.048 6.78929 20.5567 6.41421 20.9318C6.03914 21.3069 5.53043 21.5176 5 21.5176C4.46957 21.5176 3.96086 21.3069 3.58579 20.9318C3.21071 20.5567 3 20.048 3 19.5176V10.5176C3 9.98714 3.21071 9.47844 3.58579 9.10336C3.96086 8.72829 4.46957 8.51758 5 8.51758ZM21 10.5176C21 9.98714 20.7893 9.47844 20.4142 9.10336C20.0391 8.72829 19.5304 8.51758 19 8.51758C18.4696 8.51758 17.9609 8.72829 17.5858 9.10336C17.2107 9.47844 17 9.98714 17 10.5176V19.5176C17 20.048 17.2107 20.5567 17.5858 20.9318C17.9609 21.3069 18.4696 21.5176 19 21.5176C19.5304 21.5176 20.0391 21.3069 20.4142 20.9318C20.7893 20.5567 21 20.048 21 19.5176V10.5176Z" fill="#62A047"/>
</g>
</svg>
