<svg width="16" height="17" viewBox="0 0 16 17" fill="none" xmlns="http://www.w3.org/2000/svg">
<path fill-rule="evenodd" clip-rule="evenodd" d="M0 8.48242C0 7.93014 0.447715 7.48242 1 7.48242H15C15.5523 7.48242 16 7.93014 16 8.48242C16 9.03471 15.5523 9.48242 15 9.48242H1C0.447715 9.48242 0 9.03471 0 8.48242Z" fill="#1F1F1F"/>
<path fill-rule="evenodd" clip-rule="evenodd" d="M8 0.482422C8.55228 0.482422 9 0.930137 9 1.48242L9 15.4824C9 16.0347 8.55228 16.4824 8 16.4824C7.44771 16.4824 7 16.0347 7 15.4824L7 1.48242C7 0.930137 7.44772 0.482422 8 0.482422Z" fill="#1F1F1F"/>
</svg>
