<svg width="16" height="17" viewBox="0 0 16 17" fill="none" xmlns="http://www.w3.org/2000/svg">
<path fill-rule="evenodd" clip-rule="evenodd" d="M7.99992 13.8157C10.9454 13.8157 13.3333 11.4279 13.3333 8.48234C13.3333 5.53682 10.9454 3.14901 7.99992 3.14901C5.0544 3.14901 2.66659 5.53682 2.66659 8.48234C2.66659 11.4279 5.0544 13.8157 7.99992 13.8157ZM7.99992 15.149C11.6818 15.149 14.6666 12.1642 14.6666 8.48234C14.6666 4.80044 11.6818 1.81567 7.99992 1.81567C4.31802 1.81567 1.33325 4.80044 1.33325 8.48234C1.33325 12.1642 4.31802 15.149 7.99992 15.149Z" fill="#D80028"/>
<path d="M12 8.48242C12 10.6916 10.2091 12.4824 8 12.4824C5.79086 12.4824 4 10.6916 4 8.48242C4 6.27328 5.79086 4.48242 8 4.48242C10.2091 4.48242 12 6.27328 12 8.48242Z" fill="#D80028"/>
</svg>
