<svg width="24" height="25" viewBox="0 0 24 25" fill="none" xmlns="http://www.w3.org/2000/svg">
<path d="M21.5461 3.21521C18.6846 1.00654 13.6923 4.62757 12 5.98733C10.3154 4.62757 5.32307 1.01405 2.46154 3.21521C2.31742 3.32791 2.2011 3.47082 2.1212 3.63338C2.04131 3.79594 1.99988 3.97397 2 4.15428V17.7594C2.00084 17.9196 2.03464 18.0779 2.09939 18.225C2.16415 18.3722 2.25854 18.5051 2.37694 18.6159C2.62289 18.8462 2.95161 18.973 3.29232 18.969C5.67693 18.9164 8.36152 20.6442 9.9769 21.6735C10.2846 21.8688 10.5615 22.0491 10.7923 22.1843C11.1556 22.4022 11.5736 22.5176 12 22.5176C12.4263 22.5176 12.8444 22.4022 13.2077 22.1843C13.4384 22.0491 13.7154 21.8688 14.0308 21.6735C15.6384 20.6442 18.3 18.9089 20.7154 18.969C21.0553 18.9691 21.3826 18.8428 21.6307 18.6159C21.7481 18.5047 21.8413 18.3716 21.9047 18.2244C21.9682 18.0773 22.0006 17.9191 22 17.7594V4.15428C22.0016 3.97449 21.9616 3.79665 21.883 3.63406C21.8044 3.47146 21.6893 3.32829 21.5461 3.21521Z" fill="#F6FAF3"/>
<path d="M21.5461 3.21521C18.6846 1.00654 13.6923 4.62757 12 5.98733C10.3154 4.62757 5.32307 1.01405 2.46154 3.21521C2.31742 3.32791 2.2011 3.47082 2.1212 3.63338C2.04131 3.79594 1.99988 3.97397 2 4.15428V17.7594C2.00084 17.9196 2.03464 18.0779 2.09939 18.225C2.16415 18.3722 2.25854 18.5051 2.37694 18.6159C2.62289 18.8462 2.95161 18.973 3.29232 18.969C5.67693 18.9164 8.36152 20.6442 9.9769 21.6735C10.2846 21.8688 10.5615 22.0491 10.7923 22.1843C11.1556 22.4022 11.5736 22.5176 12 22.5176C12.4263 22.5176 12.8444 22.4022 13.2077 22.1843C13.4384 22.0491 13.7154 21.8688 14.0308 21.6735C15.6384 20.6442 18.3 18.9089 20.7154 18.969C21.0553 18.9691 21.3826 18.8428 21.6307 18.6159C21.7481 18.5047 21.8413 18.3716 21.9047 18.2244C21.9682 18.0773 22.0006 17.9191 22 17.7594V4.15428C22.0016 3.97449 21.9616 3.79665 21.883 3.63406C21.8044 3.47146 21.6893 3.32829 21.5461 3.21521ZM20.4615 17.489C17.7 17.5491 14.8923 19.3521 13.1846 20.4339L12.4154 20.9297C12.2984 20.9957 12.1658 21.0304 12.0308 21.0304C11.8957 21.0304 11.7631 20.9957 11.6461 20.9297L10.8769 20.4339C9.17691 19.3521 6.36923 17.5491 3.60001 17.489V4.30453C5.6077 3.05745 10.1 6.27281 11.5538 7.53491L12.0615 7.97815L12.5769 7.53491C14.0307 6.27281 18.5231 3.0274 20.523 4.30453L20.4615 17.489Z" fill="#62A047"/>
<path d="M17.9 9.0974L16.0769 10.8779C16.0511 10.9022 16.0166 10.9158 15.9808 10.9158C15.9449 10.9158 15.9104 10.9022 15.8846 10.8779L15.8 10.7952C15.7751 10.77 15.7611 10.7363 15.7611 10.7013C15.7611 10.6663 15.7751 10.6326 15.8 10.6074L17.623 8.82695C17.7224 8.72863 17.7824 8.59884 17.7923 8.46105C17.8022 8.32327 17.7612 8.18657 17.6769 8.0757C17.6214 8.01721 17.5542 7.97054 17.4794 7.93863C17.4046 7.90672 17.3239 7.89024 17.2423 7.89024C17.1607 7.89024 17.0799 7.90672 17.0051 7.93863C16.9303 7.97054 16.8631 8.01721 16.8077 8.0757L14.9769 9.86367C14.9646 9.87664 14.9498 9.88701 14.9333 9.89409C14.9167 9.90117 14.8988 9.90483 14.8807 9.90483C14.8627 9.90483 14.8448 9.90117 14.8282 9.89409C14.8117 9.88701 14.7968 9.87664 14.7846 9.86367L14.7 9.78103C14.6751 9.75582 14.6612 9.72215 14.6612 9.68712C14.6612 9.65209 14.6751 9.61842 14.7 9.59321L16.5384 7.80524C16.5933 7.75216 16.6369 7.68897 16.6666 7.61933C16.6964 7.5497 16.7117 7.47501 16.7117 7.39956C16.7117 7.32412 16.6964 7.24942 16.6666 7.17979C16.6369 7.11016 16.5933 7.04698 16.5384 6.99389C16.4854 6.94088 16.422 6.8989 16.3519 6.87049C16.2818 6.84208 16.2066 6.82784 16.1307 6.82862C15.9735 6.8303 15.8227 6.88924 15.7077 6.99389L13.3 9.34531C13.078 9.56538 12.9048 9.82764 12.791 10.1158C12.6772 10.404 12.6253 10.712 12.6385 11.0206C12.6538 11.3238 12.6028 11.6268 12.4887 11.9092C12.3746 12.1916 12.2001 12.447 11.9769 12.6583C11.7687 12.4651 11.6038 12.2319 11.4925 11.9732C11.3813 11.7146 11.3262 11.4363 11.3308 11.1558C11.294 10.2121 10.8764 9.32085 10.1692 8.6767C8.93075 7.46718 7.21537 7.17419 6.32306 8.03813C5.43076 8.90207 5.73845 10.5774 6.97691 11.7944C7.63924 12.4803 8.55075 12.8849 9.51538 12.9213C10.0641 12.9281 10.5884 13.1438 10.9769 13.5223L8.07693 16.054C7.97744 16.138 7.89682 16.2413 7.84016 16.3573C7.7835 16.4732 7.75203 16.5994 7.74769 16.7278C7.74336 16.8562 7.76626 16.9841 7.81497 17.1034C7.86369 17.2228 7.93715 17.331 8.03075 17.4213C8.12083 17.5105 8.22883 17.5806 8.34797 17.6271C8.46711 17.6737 8.59483 17.6957 8.72308 17.6917C8.97213 17.6863 9.20929 17.5866 9.3846 17.4137L9.43076 17.3762L11.9769 14.589L14.5307 17.3762C14.6206 17.473 14.7297 17.5508 14.8513 17.6051C14.973 17.6593 15.1047 17.6888 15.2384 17.6917C15.3667 17.6957 15.4944 17.6737 15.6135 17.6271C15.7327 17.5806 15.8407 17.5105 15.9308 17.4213C16.1089 17.2392 16.2081 16.9969 16.2077 16.7451C16.2051 16.6137 16.1744 16.4843 16.1174 16.3653C16.0604 16.2462 15.9785 16.1402 15.8769 16.054L12.9846 13.5223C13.2057 13.3209 13.4661 13.1652 13.7503 13.0646C14.0345 12.9639 14.3366 12.9202 14.6385 12.9363C14.9407 12.9475 15.2421 12.898 15.524 12.7907C15.8058 12.6834 16.0621 12.5208 16.2769 12.3128L18.7231 9.92377C18.7815 9.86713 18.8268 9.79894 18.8559 9.72379C18.8851 9.64864 18.8975 9.56825 18.8923 9.48804C18.8894 9.37504 18.8518 9.2655 18.7843 9.17365C18.7169 9.0818 18.6227 9.0119 18.514 8.97301C18.4053 8.93412 18.2872 8.92804 18.175 8.95559C18.0627 8.98313 17.9615 9.04301 17.8846 9.12744L17.9 9.0974Z" fill="#62A047"/>
<path d="M7 9.01758C7 10.0176 7.5 10.5176 7.99999 11.0176" stroke="white" stroke-linecap="round"/>
</svg>
