<svg width="40" height="40" viewBox="0 0 40 40" fill="none" xmlns="http://www.w3.org/2000/svg">
<rect width="40" height="40" rx="20" fill="#F6FAF3"/>
<path fill-rule="evenodd" clip-rule="evenodd" d="M18.5 10C13.8056 10 10 13.8056 10 18.5C10 23.1944 13.8056 27 18.5 27C20.4872 27 22.3152 26.3181 23.7626 25.1754C23.7724 25.1862 23.7825 25.1967 23.7929 25.2071L28.2929 29.7071C28.6834 30.0976 29.3166 30.0976 29.7071 29.7071C30.0976 29.3166 30.0976 28.6834 29.7071 28.2929L25.2071 23.7929C25.1967 23.7825 25.1862 23.7724 25.1754 23.7626C26.3181 22.3152 27 20.4872 27 18.5C27 13.8056 23.1944 10 18.5 10ZM12 18.5C12 14.9101 14.9101 12 18.5 12C22.0899 12 25 14.9101 25 18.5C25 22.0899 22.0899 25 18.5 25C14.9101 25 12 22.0899 12 18.5Z" fill="#62A047"/>
</svg>
