<svg width="40" height="40" viewBox="0 0 40 40" fill="none" xmlns="http://www.w3.org/2000/svg">
<rect width="40" height="40" rx="20" fill="#FFF0F3"/>
<path fill-rule="evenodd" clip-rule="evenodd" d="M20 11.8947C17.3701 11.8947 15.2381 14.0155 15.2381 16.6316C15.2381 19.2477 17.3701 21.3684 20 21.3684C22.6299 21.3684 24.7619 19.2477 24.7619 16.6316C24.7619 14.0155 22.6299 11.8947 20 11.8947ZM13.3333 16.6316C13.3333 12.9691 16.3181 10 20 10C23.6819 10 26.6667 12.9691 26.6667 16.6316C26.6667 20.2941 23.6819 23.2632 20 23.2632C16.3181 23.2632 13.3333 20.2941 13.3333 16.6316Z" fill="#D80028"/>
<path fill-rule="evenodd" clip-rule="evenodd" d="M25.0335 26.008C23.5818 24.9447 21.814 24.3652 19.99 24.3684C18.1659 24.3715 16.4003 24.9572 14.9525 26.0253C13.5059 27.0927 12.4605 28.5786 11.9471 30.2498C11.7696 30.8278 11.2017 31.1373 10.6788 30.941C10.1558 30.7448 9.87581 30.1171 10.0534 29.5391C10.7175 27.3772 12.0534 25.5066 13.8422 24.1869C15.6298 22.8679 17.7834 22.1617 19.9868 22.1579C22.1903 22.1541 24.3461 22.8528 26.1382 24.1654C27.9314 25.4787 29.2738 27.3445 29.9454 29.5039C30.125 30.0812 29.8471 30.71 29.3248 30.9084C28.8026 31.1068 28.2336 30.7998 28.0541 30.2225C27.5348 28.5529 26.4841 27.0704 25.0335 26.008Z" fill="#D80028"/>
</svg>
