<svg width="40" height="41" viewBox="0 0 40 41" fill="none" xmlns="http://www.w3.org/2000/svg">
<rect y="0.482422" width="40" height="40" rx="20" fill="#F6FAF3"/>
<path d="M8 20.4824C8 27.1098 13.3726 32.4824 20 32.4824C26.6274 32.4824 32 27.1098 32 20.4824C32 13.855 26.6274 8.48242 20 8.48242C13.3726 8.48242 8 13.855 8 20.4824Z" fill="#FF0000"/>
<path d="M25.7 17.5575C25.55 17.0325 25.175 16.6575 24.65 16.5075C23.75 16.2825 19.925 16.2825 19.925 16.2825C19.925 16.2825 16.175 16.2825 15.2 16.5075C14.675 16.6575 14.3 17.0325 14.15 17.5575C14 18.5325 14 20.4825 14 20.4825C14 20.4825 14 22.4325 14.225 23.4075C14.375 23.9325 14.75 24.3075 15.275 24.4575C16.175 24.6825 20 24.6825 20 24.6825C20 24.6825 23.75 24.6825 24.725 24.4575C25.25 24.3075 25.625 23.9325 25.775 23.4075C26 22.4325 26 20.4825 26 20.4825C26 20.4825 26 18.5325 25.7 17.5575ZM18.8 22.2825V18.6825L21.95 20.4825L18.8 22.2825Z" fill="white"/>
</svg>
