<svg width="279" height="160" viewBox="0 0 279 160" fill="none" xmlns="http://www.w3.org/2000/svg">
<rect width="279" height="160" rx="16" fill="#F6FAF3"/>
<path fill-rule="evenodd" clip-rule="evenodd" d="M119.521 65.0021C119.521 65.002 119.523 65.0015 119.527 65.001L119.521 65.0021ZM120 65H160V95H120V65ZM119.521 94.9979C119.521 94.9978 119.523 94.998 119.527 94.999L119.521 94.9979ZM160.479 94.9979C160.479 94.998 160.477 94.9985 160.473 94.999L160.479 94.9979ZM160.479 65.0021C160.479 65.0022 160.477 65.002 160.473 65.001L160.479 65.0021ZM115 64.0909C115 61.2833 117.656 60 119.545 60H160.455C162.344 60 165 61.2833 165 64.0909V95.9091C165 98.7167 162.344 100 160.455 100H119.545C117.656 100 115 98.7167 115 95.9091V64.0909Z" fill="#62A047"/>
<circle cx="126.25" cy="71.25" r="3.75" fill="#62A047"/>
<path d="M157.005 78.7739L148.645 69.22C147.848 68.3094 146.432 68.3094 145.635 69.22L135.977 80.2567C135.18 81.1673 133.764 81.1673 132.967 80.2568L132.062 79.2222C131.265 78.3116 129.848 78.3116 129.051 79.2222L122.995 86.1437C122.676 86.5083 122.5 86.9763 122.5 87.4607V90.5C122.5 91.6046 123.395 92.5 124.5 92.5H155.5C156.605 92.5 157.5 91.6046 157.5 90.5V80.091C157.5 79.6065 157.324 79.1385 157.005 78.7739Z" fill="#62A047"/>
</svg>
