<svg width="24" height="24" viewBox="0 0 24 24" fill="none" xmlns="http://www.w3.org/2000/svg">
<path fill-rule="evenodd" clip-rule="evenodd" d="M6.00196 4.02746C6.00092 4.02989 6 4.03291 6 4.03846V19.9615C6 19.9671 6.00092 19.9701 6.00196 19.9725C6.0033 19.9757 6.00597 19.9801 6.01073 19.9848C6.01549 19.9896 6.02119 19.9933 6.0272 19.9959C6.03259 19.9981 6.03967 20 6.05 20H17.95C17.9603 20 17.9674 19.9981 17.9728 19.9959C17.9788 19.9933 17.9845 19.9896 17.9893 19.9848C17.994 19.9801 17.9967 19.9757 17.998 19.9725C17.9991 19.9701 18 19.9671 18 19.9615V11.6538C18 10.4959 17.0479 9.53846 15.85 9.53846H14.45C13.3283 9.53846 12.4 8.6362 12.4 7.5V6.11538C12.4 4.95748 11.4479 4 10.25 4H6.05C6.03967 4 6.03259 4.00189 6.0272 4.00414C6.02119 4.00666 6.01549 4.01045 6.01073 4.01516C6.00597 4.01987 6.0033 4.02433 6.00196 4.02746ZM6.05 2C4.92826 2 4 2.90226 4 4.03846V19.9615C4 21.0977 4.92826 22 6.05 22H17.95C19.0717 22 20 21.0977 20 19.9615V11.3077C20 6.15681 15.781 2 10.6 2H6.05ZM14.2275 4.93637C14.3397 5.30947 14.4 5.70515 14.4 6.11538V7.5C14.4 7.50556 14.4009 7.50858 14.402 7.511C14.4033 7.51413 14.406 7.51859 14.4107 7.5233C14.4155 7.52801 14.4212 7.5318 14.4272 7.53432C14.4326 7.53657 14.4397 7.53846 14.45 7.53846H15.85C16.2641 7.53846 16.6647 7.59883 17.0429 7.71131C16.3786 6.55305 15.4032 5.59067 14.2275 4.93637ZM7.5 14.7692C7.5 14.2169 7.94772 13.7692 8.5 13.7692H15.5C16.0523 13.7692 16.5 14.2169 16.5 14.7692C16.5 15.3215 16.0523 15.7692 15.5 15.7692H8.5C7.94772 15.7692 7.5 15.3215 7.5 14.7692ZM7.5 17.5385C7.5 16.9862 7.94772 16.5385 8.5 16.5385H12C12.5523 16.5385 13 16.9862 13 17.5385C13 18.0907 12.5523 18.5385 12 18.5385H8.5C7.94772 18.5385 7.5 18.0907 7.5 17.5385Z" fill="#62A047"/>
</svg>
