<svg width="21" height="20" viewBox="0 0 21 20" fill="none" xmlns="http://www.w3.org/2000/svg">
<path d="M20.1711 0.697637C17.3096 -1.51104 12.3173 2.10999 10.625 3.46976C8.94037 2.10999 3.94807 -1.50353 1.08654 0.697637C0.942418 0.810332 0.826096 0.953247 0.746202 1.1158C0.666308 1.27836 0.624885 1.45639 0.625 1.6367V15.2419C0.625836 15.402 0.659642 15.5603 0.724393 15.7075C0.789145 15.8546 0.883537 15.9875 1.00194 16.0983C1.24789 16.3286 1.57661 16.4554 1.91732 16.4514C4.30193 16.3988 6.98652 18.1267 8.6019 19.1559C8.90959 19.3512 9.18654 19.5315 9.4173 19.6667C9.78062 19.8846 10.1986 20 10.625 20C11.0513 20 11.4694 19.8846 11.8327 19.6667C12.0634 19.5315 12.3404 19.3512 12.6558 19.1559C14.2634 18.1267 16.925 16.3913 19.3404 16.4514C19.6803 16.4515 20.0076 16.3252 20.2557 16.0983C20.3731 15.9871 20.4663 15.854 20.5297 15.7068C20.5932 15.5597 20.6256 15.4015 20.625 15.2419V1.6367C20.6266 1.45691 20.5866 1.27908 20.508 1.11648C20.4294 0.953881 20.3143 0.810712 20.1711 0.697637ZM19.0865 14.9714C16.325 15.0315 13.5173 16.8345 11.8096 17.9163L11.0404 18.4121C10.9234 18.4781 10.7908 18.5128 10.6558 18.5128C10.5207 18.5128 10.3881 18.4781 10.2711 18.4121L9.50191 17.9163C7.80191 16.8345 4.99423 15.0315 2.22501 14.9714V1.78695C4.2327 0.539872 8.72499 3.75523 10.1788 5.01733L10.6865 5.46057L11.2019 5.01733C12.6557 3.75523 17.1481 0.509822 19.148 1.78695L19.0865 14.9714Z" fill="#D80028"/>
<path d="M16.525 6.57982L14.7019 8.36028C14.6761 8.38461 14.6416 8.3982 14.6058 8.3982C14.5699 8.3982 14.5354 8.38461 14.5096 8.36028L14.425 8.27764C14.4001 8.25244 14.3861 8.21877 14.3861 8.18374C14.3861 8.1487 14.4001 8.11504 14.425 8.08983L16.248 6.30937C16.3474 6.21105 16.4074 6.08126 16.4173 5.94348C16.4272 5.80569 16.3862 5.66899 16.3019 5.55812C16.2464 5.49963 16.1792 5.45297 16.1044 5.42105C16.0296 5.38914 15.9489 5.37267 15.8673 5.37267C15.7857 5.37267 15.7049 5.38914 15.6301 5.42105C15.5553 5.45297 15.4881 5.49963 15.4327 5.55812L13.6019 7.34609C13.5896 7.35906 13.5748 7.36943 13.5583 7.37651C13.5417 7.38359 13.5238 7.38725 13.5057 7.38725C13.4877 7.38725 13.4698 7.38359 13.4532 7.37651C13.4367 7.36943 13.4218 7.35906 13.4096 7.34609L13.325 7.26345C13.3001 7.23824 13.2862 7.20458 13.2862 7.16954C13.2862 7.13451 13.3001 7.10084 13.325 7.07564L15.1634 5.28767C15.2183 5.23458 15.2619 5.17139 15.2916 5.10176C15.3214 5.03213 15.3367 4.95743 15.3367 4.88198C15.3367 4.80654 15.3214 4.73184 15.2916 4.66221C15.2619 4.59258 15.2183 4.5294 15.1634 4.47631C15.1104 4.4233 15.047 4.38132 14.9769 4.35291C14.9068 4.32451 14.8316 4.31026 14.7557 4.31104C14.5985 4.31272 14.4477 4.37166 14.3327 4.47631L11.925 6.82773C11.703 7.0478 11.5298 7.31006 11.416 7.59826C11.3022 7.88645 11.2503 8.19441 11.2635 8.50302C11.2788 8.80626 11.2278 9.10921 11.1137 9.39164C10.9996 9.67406 10.8251 9.92945 10.6019 10.1407C10.3937 9.94755 10.2288 9.71427 10.1175 9.45566C10.0063 9.19704 9.95123 8.9187 9.95575 8.63824C9.91898 7.69449 9.50141 6.80327 8.79421 6.15912C7.55575 4.94961 5.84037 4.65661 4.94806 5.52055C4.05576 6.38449 4.36345 8.05978 5.60191 9.27681C6.26424 9.96269 7.17575 10.3673 8.14038 10.4037C8.6891 10.4106 9.21342 10.6262 9.60191 11.0047L6.70193 13.5364C6.60244 13.6205 6.52182 13.7237 6.46516 13.8397C6.4085 13.9556 6.37703 14.0818 6.37269 14.2102C6.36836 14.3386 6.39126 14.4665 6.43997 14.5858C6.48869 14.7052 6.56215 14.8134 6.65575 14.9037C6.74583 14.9929 6.85383 15.063 6.97297 15.1096C7.09211 15.1561 7.21983 15.1781 7.34808 15.1741C7.59713 15.1687 7.83429 15.069 8.0096 14.8962L8.05576 14.8586L10.6019 12.0715L13.1557 14.8586C13.2456 14.9554 13.3547 15.0333 13.4763 15.0875C13.598 15.1418 13.7297 15.1712 13.8634 15.1741C13.9917 15.1781 14.1194 15.1561 14.2385 15.1096C14.3577 15.063 14.4657 14.9929 14.5558 14.9037C14.7339 14.7216 14.8331 14.4794 14.8327 14.2276C14.8301 14.0962 14.7994 13.9668 14.7424 13.8477C14.6854 13.7286 14.6035 13.6226 14.5019 13.5364L11.6096 11.0047C11.8307 10.8033 12.0911 10.6477 12.3753 10.547C12.6595 10.4463 12.9616 10.4027 13.2635 10.4187C13.5657 10.43 13.8671 10.3804 14.149 10.2731C14.4308 10.1659 14.6871 10.0032 14.9019 9.79517L17.3481 7.40619C17.4065 7.34955 17.4518 7.28137 17.4809 7.20621C17.5101 7.13106 17.5225 7.05068 17.5173 6.97046C17.5144 6.85746 17.4768 6.74792 17.4093 6.65607C17.3419 6.56422 17.2477 6.49432 17.139 6.45543C17.0303 6.41654 16.9122 6.41047 16.8 6.43801C16.6877 6.46555 16.5865 6.52543 16.5096 6.60986L16.525 6.57982Z" fill="#D80028"/>
</svg>
