<svg width="21" height="16" viewBox="0 0 21 16" fill="none" xmlns="http://www.w3.org/2000/svg">
<path fill-rule="evenodd" clip-rule="evenodd" d="M0.125 8C0.125 7.26362 0.684644 6.66667 1.375 6.66667H18.875C19.5654 6.66667 20.125 7.26362 20.125 8C20.125 8.73638 19.5654 9.33333 18.875 9.33333H1.375C0.684644 9.33333 0.125 8.73638 0.125 8Z" fill="#D80028"/>
<path fill-rule="evenodd" clip-rule="evenodd" d="M0.125 1.33333C0.125 0.596954 0.684644 0 1.375 0H18.875C19.5654 0 20.125 0.596954 20.125 1.33333C20.125 2.06971 19.5654 2.66667 18.875 2.66667H1.375C0.684644 2.66667 0.125 2.06971 0.125 1.33333Z" fill="#D80028"/>
<path fill-rule="evenodd" clip-rule="evenodd" d="M0.125 14.6667C0.125 13.9303 0.684644 13.3333 1.375 13.3333H18.875C19.5654 13.3333 20.125 13.9303 20.125 14.6667C20.125 15.403 19.5654 16 18.875 16H1.375C0.684644 16 0.125 15.403 0.125 14.6667Z" fill="#D80028"/>
</svg>
