<svg width="40" height="40" viewBox="0 0 40 40" fill="none" xmlns="http://www.w3.org/2000/svg">
<path d="M35.9101 4.4961C31.1409 0.814971 22.8204 6.85003 19.9999 9.1163C17.1922 6.85003 8.87171 0.827491 4.10249 4.4961C3.86228 4.68393 3.66841 4.92212 3.53525 5.19304C3.4021 5.46397 3.33306 5.76069 3.33325 6.06121V28.7365C3.33465 29.0034 3.39099 29.2673 3.49891 29.5125C3.60683 29.7577 3.76415 29.9792 3.96148 30.1639C4.37141 30.5477 4.91926 30.759 5.48712 30.7523C9.46147 30.6647 13.9358 33.5445 16.6281 35.2598C17.1409 35.5854 17.6025 35.8859 17.9871 36.1113C18.5926 36.4744 19.2893 36.6667 19.9999 36.6667C20.7105 36.6667 21.4072 36.4744 22.0127 36.1113C22.3973 35.8859 22.8589 35.5854 23.3845 35.2598C26.064 33.5445 30.4999 30.6522 34.5255 30.7523C35.0921 30.7525 35.6376 30.5421 36.0512 30.1639C36.2468 29.9786 36.402 29.7567 36.5078 29.5114C36.6135 29.2662 36.6675 29.0026 36.6665 28.7365V6.06121C36.6692 5.76155 36.6026 5.46517 36.4716 5.19417C36.3406 4.92318 36.1487 4.68456 35.9101 4.4961Z" fill="#FFC035"/>
<path d="M35.9101 4.4961C31.1409 0.814971 22.8204 6.85003 19.9999 9.1163C17.1922 6.85003 8.87171 0.827491 4.10249 4.4961C3.86228 4.68393 3.66841 4.92212 3.53525 5.19304C3.4021 5.46397 3.33306 5.76069 3.33325 6.06121V28.7365C3.33465 29.0034 3.39099 29.2673 3.49891 29.5125C3.60683 29.7577 3.76415 29.9792 3.96148 30.1639C4.37141 30.5477 4.91926 30.759 5.48712 30.7523C9.46147 30.6647 13.9358 33.5445 16.6281 35.2598C17.1409 35.5854 17.6025 35.8859 17.9871 36.1113C18.5926 36.4744 19.2893 36.6667 19.9999 36.6667C20.7105 36.6667 21.4072 36.4744 22.0127 36.1113C22.3973 35.8859 22.8589 35.5854 23.3845 35.2598C26.064 33.5445 30.4999 30.6522 34.5255 30.7523C35.0921 30.7525 35.6376 30.5421 36.0512 30.1639C36.2468 29.9786 36.402 29.7567 36.5078 29.5114C36.6135 29.2662 36.6675 29.0026 36.6665 28.7365V6.06121C36.6692 5.76155 36.6026 5.46517 36.4716 5.19417C36.3406 4.92318 36.1487 4.68456 35.9101 4.4961ZM34.1024 28.2857C29.4999 28.3859 24.8204 31.3909 21.9742 33.1939L20.6922 34.0203C20.4973 34.1302 20.2762 34.188 20.0512 34.188C19.8261 34.188 19.605 34.1302 19.4101 34.0203L18.1281 33.1939C15.2948 31.3909 10.6153 28.3859 5.99993 28.2857V6.31162C9.34608 4.23316 16.8332 9.59209 19.2563 11.6956L20.1025 12.4343L20.9614 11.6956C23.3845 9.59209 30.8717 4.18308 34.205 6.31162L34.1024 28.2857Z" fill="#D80028"/>
<path d="M29.8332 14.2997L26.7948 17.2672C26.7517 17.3077 26.6943 17.3304 26.6345 17.3304C26.5747 17.3304 26.5173 17.3077 26.4742 17.2672L26.3332 17.1294C26.2917 17.0874 26.2685 17.0313 26.2685 16.9729C26.2685 16.9145 26.2917 16.8584 26.3332 16.8164L29.3717 13.849C29.5372 13.6851 29.6373 13.4688 29.6537 13.2392C29.6702 13.0095 29.602 12.7817 29.4614 12.5969C29.369 12.4994 29.2569 12.4217 29.1323 12.3685C29.0076 12.3153 28.8731 12.2878 28.737 12.2878C28.601 12.2878 28.4665 12.3153 28.3418 12.3685C28.2172 12.4217 28.1051 12.4994 28.0127 12.5969L24.9614 15.5769C24.941 15.5985 24.9163 15.6158 24.8887 15.6276C24.8611 15.6394 24.8313 15.6455 24.8011 15.6455C24.771 15.6455 24.7412 15.6394 24.7137 15.6276C24.6861 15.6158 24.6613 15.5985 24.6409 15.5769L24.4999 15.4391C24.4584 15.3971 24.4352 15.341 24.4352 15.2826C24.4352 15.2242 24.4584 15.1681 24.4999 15.1261L27.564 12.1462C27.6555 12.0577 27.7281 11.9524 27.7776 11.8363C27.8272 11.7203 27.8527 11.5958 27.8527 11.47C27.8527 11.3443 27.8272 11.2198 27.7776 11.1037C27.7281 10.9877 27.6555 10.8824 27.564 10.7939C27.4757 10.7055 27.3699 10.6356 27.2531 10.5882C27.1363 10.5409 27.0109 10.5171 26.8845 10.5184C26.6225 10.5212 26.3711 10.6195 26.1794 10.7939L22.1665 14.7129C21.7967 15.0797 21.5079 15.5168 21.3183 15.9971C21.1286 16.4775 21.0421 16.9907 21.064 17.5051C21.0897 18.0105 21.0046 18.5154 20.8144 18.9861C20.6243 19.4568 20.3335 19.8825 19.9614 20.2346C19.6144 19.9126 19.3395 19.5238 19.1542 19.0928C18.9688 18.6618 18.877 18.1979 18.8845 17.7304C18.8232 16.1575 18.1273 14.6722 16.9486 13.5986C14.8845 11.5827 12.0255 11.0944 10.5384 12.5343C9.05118 13.9742 9.56401 16.7663 11.6281 18.7947C12.732 19.9379 14.2512 20.6122 15.8589 20.6729C16.7734 20.6843 17.6473 21.0437 18.2948 21.6745L13.4615 25.894C13.2957 26.0342 13.1613 26.2062 13.0669 26.3995C12.9724 26.5928 12.92 26.803 12.9127 27.017C12.9055 27.231 12.9437 27.4442 13.0249 27.6431C13.1061 27.842 13.2285 28.0224 13.3845 28.1729C13.5346 28.3216 13.7146 28.4384 13.9132 28.516C14.1118 28.5935 14.3246 28.6302 14.5384 28.6236C14.9535 28.6145 15.3487 28.4484 15.6409 28.1603L15.7178 28.0977L19.9614 23.4525L24.2178 28.0977C24.3676 28.259 24.5493 28.3888 24.7521 28.4792C24.9549 28.5697 25.1745 28.6188 25.3973 28.6236C25.6111 28.6302 25.8239 28.5935 26.0225 28.516C26.221 28.4384 26.401 28.3216 26.5512 28.1729C26.848 27.8694 27.0134 27.4657 27.0127 27.046C27.0084 26.827 26.9572 26.6113 26.8623 26.4129C26.7673 26.2144 26.6307 26.0377 26.4614 25.894L21.6409 21.6745C22.0094 21.339 22.4435 21.0795 22.9171 20.9117C23.3908 20.7439 23.8942 20.6712 24.3973 20.6979C24.9011 20.7166 25.4035 20.634 25.8732 20.4553C26.343 20.2765 26.7701 20.0054 27.1281 19.6587L31.205 15.677C31.3023 15.5826 31.3778 15.469 31.4265 15.3437C31.4751 15.2185 31.4958 15.0845 31.4871 14.9508C31.4823 14.7625 31.4196 14.5799 31.3071 14.4268C31.1947 14.2737 31.0377 14.1572 30.8566 14.0924C30.6755 14.0276 30.4786 14.0175 30.2915 14.0634C30.1044 14.1093 29.9358 14.2091 29.8076 14.3498L29.8332 14.2997Z" fill="#D80028"/>
<path d="M11.6667 14.1666C11.6667 15.8333 12.5001 16.6666 13.3334 17.5" stroke="white" stroke-linecap="round"/>
</svg>
