<svg width="60" height="64" viewBox="0 0 60 64" fill="none" xmlns="http://www.w3.org/2000/svg">
<path d="M0 32C0 14.3269 14.3269 0 32 0H60V64H32C14.3269 64 0 49.6731 0 32V32Z" fill="#F6FAF3"/>
<g clip-path="url(#clip0_160_2175)">
<mask id="mask0_160_2175" style="mask-type:luminance" maskUnits="userSpaceOnUse" x="18" y="16" width="24" height="24">
<path d="M18 16H42V40H18V16Z" fill="white"/>
</mask>
<g mask="url(#mask0_160_2175)">
<path fill-rule="evenodd" clip-rule="evenodd" d="M30 18C30.5304 18 31.0391 18.2107 31.4142 18.5858C31.7893 18.9609 32 19.4696 32 20V35C32 35.5304 31.7893 36.0391 31.4142 36.4142C31.0391 36.7893 30.5304 37 30 37C29.4696 37 28.9609 36.7893 28.5858 36.4142C28.2107 36.0391 28 35.5304 28 35V20C28 19.4696 28.2107 18.9609 28.5858 18.5858C28.9609 18.2107 29.4696 18 30 18ZM23 24C23.5304 24 24.0391 24.2107 24.4142 24.5858C24.7893 24.9609 25 25.4696 25 26V35C25 35.5304 24.7893 36.0391 24.4142 36.4142C24.0391 36.7893 23.5304 37 23 37C22.4696 37 21.9609 36.7893 21.5858 36.4142C21.2107 36.0391 21 35.5304 21 35V26C21 25.4696 21.2107 24.9609 21.5858 24.5858C21.9609 24.2107 22.4696 24 23 24ZM39 26C39 25.4696 38.7893 24.9609 38.4142 24.5858C38.0391 24.2107 37.5304 24 37 24C36.4696 24 35.9609 24.2107 35.5858 24.5858C35.2107 24.9609 35 25.4696 35 26V35C35 35.5304 35.2107 36.0391 35.5858 36.4142C35.9609 36.7893 36.4696 37 37 37C37.5304 37 38.0391 36.7893 38.4142 36.4142C38.7893 36.0391 39 35.5304 39 35V26Z" fill="#62A047"/>
</g>
</g>
<path d="M20.9443 43.144C20.9443 43.4427 20.8723 43.7227 20.7283 43.984C20.5896 44.2453 20.3683 44.456 20.0643 44.616C19.7656 44.776 19.387 44.856 18.9283 44.856H17.9923V47H16.8723V41.416H18.9283C19.3603 41.416 19.7283 41.4907 20.0323 41.64C20.3363 41.7893 20.563 41.9947 20.7123 42.256C20.867 42.5173 20.9443 42.8133 20.9443 43.144ZM18.8803 43.952C19.1896 43.952 19.419 43.8827 19.5683 43.744C19.7176 43.6 19.7923 43.4 19.7923 43.144C19.7923 42.6 19.4883 42.328 18.8803 42.328H17.9923V43.952H18.8803ZM23.7075 47.072C23.2808 47.072 22.8968 46.9787 22.5555 46.792C22.2142 46.6 21.9448 46.3307 21.7475 45.984C21.5555 45.6373 21.4595 45.2373 21.4595 44.784C21.4595 44.3307 21.5582 43.9307 21.7555 43.584C21.9582 43.2373 22.2328 42.9707 22.5795 42.784C22.9262 42.592 23.3128 42.496 23.7395 42.496C24.1662 42.496 24.5528 42.592 24.8995 42.784C25.2462 42.9707 25.5182 43.2373 25.7155 43.584C25.9182 43.9307 26.0195 44.3307 26.0195 44.784C26.0195 45.2373 25.9155 45.6373 25.7075 45.984C25.5048 46.3307 25.2275 46.6 24.8755 46.792C24.5288 46.9787 24.1395 47.072 23.7075 47.072ZM23.7075 46.096C23.9102 46.096 24.0995 46.048 24.2755 45.952C24.4568 45.8507 24.6008 45.7013 24.7075 45.504C24.8142 45.3067 24.8675 45.0667 24.8675 44.784C24.8675 44.3627 24.7555 44.04 24.5315 43.816C24.3128 43.5867 24.0435 43.472 23.7235 43.472C23.4035 43.472 23.1342 43.5867 22.9155 43.816C22.7022 44.04 22.5955 44.3627 22.5955 44.784C22.5955 45.2053 22.6995 45.5307 22.9075 45.76C23.1208 45.984 23.3875 46.096 23.7075 46.096ZM27.9611 41.08V47H26.8411V41.08H27.9611ZM30.1876 41.08V47H29.0676V41.08H30.1876ZM31.8622 42.04C31.6649 42.04 31.4995 41.9787 31.3662 41.856C31.2382 41.728 31.1742 41.5707 31.1742 41.384C31.1742 41.1973 31.2382 41.0427 31.3662 40.92C31.4995 40.792 31.6649 40.728 31.8622 40.728C32.0595 40.728 32.2222 40.792 32.3502 40.92C32.4835 41.0427 32.5502 41.1973 32.5502 41.384C32.5502 41.5707 32.4835 41.728 32.3502 41.856C32.2222 41.9787 32.0595 42.04 31.8622 42.04ZM32.4142 42.568V47H31.2942V42.568H32.4142ZM35.9768 42.504C36.5048 42.504 36.9314 42.672 37.2568 43.008C37.5821 43.3387 37.7448 43.8027 37.7448 44.4V47H36.6248V44.552C36.6248 44.2 36.5368 43.9307 36.3608 43.744C36.1848 43.552 35.9448 43.456 35.6408 43.456C35.3314 43.456 35.0861 43.552 34.9048 43.744C34.7288 43.9307 34.6408 44.2 34.6408 44.552V47H33.5208V42.568H34.6408V43.12C34.7901 42.928 34.9794 42.7787 35.2088 42.672C35.4434 42.56 35.6994 42.504 35.9768 42.504ZM40.5458 42.496C40.8765 42.496 41.1671 42.5627 41.4178 42.696C41.6685 42.824 41.8658 42.992 42.0098 43.2V42.568H43.1378V47.032C43.1378 47.4427 43.0551 47.808 42.8898 48.128C42.7245 48.4533 42.4765 48.7093 42.1458 48.896C41.8151 49.088 41.4151 49.184 40.9458 49.184C40.3165 49.184 39.7991 49.0373 39.3938 48.744C38.9938 48.4507 38.7671 48.0507 38.7138 47.544H39.8258C39.8845 47.7467 40.0098 47.9067 40.2018 48.024C40.3991 48.1467 40.6365 48.208 40.9138 48.208C41.2391 48.208 41.5031 48.1093 41.7058 47.912C41.9085 47.72 42.0098 47.4267 42.0098 47.032V46.344C41.8658 46.552 41.6658 46.7253 41.4098 46.864C41.1591 47.0027 40.8711 47.072 40.5458 47.072C40.1725 47.072 39.8311 46.976 39.5218 46.784C39.2125 46.592 38.9671 46.3227 38.7858 45.976C38.6098 45.624 38.5218 45.2213 38.5218 44.768C38.5218 44.32 38.6098 43.9227 38.7858 43.576C38.9671 43.2293 39.2098 42.9627 39.5138 42.776C39.8231 42.5893 40.1671 42.496 40.5458 42.496ZM42.0098 44.784C42.0098 44.512 41.9565 44.28 41.8498 44.088C41.7431 43.8907 41.5991 43.7413 41.4178 43.64C41.2365 43.5333 41.0418 43.48 40.8338 43.48C40.6258 43.48 40.4338 43.5307 40.2578 43.632C40.0818 43.7333 39.9378 43.8827 39.8258 44.08C39.7191 44.272 39.6658 44.5013 39.6658 44.768C39.6658 45.0347 39.7191 45.2693 39.8258 45.472C39.9378 45.6693 40.0818 45.8213 40.2578 45.928C40.4391 46.0347 40.6311 46.088 40.8338 46.088C41.0418 46.088 41.2365 46.0373 41.4178 45.936C41.5991 45.8293 41.7431 45.68 41.8498 45.488C41.9565 45.2907 42.0098 45.056 42.0098 44.784Z" fill="#414141"/>
<defs>
<clipPath id="clip0_160_2175">
<rect width="24" height="24" fill="white" transform="translate(18 16)"/>
</clipPath>
</defs>
</svg>
