<svg width="20" height="21" viewBox="0 0 20 21" fill="none" xmlns="http://www.w3.org/2000/svg">
<path fill-rule="evenodd" clip-rule="evenodd" d="M10 1.89474C7.37007 1.89474 5.2381 4.01549 5.2381 6.63158C5.2381 9.24766 7.37007 11.3684 10 11.3684C12.6299 11.3684 14.7619 9.24766 14.7619 6.63158C14.7619 4.01549 12.6299 1.89474 10 1.89474ZM3.33333 6.63158C3.33333 2.96906 6.3181 0 10 0C13.6819 0 16.6667 2.96906 16.6667 6.63158C16.6667 10.2941 13.6819 13.2632 10 13.2632C6.3181 13.2632 3.33333 10.2941 3.33333 6.63158Z" fill="#D80028"/>
<path fill-rule="evenodd" clip-rule="evenodd" d="M15.0335 16.008C13.5818 14.9447 11.814 14.3652 9.98997 14.3684C8.16594 14.3715 6.40032 14.9572 4.95254 16.0253C3.50586 17.0927 2.46052 18.5786 1.94713 20.2498C1.76957 20.8278 1.2017 21.1373 0.678754 20.941C0.155804 20.7448 -0.124194 20.1171 0.0533609 19.5391C0.717498 17.3772 2.05343 15.5066 3.84219 14.1869C5.62985 12.8679 7.78337 12.1617 9.98683 12.1579C12.1903 12.1541 14.3461 12.8528 16.1382 14.1654C17.9314 15.4787 19.2738 17.3445 19.9454 19.5039C20.125 20.0812 19.8471 20.71 19.3248 20.9084C18.8026 21.1068 18.2336 20.7998 18.0541 20.2225C17.5348 18.5529 16.4841 17.0704 15.0335 16.008Z" fill="#D80028"/>
</svg>
