<svg width="62" height="64" viewBox="0 0 62 64" fill="none" xmlns="http://www.w3.org/2000/svg">
<path d="M0 32C0 14.3269 14.3269 0 32 0H62V64H32C14.3269 64 0 49.6731 0 32V32Z" fill="#F6FAF3"/>
<path d="M40.5461 18.6976C37.6846 16.489 32.6923 20.11 31 21.4698C29.3154 20.11 24.3231 16.4965 21.4615 18.6976C21.3174 18.8103 21.2011 18.9532 21.1212 19.1158C21.0413 19.2784 20.9999 19.4564 21 19.6367V33.2419C21.0008 33.402 21.0346 33.5603 21.0994 33.7075C21.1641 33.8546 21.2585 33.9875 21.3769 34.0983C21.6229 34.3286 21.9516 34.4554 22.2923 34.4514C24.6769 34.3988 27.3615 36.1267 28.9769 37.1559C29.2846 37.3512 29.5615 37.5315 29.7923 37.6667C30.1556 37.8846 30.5736 38 31 38C31.4263 38 31.8444 37.8846 32.2077 37.6667C32.4384 37.5315 32.7154 37.3512 33.0308 37.1559C34.6384 36.1267 37.3 34.3913 39.7154 34.4514C40.0553 34.4515 40.3826 34.3252 40.6307 34.0983C40.7481 33.9871 40.8413 33.854 40.9047 33.7068C40.9682 33.5597 41.0006 33.4015 41 33.2419V19.6367C41.0016 19.4569 40.9616 19.2791 40.883 19.1165C40.8044 18.9539 40.6893 18.8107 40.5461 18.6976ZM39.4615 32.9714C36.7 33.0315 33.8923 34.8345 32.1846 35.9163L31.4154 36.4121C31.2984 36.4781 31.1658 36.5128 31.0308 36.5128C30.8957 36.5128 30.7631 36.4781 30.6461 36.4121L29.8769 35.9163C28.1769 34.8345 25.3692 33.0315 22.6 32.9714V19.7869C24.6077 18.5399 29.1 21.7552 30.5538 23.0173L31.0615 23.4606L31.5769 23.0173C33.0307 21.7552 37.5231 18.5098 39.523 19.7869L39.4615 32.9714Z" fill="#62A047"/>
<path d="M36.9 24.5798L35.0769 26.3603C35.0511 26.3846 35.0166 26.3982 34.9808 26.3982C34.9449 26.3982 34.9104 26.3846 34.8846 26.3603L34.8 26.2776C34.7751 26.2524 34.7611 26.2188 34.7611 26.1837C34.7611 26.1487 34.7751 26.115 34.8 26.0898L36.623 24.3094C36.7224 24.211 36.7824 24.0813 36.7923 23.9435C36.8022 23.8057 36.7612 23.669 36.6769 23.5581C36.6214 23.4996 36.5542 23.453 36.4794 23.4211C36.4046 23.3891 36.3239 23.3727 36.2423 23.3727C36.1607 23.3727 36.0799 23.3891 36.0051 23.4211C35.9303 23.453 35.8631 23.4996 35.8077 23.5581L33.9769 25.3461C33.9646 25.3591 33.9498 25.3694 33.9333 25.3765C33.9167 25.3836 33.8988 25.3873 33.8807 25.3873C33.8627 25.3873 33.8448 25.3836 33.8282 25.3765C33.8117 25.3694 33.7968 25.3591 33.7846 25.3461L33.7 25.2634C33.6751 25.2382 33.6612 25.2046 33.6612 25.1695C33.6612 25.1345 33.6751 25.1008 33.7 25.0756L35.5384 23.2877C35.5933 23.2346 35.6369 23.1714 35.6666 23.1018C35.6964 23.0321 35.7117 22.9574 35.7117 22.882C35.7117 22.8065 35.6964 22.7318 35.6666 22.6622C35.6369 22.5926 35.5933 22.5294 35.5384 22.4763C35.4854 22.4233 35.422 22.3813 35.3519 22.3529C35.2818 22.3245 35.2066 22.3103 35.1307 22.311C34.9735 22.3127 34.8227 22.3717 34.7077 22.4763L32.3 24.8277C32.078 25.0478 31.9048 25.3101 31.791 25.5983C31.6772 25.8864 31.6253 26.1944 31.6385 26.503C31.6538 26.8063 31.6028 27.1092 31.4887 27.3916C31.3746 27.6741 31.2001 27.9294 30.9769 28.1407C30.7687 27.9475 30.6038 27.7143 30.4925 27.4557C30.3813 27.197 30.3262 26.9187 30.3308 26.6382C30.294 25.6945 29.8764 24.8033 29.1692 24.1591C27.9308 22.9496 26.2154 22.6566 25.3231 23.5206C24.4308 24.3845 24.7385 26.0598 25.9769 27.2768C26.6392 27.9627 27.5508 28.3673 28.5154 28.4037C29.0641 28.4106 29.5884 28.6262 29.9769 29.0047L27.0769 31.5364C26.9774 31.6205 26.8968 31.7237 26.8402 31.8397C26.7835 31.9556 26.752 32.0818 26.7477 32.2102C26.7434 32.3386 26.7663 32.4665 26.815 32.5858C26.8637 32.7052 26.9372 32.8134 27.0308 32.9037C27.1208 32.9929 27.2288 33.063 27.348 33.1096C27.4671 33.1561 27.5948 33.1781 27.7231 33.1741C27.9721 33.1687 28.2093 33.069 28.3846 32.8962L28.4308 32.8586L30.9769 30.0715L33.5307 32.8586C33.6206 32.9554 33.7297 33.0333 33.8513 33.0875C33.973 33.1418 34.1047 33.1712 34.2384 33.1741C34.3667 33.1781 34.4944 33.1561 34.6135 33.1096C34.7327 33.063 34.8407 32.9929 34.9308 32.9037C35.1089 32.7216 35.2081 32.4794 35.2077 32.2276C35.2051 32.0962 35.1744 31.9668 35.1174 31.8477C35.0604 31.7286 34.9785 31.6226 34.8769 31.5364L31.9846 29.0047C32.2057 28.8033 32.4661 28.6477 32.7503 28.547C33.0345 28.4463 33.3366 28.4027 33.6385 28.4187C33.9407 28.43 34.2421 28.3804 34.524 28.2731C34.8058 28.1659 35.0621 28.0032 35.2769 27.7952L37.7231 25.4062C37.7815 25.3496 37.8268 25.2814 37.8559 25.2062C37.8851 25.1311 37.8975 25.0507 37.8923 24.9705C37.8894 24.8575 37.8518 24.7479 37.7843 24.6561C37.7169 24.5642 37.6227 24.4943 37.514 24.4554C37.4053 24.4165 37.2872 24.4105 37.175 24.438C37.0627 24.4656 36.9615 24.5254 36.8846 24.6099L36.9 24.5798Z" fill="#62A047"/>
<path d="M19.557 47L18.325 44.824H17.797V47H16.677V41.416H18.773C19.205 41.416 19.573 41.4933 19.877 41.648C20.181 41.7973 20.4077 42.0027 20.557 42.264C20.7117 42.52 20.789 42.808 20.789 43.128C20.789 43.496 20.6823 43.8293 20.469 44.128C20.2557 44.4213 19.9383 44.624 19.517 44.736L20.853 47H19.557ZM17.797 43.984H18.733C19.037 43.984 19.2637 43.912 19.413 43.768C19.5623 43.6187 19.637 43.4133 19.637 43.152C19.637 42.896 19.5623 42.6987 19.413 42.56C19.2637 42.416 19.037 42.344 18.733 42.344H17.797V43.984ZM25.922 44.688C25.922 44.848 25.9113 44.992 25.89 45.12H22.65C22.6767 45.44 22.7887 45.6907 22.986 45.872C23.1833 46.0533 23.426 46.144 23.714 46.144C24.13 46.144 24.426 45.9653 24.602 45.608H25.81C25.682 46.0347 25.4367 46.3867 25.074 46.664C24.7113 46.936 24.266 47.072 23.738 47.072C23.3113 47.072 22.9273 46.9787 22.586 46.792C22.25 46.6 21.986 46.3307 21.794 45.984C21.6073 45.6373 21.514 45.2373 21.514 44.784C21.514 44.3253 21.6073 43.9227 21.794 43.576C21.9807 43.2293 22.242 42.9627 22.578 42.776C22.914 42.5893 23.3007 42.496 23.738 42.496C24.1593 42.496 24.5353 42.5867 24.866 42.768C25.202 42.9493 25.4607 43.208 25.642 43.544C25.8287 43.8747 25.922 44.256 25.922 44.688ZM24.762 44.368C24.7567 44.08 24.6527 43.8507 24.45 43.68C24.2473 43.504 23.9993 43.416 23.706 43.416C23.4287 43.416 23.194 43.5013 23.002 43.672C22.8153 43.8373 22.7007 44.0693 22.658 44.368H24.762ZM26.4515 44.784C26.4515 44.3253 26.5448 43.9253 26.7315 43.584C26.9182 43.2373 27.1768 42.9707 27.5075 42.784C27.8382 42.592 28.2168 42.496 28.6435 42.496C29.1928 42.496 29.6462 42.6347 30.0035 42.912C30.3662 43.184 30.6088 43.568 30.7315 44.064H29.5235C29.4595 43.872 29.3502 43.7227 29.1955 43.616C29.0462 43.504 28.8595 43.448 28.6355 43.448C28.3155 43.448 28.0622 43.5653 27.8755 43.8C27.6888 44.0293 27.5955 44.3573 27.5955 44.784C27.5955 45.2053 27.6888 45.5333 27.8755 45.768C28.0622 45.9973 28.3155 46.112 28.6355 46.112C29.0888 46.112 29.3848 45.9093 29.5235 45.504H30.7315C30.6088 45.984 30.3662 46.3653 30.0035 46.648C29.6408 46.9307 29.1875 47.072 28.6435 47.072C28.2168 47.072 27.8382 46.9787 27.5075 46.792C27.1768 46.6 26.9182 46.3333 26.7315 45.992C26.5448 45.6453 26.4515 45.2427 26.4515 44.784ZM33.52 47.072C33.0933 47.072 32.7093 46.9787 32.368 46.792C32.0267 46.6 31.7573 46.3307 31.56 45.984C31.368 45.6373 31.272 45.2373 31.272 44.784C31.272 44.3307 31.3707 43.9307 31.568 43.584C31.7707 43.2373 32.0453 42.9707 32.392 42.784C32.7387 42.592 33.1253 42.496 33.552 42.496C33.9787 42.496 34.3653 42.592 34.712 42.784C35.0587 42.9707 35.3307 43.2373 35.528 43.584C35.7307 43.9307 35.832 44.3307 35.832 44.784C35.832 45.2373 35.728 45.6373 35.52 45.984C35.3173 46.3307 35.04 46.6 34.688 46.792C34.3413 46.9787 33.952 47.072 33.52 47.072ZM33.52 46.096C33.7227 46.096 33.912 46.048 34.088 45.952C34.2693 45.8507 34.4133 45.7013 34.52 45.504C34.6267 45.3067 34.68 45.0667 34.68 44.784C34.68 44.3627 34.568 44.04 34.344 43.816C34.1253 43.5867 33.856 43.472 33.536 43.472C33.216 43.472 32.9467 43.5867 32.728 43.816C32.5147 44.04 32.408 44.3627 32.408 44.784C32.408 45.2053 32.512 45.5307 32.72 45.76C32.9333 45.984 33.2 46.096 33.52 46.096ZM38.6216 47.072C38.1949 47.072 37.8109 46.9787 37.4696 46.792C37.1282 46.6 36.8589 46.3307 36.6616 45.984C36.4696 45.6373 36.3736 45.2373 36.3736 44.784C36.3736 44.3307 36.4722 43.9307 36.6696 43.584C36.8722 43.2373 37.1469 42.9707 37.4936 42.784C37.8402 42.592 38.2269 42.496 38.6536 42.496C39.0802 42.496 39.4669 42.592 39.8136 42.784C40.1602 42.9707 40.4322 43.2373 40.6296 43.584C40.8322 43.9307 40.9336 44.3307 40.9336 44.784C40.9336 45.2373 40.8296 45.6373 40.6216 45.984C40.4189 46.3307 40.1416 46.6 39.7896 46.792C39.4429 46.9787 39.0536 47.072 38.6216 47.072ZM38.6216 46.096C38.8242 46.096 39.0136 46.048 39.1896 45.952C39.3709 45.8507 39.5149 45.7013 39.6216 45.504C39.7282 45.3067 39.7816 45.0667 39.7816 44.784C39.7816 44.3627 39.6696 44.04 39.4456 43.816C39.2269 43.5867 38.9576 43.472 38.6376 43.472C38.3176 43.472 38.0482 43.5867 37.8296 43.816C37.6162 44.04 37.5096 44.3627 37.5096 44.784C37.5096 45.2053 37.6136 45.5307 37.8216 45.76C38.0349 45.984 38.3016 46.096 38.6216 46.096ZM44.3791 47L42.8751 45.112V47H41.7551V41.08H42.8751V44.448L44.3631 42.568H45.8191L43.8671 44.792L45.8351 47H44.3791Z" fill="#414141"/>
</svg>
