<svg width="24" height="24" viewBox="0 0 24 24" fill="none" xmlns="http://www.w3.org/2000/svg">
<path d="M21.5461 2.69764C18.6846 0.488958 13.6923 4.10999 12 5.46976C10.3154 4.10999 5.32307 0.49647 2.46154 2.69764C2.31742 2.81033 2.2011 2.95325 2.1212 3.1158C2.04131 3.27836 1.99988 3.45639 2 3.6367V17.2419C2.00084 17.402 2.03464 17.5603 2.09939 17.7075C2.16415 17.8546 2.25854 17.9875 2.37694 18.0983C2.62289 18.3286 2.95161 18.4554 3.29232 18.4514C5.67693 18.3988 8.36152 20.1267 9.9769 21.1559C10.2846 21.3512 10.5615 21.5315 10.7923 21.6667C11.1556 21.8846 11.5736 22 12 22C12.4263 22 12.8444 21.8846 13.2077 21.6667C13.4384 21.5315 13.7154 21.3512 14.0308 21.1559C15.6384 20.1267 18.3 18.3913 20.7154 18.4514C21.0553 18.4515 21.3826 18.3252 21.6307 18.0983C21.7481 17.9871 21.8413 17.854 21.9047 17.7068C21.9682 17.5597 22.0006 17.4015 22 17.2419V3.6367C22.0016 3.45691 21.9616 3.27908 21.883 3.11648C21.8044 2.95388 21.6893 2.81071 21.5461 2.69764ZM20.4615 16.9714C17.7 17.0315 14.8923 18.8345 13.1846 19.9163L12.4154 20.4121C12.2984 20.4781 12.1658 20.5128 12.0308 20.5128C11.8957 20.5128 11.7631 20.4781 11.6461 20.4121L10.8769 19.9163C9.17691 18.8345 6.36923 17.0315 3.60001 16.9714V3.78695C5.6077 2.53987 10.1 5.75523 11.5538 7.01733L12.0615 7.46057L12.5769 7.01733C14.0307 5.75523 18.5231 2.50982 20.523 3.78695L20.4615 16.9714Z" fill="#D80028"/>
<path d="M17.9 8.57982L16.0769 10.3603C16.0511 10.3846 16.0166 10.3982 15.9808 10.3982C15.9449 10.3982 15.9104 10.3846 15.8846 10.3603L15.8 10.2776C15.7751 10.2524 15.7611 10.2188 15.7611 10.1837C15.7611 10.1487 15.7751 10.115 15.8 10.0898L17.623 8.30937C17.7224 8.21105 17.7824 8.08126 17.7923 7.94348C17.8022 7.80569 17.7612 7.66899 17.6769 7.55812C17.6214 7.49963 17.5542 7.45297 17.4794 7.42105C17.4046 7.38914 17.3239 7.37267 17.2423 7.37267C17.1607 7.37267 17.0799 7.38914 17.0051 7.42105C16.9303 7.45297 16.8631 7.49963 16.8077 7.55812L14.9769 9.34609C14.9646 9.35906 14.9498 9.36943 14.9333 9.37651C14.9167 9.38359 14.8988 9.38725 14.8807 9.38725C14.8627 9.38725 14.8448 9.38359 14.8282 9.37651C14.8117 9.36943 14.7968 9.35906 14.7846 9.34609L14.7 9.26345C14.6751 9.23824 14.6612 9.20458 14.6612 9.16954C14.6612 9.13451 14.6751 9.10084 14.7 9.07564L16.5384 7.28767C16.5933 7.23458 16.6369 7.17139 16.6666 7.10176C16.6964 7.03213 16.7117 6.95743 16.7117 6.88198C16.7117 6.80654 16.6964 6.73184 16.6666 6.66221C16.6369 6.59258 16.5933 6.5294 16.5384 6.47631C16.4854 6.4233 16.422 6.38132 16.3519 6.35291C16.2818 6.32451 16.2066 6.31026 16.1307 6.31104C15.9735 6.31272 15.8227 6.37166 15.7077 6.47631L13.3 8.82773C13.078 9.0478 12.9048 9.31006 12.791 9.59826C12.6772 9.88645 12.6253 10.1944 12.6385 10.503C12.6538 10.8063 12.6028 11.1092 12.4887 11.3916C12.3746 11.6741 12.2001 11.9294 11.9769 12.1407C11.7687 11.9475 11.6038 11.7143 11.4925 11.4557C11.3813 11.197 11.3262 10.9187 11.3308 10.6382C11.294 9.69449 10.8764 8.80327 10.1692 8.15912C8.93075 6.94961 7.21537 6.65661 6.32306 7.52055C5.43076 8.38449 5.73845 10.0598 6.97691 11.2768C7.63924 11.9627 8.55075 12.3673 9.51538 12.4037C10.0641 12.4106 10.5884 12.6262 10.9769 13.0047L8.07693 15.5364C7.97744 15.6205 7.89682 15.7237 7.84016 15.8397C7.7835 15.9556 7.75203 16.0818 7.74769 16.2102C7.74336 16.3386 7.76626 16.4665 7.81497 16.5858C7.86369 16.7052 7.93715 16.8134 8.03075 16.9037C8.12083 16.9929 8.22883 17.063 8.34797 17.1096C8.46711 17.1561 8.59483 17.1781 8.72308 17.1741C8.97213 17.1687 9.20929 17.069 9.3846 16.8962L9.43076 16.8586L11.9769 14.0715L14.5307 16.8586C14.6206 16.9554 14.7297 17.0333 14.8513 17.0875C14.973 17.1418 15.1047 17.1712 15.2384 17.1741C15.3667 17.1781 15.4944 17.1561 15.6135 17.1096C15.7327 17.063 15.8407 16.9929 15.9308 16.9037C16.1089 16.7216 16.2081 16.4794 16.2077 16.2276C16.2051 16.0962 16.1744 15.9668 16.1174 15.8477C16.0604 15.7286 15.9785 15.6226 15.8769 15.5364L12.9846 13.0047C13.2057 12.8033 13.4661 12.6477 13.7503 12.547C14.0345 12.4463 14.3366 12.4027 14.6385 12.4187C14.9407 12.43 15.2421 12.3804 15.524 12.2731C15.8058 12.1659 16.0621 12.0032 16.2769 11.7952L18.7231 9.40619C18.7815 9.34955 18.8268 9.28137 18.8559 9.20621C18.8851 9.13106 18.8975 9.05068 18.8923 8.97046C18.8894 8.85746 18.8518 8.74792 18.7843 8.65607C18.7169 8.56422 18.6227 8.49432 18.514 8.45543C18.4053 8.41654 18.2872 8.41047 18.175 8.43801C18.0627 8.46555 17.9615 8.52543 17.8846 8.60986L17.9 8.57982Z" fill="#D80028"/>
</svg>
