<svg width="24" height="24" viewBox="0 0 24 24" fill="none" xmlns="http://www.w3.org/2000/svg">
<path fill-rule="evenodd" clip-rule="evenodd" d="M20.0001 7.07694C20.0001 8.77629 18.6225 10.1539 16.9232 10.1539C15.9381 10.1539 15.0611 9.69097 14.498 8.9708L10.114 11.5019C10.1402 11.6637 10.1539 11.8297 10.1539 11.9988C10.1539 12.0888 10.15 12.1779 10.1425 12.2659L14.6389 14.8619C15.202 14.2383 16.0168 13.8464 16.9232 13.8464C18.6225 13.8464 20.0001 15.224 20.0001 16.9234C20.0001 18.6227 18.6225 20.0003 16.9232 20.0003C15.2238 20.0003 13.8463 18.6227 13.8463 16.9234C13.8463 16.7967 13.8539 16.6717 13.8688 16.5491L9.42729 13.9848C8.86287 14.6521 8.01939 15.0758 7.07694 15.0758C5.37759 15.0758 4 13.6982 4 11.9988C4 10.2995 5.37759 8.92191 7.07694 8.92191C7.94087 8.92191 8.72164 9.27796 9.28052 9.85133L13.8492 7.21358C13.8473 7.16828 13.8463 7.12273 13.8463 7.07694C13.8463 5.37759 15.2238 4 16.9232 4C18.6225 4 20.0001 5.37759 20.0001 7.07694Z" fill="#D80028"/>
</svg>
