<svg width="24" height="24" viewBox="0 0 24 24" fill="none" xmlns="http://www.w3.org/2000/svg">
<path d="M16.9843 19.9999C16.7787 19.9967 16.5881 19.9314 16.4306 19.822L16.9843 19.9999Z" fill="#414141"/>
<path d="M17.0002 20C17.0001 20 17.0002 20 17.0002 20C17.2816 20 17.5358 19.8838 17.7175 19.6967L21.7071 15.7071C22.0976 15.3166 22.0976 14.6834 21.7071 14.2929C21.3166 13.9024 20.6834 13.9024 20.2929 14.2929L18.0002 16.5856L18.0002 5C18.0002 4.44771 17.5524 4 17.0002 4C16.4479 4 16.0002 4.44771 16.0002 5L16.0002 16.5859L13.7071 14.2929C13.3166 13.9024 12.6834 13.9024 12.2929 14.2929C11.9024 14.6834 11.9024 15.3166 12.2929 15.7071L16.2929 19.7071C16.3355 19.7498 16.3816 19.7882 16.4306 19.822" fill="#414141"/>
<path d="M2.29289 8.29289C1.90237 8.68342 1.90237 9.31658 2.29289 9.70711C2.68342 10.0976 3.31658 10.0976 3.70711 9.70711L5.99985 7.41436L5.99985 19C5.99985 19.5523 6.44756 20 6.99985 20C7.55213 20 7.99985 19.5523 7.99985 19L7.99985 7.41406L10.2929 9.70711C10.6834 10.0976 11.3166 10.0976 11.7071 9.70711C12.0976 9.31658 12.0976 8.68342 11.7071 8.29289L7.70711 4.29289C7.66436 4.25015 7.61814 4.21167 7.56911 4.17773C7.41159 4.06848 7.22117 4.00332 7.0157 4.00012C7.01047 4.00004 7.00524 4 7 4C6.99995 4 7.00005 4 7 4C6.71858 4 6.46417 4.11624 6.28245 4.30334L2.29289 8.29289Z" fill="#414141"/>
</svg>
