<svg width="224" height="48" viewBox="0 0 224 48" fill="none" xmlns="http://www.w3.org/2000/svg">
<path d="M23.7416 34.6959C23.9005 34.6 24.0995 34.6 24.2584 34.6959L35.3455 41.3877C35.7242 41.6162 36.1913 41.2767 36.0908 40.846L33.1486 28.2339C33.1064 28.0532 33.1678 27.8639 33.3081 27.7424L43.1043 19.2559C43.4386 18.9663 43.2599 18.4172 42.8192 18.3798L29.9204 17.2855C29.7356 17.2698 29.5747 17.1531 29.5023 16.9824L24.4604 5.08619C24.2881 4.67967 23.7119 4.67967 23.5396 5.08618L18.4977 16.9824C18.4253 17.1531 18.2644 17.2698 18.0796 17.2855L5.18081 18.3798C4.7401 18.4172 4.5614 18.9663 4.8957 19.2559L14.6919 27.7424C14.8322 27.8639 14.8936 28.0532 14.8514 28.2339L11.9092 40.846C11.8087 41.2767 12.2758 41.6162 12.6545 41.3877L23.7416 34.6959Z" fill="#FFC035"/>
<path d="M23.7416 34.6959C23.9005 34.6 24.0995 34.6 24.2584 34.6959L35.3455 41.3877C35.7242 41.6162 36.1913 41.2767 36.0908 40.846L33.1486 28.2339C33.1064 28.0532 33.1678 27.8639 33.3081 27.7424L43.1043 19.2559C43.4386 18.9663 43.2599 18.4172 42.8192 18.3798L29.9204 17.2855C29.7356 17.2698 29.5747 17.1531 29.5023 16.9824L24.4604 5.08619C24.2881 4.67967 23.7119 4.67967 23.5396 5.08618L18.4977 16.9824C18.4253 17.1531 18.2644 17.2698 18.0796 17.2855L5.18081 18.3798C4.7401 18.4172 4.5614 18.9663 4.8957 19.2559L14.6919 27.7424C14.8322 27.8639 14.8936 28.0532 14.8514 28.2339L11.9092 40.846C11.8087 41.2767 12.2758 41.6162 12.6545 41.3877L23.7416 34.6959Z" stroke="#FFC035"/>
<path d="M67.7416 34.6959C67.9005 34.6 68.0995 34.6 68.2584 34.6959L79.3455 41.3877C79.7242 41.6162 80.1913 41.2767 80.0908 40.846L77.1486 28.2339C77.1064 28.0532 77.1678 27.8639 77.3081 27.7424L87.1043 19.2559C87.4386 18.9663 87.2599 18.4172 86.8192 18.3798L73.9204 17.2855C73.7356 17.2698 73.5747 17.1531 73.5023 16.9824L68.4604 5.08619C68.2881 4.67967 67.7119 4.67967 67.5396 5.08618L62.4977 16.9824C62.4253 17.1531 62.2644 17.2698 62.0796 17.2855L49.1808 18.3798C48.7401 18.4172 48.5614 18.9663 48.8957 19.2559L58.6919 27.7424C58.8322 27.8639 58.8936 28.0532 58.8514 28.2339L55.9092 40.846C55.8087 41.2767 56.2758 41.6162 56.6545 41.3877L67.7416 34.6959Z" fill="#FFC035"/>
<path d="M67.7416 34.6959C67.9005 34.6 68.0995 34.6 68.2584 34.6959L79.3455 41.3877C79.7242 41.6162 80.1913 41.2767 80.0908 40.846L77.1486 28.2339C77.1064 28.0532 77.1678 27.8639 77.3081 27.7424L87.1043 19.2559C87.4386 18.9663 87.2599 18.4172 86.8192 18.3798L73.9204 17.2855C73.7356 17.2698 73.5747 17.1531 73.5023 16.9824L68.4604 5.08619C68.2881 4.67967 67.7119 4.67967 67.5396 5.08618L62.4977 16.9824C62.4253 17.1531 62.2644 17.2698 62.0796 17.2855L49.1808 18.3798C48.7401 18.4172 48.5614 18.9663 48.8957 19.2559L58.6919 27.7424C58.8322 27.8639 58.8936 28.0532 58.8514 28.2339L55.9092 40.846C55.8087 41.2767 56.2758 41.6162 56.6545 41.3877L67.7416 34.6959Z" stroke="#FFC035"/>
<path d="M111.742 34.6959C111.901 34.6 112.099 34.6 112.258 34.6959L123.346 41.3877C123.724 41.6162 124.191 41.2767 124.091 40.846L121.149 28.2339C121.106 28.0532 121.168 27.8639 121.308 27.7424L131.104 19.2559C131.439 18.9663 131.26 18.4172 130.819 18.3798L117.92 17.2855C117.736 17.2698 117.575 17.1531 117.502 16.9824L112.46 5.08619C112.288 4.67967 111.712 4.67967 111.54 5.08618L106.498 16.9824C106.425 17.1531 106.264 17.2698 106.08 17.2855L93.1808 18.3798C92.7401 18.4172 92.5614 18.9663 92.8957 19.2559L102.692 27.7424C102.832 27.8639 102.894 28.0532 102.851 28.2339L99.9092 40.846C99.8087 41.2767 100.276 41.6162 100.655 41.3877L111.742 34.6959Z" fill="#FFC035"/>
<path d="M111.742 34.6959C111.901 34.6 112.099 34.6 112.258 34.6959L123.346 41.3877C123.724 41.6162 124.191 41.2767 124.091 40.846L121.149 28.2339C121.106 28.0532 121.168 27.8639 121.308 27.7424L131.104 19.2559C131.439 18.9663 131.26 18.4172 130.819 18.3798L117.92 17.2855C117.736 17.2698 117.575 17.1531 117.502 16.9824L112.46 5.08619C112.288 4.67967 111.712 4.67967 111.54 5.08618L106.498 16.9824C106.425 17.1531 106.264 17.2698 106.08 17.2855L93.1808 18.3798C92.7401 18.4172 92.5614 18.9663 92.8957 19.2559L102.692 27.7424C102.832 27.8639 102.894 28.0532 102.851 28.2339L99.9092 40.846C99.8087 41.2767 100.276 41.6162 100.655 41.3877L111.742 34.6959Z" stroke="#FFC035"/>
<path d="M155.742 34.6959C155.901 34.6 156.099 34.6 156.258 34.6959L167.346 41.3877C167.724 41.6162 168.191 41.2767 168.091 40.846L165.149 28.2339C165.106 28.0532 165.168 27.8639 165.308 27.7424L175.104 19.2559C175.439 18.9663 175.26 18.4172 174.819 18.3798L161.92 17.2855C161.736 17.2698 161.575 17.1531 161.502 16.9824L156.46 5.08619C156.288 4.67967 155.712 4.67967 155.54 5.08618L150.498 16.9824C150.425 17.1531 150.264 17.2698 150.08 17.2855L137.181 18.3798C136.74 18.4172 136.561 18.9663 136.896 19.2559L146.692 27.7424C146.832 27.8639 146.894 28.0532 146.851 28.2339L143.909 40.846C143.809 41.2767 144.276 41.6162 144.655 41.3877L155.742 34.6959Z" fill="#FFC035"/>
<path d="M155.742 34.6959C155.901 34.6 156.099 34.6 156.258 34.6959L167.346 41.3877C167.724 41.6162 168.191 41.2767 168.091 40.846L165.149 28.2339C165.106 28.0532 165.168 27.8639 165.308 27.7424L175.104 19.2559C175.439 18.9663 175.26 18.4172 174.819 18.3798L161.92 17.2855C161.736 17.2698 161.575 17.1531 161.502 16.9824L156.46 5.08619C156.288 4.67967 155.712 4.67967 155.54 5.08618L150.498 16.9824C150.425 17.1531 150.264 17.2698 150.08 17.2855L137.181 18.3798C136.74 18.4172 136.561 18.9663 136.896 19.2559L146.692 27.7424C146.832 27.8639 146.894 28.0532 146.851 28.2339L143.909 40.846C143.809 41.2767 144.276 41.6162 144.655 41.3877L155.742 34.6959Z" stroke="#FFC035"/>
<path d="M199.893 35.0008C199.958 34.9592 200.042 34.9592 200.107 35.0008L210.717 41.7416C210.867 41.837 211.058 41.7033 211.02 41.5295L208.197 28.793C208.182 28.7231 208.205 28.6502 208.258 28.602L217.664 20.0244C217.792 19.9071 217.72 19.6929 217.547 19.6774L205.18 18.573C205.105 18.5663 205.04 18.5182 205.012 18.4485L200.186 6.46077C200.118 6.29371 199.882 6.29371 199.814 6.46077L194.988 18.4485C194.96 18.5182 194.895 18.5663 194.82 18.573L182.453 19.6774C182.28 19.6929 182.208 19.9071 182.336 20.0244L191.742 28.602C191.795 28.6502 191.818 28.7231 191.803 28.793L188.98 41.5295C188.942 41.7033 189.133 41.837 189.283 41.7416L199.893 35.0008Z" stroke="#E3E3E3" stroke-width="4"/>
</svg>
