<svg width="224" height="48" viewBox="0 0 224 48" fill="none" xmlns="http://www.w3.org/2000/svg">
<path d="M23.7416 34.6959C23.9005 34.6 24.0995 34.6 24.2584 34.6959L35.3455 41.3877C35.7242 41.6162 36.1913 41.2767 36.0908 40.846L33.1486 28.2339C33.1064 28.0532 33.1678 27.8639 33.3081 27.7424L43.1043 19.2559C43.4386 18.9663 43.2599 18.4172 42.8192 18.3798L29.9204 17.2855C29.7356 17.2698 29.5747 17.1531 29.5023 16.9824L24.4604 5.08619C24.2881 4.67967 23.7119 4.67967 23.5396 5.08618L18.4977 16.9824C18.4253 17.1531 18.2644 17.2698 18.0796 17.2855L5.18081 18.3798C4.7401 18.4172 4.5614 18.9663 4.8957 19.2559L14.6919 27.7424C14.8322 27.8639 14.8936 28.0532 14.8514 28.2339L11.9092 40.846C11.8087 41.2767 12.2758 41.6162 12.6545 41.3877L23.7416 34.6959Z" fill="#FFC035"/>
<path d="M23.7416 34.6959C23.9005 34.6 24.0995 34.6 24.2584 34.6959L35.3455 41.3877C35.7242 41.6162 36.1913 41.2767 36.0908 40.846L33.1486 28.2339C33.1064 28.0532 33.1678 27.8639 33.3081 27.7424L43.1043 19.2559C43.4386 18.9663 43.2599 18.4172 42.8192 18.3798L29.9204 17.2855C29.7356 17.2698 29.5747 17.1531 29.5023 16.9824L24.4604 5.08619C24.2881 4.67967 23.7119 4.67967 23.5396 5.08618L18.4977 16.9824C18.4253 17.1531 18.2644 17.2698 18.0796 17.2855L5.18081 18.3798C4.7401 18.4172 4.5614 18.9663 4.8957 19.2559L14.6919 27.7424C14.8322 27.8639 14.8936 28.0532 14.8514 28.2339L11.9092 40.846C11.8087 41.2767 12.2758 41.6162 12.6545 41.3877L23.7416 34.6959Z" stroke="#FFC035"/>
<path d="M67.8927 35.0008C67.9582 34.9592 68.0418 34.9592 68.1073 35.0008L78.7172 41.7416C78.8675 41.837 79.0582 41.7033 79.0197 41.5295L76.1971 28.793C76.1816 28.7231 76.2046 28.6502 76.2576 28.602L85.6639 20.0244C85.7925 19.9071 85.7203 19.6929 85.5469 19.6774L73.18 18.573C73.1051 18.5663 73.0403 18.5182 73.0123 18.4485L68.1855 6.46077C68.1183 6.29371 67.8817 6.29371 67.8145 6.46077L62.9877 18.4485C62.9597 18.5182 62.8949 18.5663 62.82 18.573L50.4531 19.6774C50.2797 19.6929 50.2075 19.9071 50.3361 20.0244L59.7424 28.602C59.7954 28.6502 59.8184 28.7231 59.8029 28.793L56.9803 41.5295C56.9418 41.7033 57.1325 41.837 57.2828 41.7416L67.8927 35.0008Z" stroke="#E3E3E3" stroke-width="4"/>
<path d="M111.893 35.0008C111.958 34.9592 112.042 34.9592 112.107 35.0008L122.717 41.7416C122.867 41.837 123.058 41.7033 123.02 41.5295L120.197 28.793C120.182 28.7231 120.205 28.6502 120.258 28.602L129.664 20.0244C129.792 19.9071 129.72 19.6929 129.547 19.6774L117.18 18.573C117.105 18.5663 117.04 18.5182 117.012 18.4485L112.186 6.46077C112.118 6.29371 111.882 6.29371 111.814 6.46077L106.988 18.4485C106.96 18.5182 106.895 18.5663 106.82 18.573L94.4531 19.6774C94.2797 19.6929 94.2075 19.9071 94.3361 20.0244L103.742 28.602C103.795 28.6502 103.818 28.7231 103.803 28.793L100.98 41.5295C100.942 41.7033 101.133 41.837 101.283 41.7416L111.893 35.0008Z" stroke="#E3E3E3" stroke-width="4"/>
<path d="M155.893 35.0008C155.958 34.9592 156.042 34.9592 156.107 35.0008L166.717 41.7416C166.867 41.837 167.058 41.7033 167.02 41.5295L164.197 28.793C164.182 28.7231 164.205 28.6502 164.258 28.602L173.664 20.0244C173.792 19.9071 173.72 19.6929 173.547 19.6774L161.18 18.573C161.105 18.5663 161.04 18.5182 161.012 18.4485L156.186 6.46077C156.118 6.29371 155.882 6.29371 155.814 6.46077L150.988 18.4485C150.96 18.5182 150.895 18.5663 150.82 18.573L138.453 19.6774C138.28 19.6929 138.208 19.9071 138.336 20.0244L147.742 28.602C147.795 28.6502 147.818 28.7231 147.803 28.793L144.98 41.5295C144.942 41.7033 145.133 41.837 145.283 41.7416L155.893 35.0008Z" stroke="#E3E3E3" stroke-width="4"/>
<path d="M199.893 35.0008C199.958 34.9592 200.042 34.9592 200.107 35.0008L210.717 41.7416C210.867 41.837 211.058 41.7033 211.02 41.5295L208.197 28.793C208.182 28.7231 208.205 28.6502 208.258 28.602L217.664 20.0244C217.792 19.9071 217.72 19.6929 217.547 19.6774L205.18 18.573C205.105 18.5663 205.04 18.5182 205.012 18.4485L200.186 6.46077C200.118 6.29371 199.882 6.29371 199.814 6.46077L194.988 18.4485C194.96 18.5182 194.895 18.5663 194.82 18.573L182.453 19.6774C182.28 19.6929 182.208 19.9071 182.336 20.0244L191.742 28.602C191.795 28.6502 191.818 28.7231 191.803 28.793L188.98 41.5295C188.942 41.7033 189.133 41.837 189.283 41.7416L199.893 35.0008Z" stroke="#E3E3E3" stroke-width="4"/>
</svg>
