<svg width="224" height="48" viewBox="0 0 224 48" fill="none" xmlns="http://www.w3.org/2000/svg">
<path d="M23.7416 34.6959C23.9005 34.6 24.0995 34.6 24.2584 34.6959L35.3455 41.3877C35.7242 41.6162 36.1913 41.2767 36.0908 40.846L33.1486 28.2339C33.1064 28.0532 33.1678 27.8639 33.3081 27.7424L43.1043 19.2559C43.4386 18.9663 43.2599 18.4172 42.8192 18.3798L29.9204 17.2855C29.7356 17.2698 29.5747 17.1531 29.5023 16.9824L24.4604 5.08619C24.2881 4.67967 23.7119 4.67967 23.5396 5.08618L18.4977 16.9824C18.4253 17.1531 18.2644 17.2698 18.0796 17.2855L5.18081 18.3798C4.7401 18.4172 4.5614 18.9663 4.8957 19.2559L14.6919 27.7424C14.8322 27.8639 14.8936 28.0532 14.8514 28.2339L11.9092 40.846C11.8087 41.2767 12.2758 41.6162 12.6545 41.3877L23.7416 34.6959Z" fill="#FFC035"/>
<path d="M23.7416 34.6959C23.9005 34.6 24.0995 34.6 24.2584 34.6959L35.3455 41.3877C35.7242 41.6162 36.1913 41.2767 36.0908 40.846L33.1486 28.2339C33.1064 28.0532 33.1678 27.8639 33.3081 27.7424L43.1043 19.2559C43.4386 18.9663 43.2599 18.4172 42.8192 18.3798L29.9204 17.2855C29.7356 17.2698 29.5747 17.1531 29.5023 16.9824L24.4604 5.08619C24.2881 4.67967 23.7119 4.67967 23.5396 5.08618L18.4977 16.9824C18.4253 17.1531 18.2644 17.2698 18.0796 17.2855L5.18081 18.3798C4.7401 18.4172 4.5614 18.9663 4.8957 19.2559L14.6919 27.7424C14.8322 27.8639 14.8936 28.0532 14.8514 28.2339L11.9092 40.846C11.8087 41.2767 12.2758 41.6162 12.6545 41.3877L23.7416 34.6959Z" stroke="#FFC035"/>
<path d="M67.7416 34.6959C67.9005 34.6 68.0995 34.6 68.2584 34.6959L79.3455 41.3877C79.7242 41.6162 80.1913 41.2767 80.0908 40.846L77.1486 28.2339C77.1064 28.0532 77.1678 27.8639 77.3081 27.7424L87.1043 19.2559C87.4386 18.9663 87.2599 18.4172 86.8192 18.3798L73.9204 17.2855C73.7356 17.2698 73.5747 17.1531 73.5023 16.9824L68.4604 5.08619C68.2881 4.67967 67.7119 4.67967 67.5396 5.08618L62.4977 16.9824C62.4253 17.1531 62.2644 17.2698 62.0796 17.2855L49.1808 18.3798C48.7401 18.4172 48.5614 18.9663 48.8957 19.2559L58.6919 27.7424C58.8322 27.8639 58.8936 28.0532 58.8514 28.2339L55.9092 40.846C55.8087 41.2767 56.2758 41.6162 56.6545 41.3877L67.7416 34.6959Z" fill="#FFC035"/>
<path d="M67.7416 34.6959C67.9005 34.6 68.0995 34.6 68.2584 34.6959L79.3455 41.3877C79.7242 41.6162 80.1913 41.2767 80.0908 40.846L77.1486 28.2339C77.1064 28.0532 77.1678 27.8639 77.3081 27.7424L87.1043 19.2559C87.4386 18.9663 87.2599 18.4172 86.8192 18.3798L73.9204 17.2855C73.7356 17.2698 73.5747 17.1531 73.5023 16.9824L68.4604 5.08619C68.2881 4.67967 67.7119 4.67967 67.5396 5.08618L62.4977 16.9824C62.4253 17.1531 62.2644 17.2698 62.0796 17.2855L49.1808 18.3798C48.7401 18.4172 48.5614 18.9663 48.8957 19.2559L58.6919 27.7424C58.8322 27.8639 58.8936 28.0532 58.8514 28.2339L55.9092 40.846C55.8087 41.2767 56.2758 41.6162 56.6545 41.3877L67.7416 34.6959Z" stroke="#FFC035"/>
<path d="M111.742 34.6959C111.901 34.6 112.099 34.6 112.258 34.6959L123.346 41.3877C123.724 41.6162 124.191 41.2767 124.091 40.846L121.149 28.2339C121.106 28.0532 121.168 27.8639 121.308 27.7424L131.104 19.2559C131.439 18.9663 131.26 18.4172 130.819 18.3798L117.92 17.2855C117.736 17.2698 117.575 17.1531 117.502 16.9824L112.46 5.08619C112.288 4.67967 111.712 4.67967 111.54 5.08618L106.498 16.9824C106.425 17.1531 106.264 17.2698 106.08 17.2855L93.1808 18.3798C92.7401 18.4172 92.5614 18.9663 92.8957 19.2559L102.692 27.7424C102.832 27.8639 102.894 28.0532 102.851 28.2339L99.9092 40.846C99.8087 41.2767 100.276 41.6162 100.655 41.3877L111.742 34.6959Z" fill="#FFC035"/>
<path d="M111.742 34.6959C111.901 34.6 112.099 34.6 112.258 34.6959L123.346 41.3877C123.724 41.6162 124.191 41.2767 124.091 40.846L121.149 28.2339C121.106 28.0532 121.168 27.8639 121.308 27.7424L131.104 19.2559C131.439 18.9663 131.26 18.4172 130.819 18.3798L117.92 17.2855C117.736 17.2698 117.575 17.1531 117.502 16.9824L112.46 5.08619C112.288 4.67967 111.712 4.67967 111.54 5.08618L106.498 16.9824C106.425 17.1531 106.264 17.2698 106.08 17.2855L93.1808 18.3798C92.7401 18.4172 92.5614 18.9663 92.8957 19.2559L102.692 27.7424C102.832 27.8639 102.894 28.0532 102.851 28.2339L99.9092 40.846C99.8087 41.2767 100.276 41.6162 100.655 41.3877L111.742 34.6959Z" stroke="#FFC035"/>
<path d="M155.742 34.6959C155.901 34.6 156.099 34.6 156.258 34.6959L167.346 41.3877C167.724 41.6162 168.191 41.2767 168.091 40.846L165.149 28.2339C165.106 28.0532 165.168 27.8639 165.308 27.7424L175.104 19.2559C175.439 18.9663 175.26 18.4172 174.819 18.3798L161.92 17.2855C161.736 17.2698 161.575 17.1531 161.502 16.9824L156.46 5.08619C156.288 4.67967 155.712 4.67967 155.54 5.08618L150.498 16.9824C150.425 17.1531 150.264 17.2698 150.08 17.2855L137.181 18.3798C136.74 18.4172 136.561 18.9663 136.896 19.2559L146.692 27.7424C146.832 27.8639 146.894 28.0532 146.851 28.2339L143.909 40.846C143.809 41.2767 144.276 41.6162 144.655 41.3877L155.742 34.6959Z" fill="#FFC035"/>
<path d="M155.742 34.6959C155.901 34.6 156.099 34.6 156.258 34.6959L167.346 41.3877C167.724 41.6162 168.191 41.2767 168.091 40.846L165.149 28.2339C165.106 28.0532 165.168 27.8639 165.308 27.7424L175.104 19.2559C175.439 18.9663 175.26 18.4172 174.819 18.3798L161.92 17.2855C161.736 17.2698 161.575 17.1531 161.502 16.9824L156.46 5.08619C156.288 4.67967 155.712 4.67967 155.54 5.08618L150.498 16.9824C150.425 17.1531 150.264 17.2698 150.08 17.2855L137.181 18.3798C136.74 18.4172 136.561 18.9663 136.896 19.2559L146.692 27.7424C146.832 27.8639 146.894 28.0532 146.851 28.2339L143.909 40.846C143.809 41.2767 144.276 41.6162 144.655 41.3877L155.742 34.6959Z" stroke="#FFC035"/>
<path d="M199.742 34.6959C199.901 34.6 200.099 34.6 200.258 34.6959L211.346 41.3877C211.724 41.6162 212.191 41.2767 212.091 40.846L209.149 28.2339C209.106 28.0532 209.168 27.8639 209.308 27.7424L219.104 19.2559C219.439 18.9663 219.26 18.4172 218.819 18.3798L205.92 17.2855C205.736 17.2698 205.575 17.1531 205.502 16.9824L200.46 5.08619C200.288 4.67967 199.712 4.67967 199.54 5.08618L194.498 16.9824C194.425 17.1531 194.264 17.2698 194.08 17.2855L181.181 18.3798C180.74 18.4172 180.561 18.9663 180.896 19.2559L190.692 27.7424C190.832 27.8639 190.894 28.0532 190.851 28.2339L187.909 40.846C187.809 41.2767 188.276 41.6162 188.655 41.3877L199.742 34.6959Z" fill="#FFC035"/>
<path d="M199.742 34.6959C199.901 34.6 200.099 34.6 200.258 34.6959L211.346 41.3877C211.724 41.6162 212.191 41.2767 212.091 40.846L209.149 28.2339C209.106 28.0532 209.168 27.8639 209.308 27.7424L219.104 19.2559C219.439 18.9663 219.26 18.4172 218.819 18.3798L205.92 17.2855C205.736 17.2698 205.575 17.1531 205.502 16.9824L200.46 5.08619C200.288 4.67967 199.712 4.67967 199.54 5.08618L194.498 16.9824C194.425 17.1531 194.264 17.2698 194.08 17.2855L181.181 18.3798C180.74 18.4172 180.561 18.9663 180.896 19.2559L190.692 27.7424C190.832 27.8639 190.894 28.0532 190.851 28.2339L187.909 40.846C187.809 41.2767 188.276 41.6162 188.655 41.3877L199.742 34.6959Z" stroke="#FFC035"/>
</svg>
