<svg width="13" height="16" viewBox="0 0 13 16" fill="none" xmlns="http://www.w3.org/2000/svg">
<path d="M9.19489 10.4789V5.12187C10.2263 5.86227 11.4924 6.30006 12.8581 6.30006V4.25335C12.0686 4.0861 11.3751 3.65894 10.8629 3.07159C10.0378 2.53414 9.44388 1.67273 9.25535 0.668945H7.32774L7.32418 11.23C7.28153 12.4117 6.307 13.3621 5.11561 13.3621C4.37584 13.3621 3.72499 12.9955 3.31955 12.4402C2.61536 12.0665 2.13168 11.3297 2.13168 10.4789C2.13168 9.25804 3.12394 8.26492 4.34383 8.26492C4.57144 8.26492 4.79195 8.30406 4.99823 8.36815V6.30362C2.38064 6.36058 0.268066 8.51052 0.268066 11.1481C0.268066 12.4224 0.762422 13.5829 1.56975 14.4514C2.35574 15.0031 3.316 15.3306 4.34738 15.3306C7.01834 15.3306 9.19489 13.1521 9.19489 10.4789Z" fill="black"/>
</svg>
