<svg width="41" height="40" viewBox="0 0 41 40" fill="none" xmlns="http://www.w3.org/2000/svg">
<path d="M0.5 20C0.5 8.95431 9.45431 0 20.5 0C31.5457 0 40.5 8.95431 40.5 20C40.5 31.0457 31.5457 40 20.5 40C9.45431 40 0.5 31.0457 0.5 20Z" fill="#F9F9F9"/>
<path d="M18.623 17.8756V17.097C18.3562 17.0613 18.085 17.0391 17.805 17.0391C14.4663 17.0347 11.75 19.7532 11.75 23.0992C11.75 25.1503 12.7725 26.9657 14.3374 28.0647C13.3282 26.9835 12.7103 25.5285 12.7103 23.9356C12.7103 20.6386 15.351 17.9512 18.623 17.8756Z" fill="#25F4EE"/>
<path d="M18.7696 26.703C20.2589 26.703 21.477 25.515 21.5304 24.0378L21.5349 10.8365H23.9444C23.8955 10.5651 23.8688 10.2848 23.8688 10H20.579L20.5746 23.2014C20.5213 24.6785 19.3031 25.8665 17.8138 25.8665C17.3515 25.8665 16.9158 25.7508 16.5291 25.5461C17.027 26.2447 17.845 26.703 18.7696 26.703Z" fill="#25F4EE"/>
<path d="M28.4479 15.317V14.5829C27.5277 14.5829 26.674 14.3115 25.9539 13.8398C26.594 14.574 27.4609 15.108 28.4479 15.317Z" fill="#25F4EE"/>
<path d="M25.9539 13.8402C25.2515 13.0349 24.8292 11.9849 24.8292 10.8369H23.949C24.1757 12.0916 24.9226 13.1684 25.9539 13.8402Z" fill="#FE2C55"/>
<path d="M17.8094 20.3272C16.2845 20.3272 15.0442 21.5686 15.0442 23.0947C15.0442 24.1581 15.6488 25.0836 16.529 25.5463C16.2001 25.0925 16.0044 24.5363 16.0044 23.9312C16.0044 22.4051 17.2448 21.1637 18.7697 21.1637C19.0542 21.1637 19.3298 21.2126 19.5876 21.2927V17.929C19.3209 17.8934 19.0497 17.8711 18.7697 17.8711C18.7207 17.8711 18.6763 17.8755 18.6274 17.8755V20.4562C18.3651 20.3761 18.0939 20.3272 17.8094 20.3272Z" fill="#FE2C55"/>
<path d="M28.4479 15.3174V17.8758C26.7407 17.8758 25.1581 17.3285 23.8688 16.403V23.0994C23.8688 26.4409 21.1526 29.1639 17.8094 29.1639C16.5202 29.1639 15.3199 28.7545 14.3374 28.0649C15.4444 29.2529 17.0226 30.0004 18.7697 30.0004C22.1084 30.0004 24.8291 27.2818 24.8291 23.9359V17.2395C26.1183 18.165 27.701 18.7123 29.4081 18.7123V15.4198C29.0747 15.4198 28.7546 15.3841 28.4479 15.3174Z" fill="#FE2C55"/>
<path d="M23.8687 23.0994V16.4031C25.158 17.3286 26.7407 17.8758 28.4478 17.8758V15.3174C27.4608 15.1084 26.5939 14.5744 25.9538 13.8402C24.9224 13.1684 24.18 12.0916 23.9443 10.8369H21.5348L21.5303 24.0382C21.477 25.5154 20.2589 26.7034 18.7696 26.7034C17.8449 26.7034 17.0314 26.2451 16.5246 25.551C15.6443 25.0838 15.0397 24.1628 15.0397 23.0994C15.0397 21.5733 16.2801 20.3319 17.8049 20.3319C18.0894 20.3319 18.3651 20.3808 18.6229 20.4609V17.8803C15.3509 17.9515 12.7102 20.6389 12.7102 23.9359C12.7102 25.5288 13.3281 26.9793 14.3373 28.0649C15.3198 28.7546 16.5201 29.1639 17.8094 29.1639C21.148 29.1639 23.8687 26.4409 23.8687 23.0994Z" fill="black"/>
</svg>
