<svg width="41" height="40" viewBox="0 0 41 40" fill="none" xmlns="http://www.w3.org/2000/svg">
<path d="M0.5 20C0.5 31.0457 9.45431 40 20.5 40C31.5457 40 40.5 31.0457 40.5 20C40.5 8.95431 31.5457 0 20.5 0C9.45431 0 0.5 8.95431 0.5 20Z" fill="#F9F9F9"/>
<path d="M20.5 11.5C23.25 11.5 23.625 11.5 24.75 11.5C25.75 11.5 26.25 11.75 26.625 11.875C27.125 12.125 27.5 12.25 27.875 12.625C28.25 13 28.5 13.375 28.625 13.875C28.75 14.25 28.875 14.75 29 15.75C29 16.875 29 17.125 29 20C29 22.875 29 23.125 29 24.25C29 25.25 28.75 25.75 28.625 26.125C28.375 26.625 28.25 27 27.875 27.375C27.5 27.75 27.125 28 26.625 28.125C26.25 28.25 25.75 28.375 24.75 28.5C23.625 28.5 23.375 28.5 20.5 28.5C17.625 28.5 17.375 28.5 16.25 28.5C15.25 28.5 14.75 28.25 14.375 28.125C13.875 27.875 13.5 27.75 13.125 27.375C12.75 27 12.5 26.625 12.375 26.125C12.25 25.75 12.125 25.25 12 24.25C12 23.125 12 22.875 12 20C12 17.125 12 16.875 12 15.75C12 14.75 12.25 14.25 12.375 13.875C12.625 13.375 12.75 13 13.125 12.625C13.5 12.25 13.875 12 14.375 11.875C14.75 11.75 15.25 11.625 16.25 11.5C17.375 11.5 17.75 11.5 20.5 11.5ZM20.5 9.625C17.625 9.625 17.375 9.625 16.25 9.625C15.125 9.625 14.375 9.875 13.75 10.125C13.125 10.375 12.5 10.75 11.875 11.375C11.25 12 11 12.5 10.625 13.25C10.375 13.875 10.25 14.625 10.125 15.75C10.125 16.875 10.125 17.25 10.125 20C10.125 22.875 10.125 23.125 10.125 24.25C10.125 25.375 10.375 26.125 10.625 26.75C10.875 27.375 11.25 28 11.875 28.625C12.5 29.25 13 29.5 13.75 29.875C14.375 30.125 15.125 30.25 16.25 30.375C17.375 30.375 17.75 30.375 20.5 30.375C23.25 30.375 23.625 30.375 24.75 30.375C25.875 30.375 26.625 30.125 27.25 29.875C27.875 29.625 28.5 29.25 29.125 28.625C29.75 28 30 27.5 30.375 26.75C30.625 26.125 30.75 25.375 30.875 24.25C30.875 23.125 30.875 22.75 30.875 20C30.875 17.25 30.875 16.875 30.875 15.75C30.875 14.625 30.625 13.875 30.375 13.25C30.125 12.625 29.75 12 29.125 11.375C28.5 10.75 28 10.5 27.25 10.125C26.625 9.875 25.875 9.75 24.75 9.625C23.625 9.625 23.375 9.625 20.5 9.625Z" fill="#F00073"/>
<path d="M20.5 14.625C17.5 14.625 15.125 17 15.125 20C15.125 23 17.5 25.375 20.5 25.375C23.5 25.375 25.875 23 25.875 20C25.875 17 23.5 14.625 20.5 14.625ZM20.5 23.5C18.625 23.5 17 22 17 20C17 18.125 18.5 16.5 20.5 16.5C22.375 16.5 24 18 24 20C24 21.875 22.375 23.5 20.5 23.5Z" fill="#F00073"/>
<path d="M26 15.75C26.6904 15.75 27.25 15.1904 27.25 14.5C27.25 13.8096 26.6904 13.25 26 13.25C25.3096 13.25 24.75 13.8096 24.75 14.5C24.75 15.1904 25.3096 15.75 26 15.75Z" fill="#F00073"/>
</svg>
