<svg width="41" height="40" viewBox="0 0 41 40" fill="none" xmlns="http://www.w3.org/2000/svg">
<path d="M0.5 20C0.5 31.0457 9.45431 40 20.5 40C31.5457 40 40.5 31.0457 40.5 20C40.5 8.95431 31.5457 0 20.5 0C9.45431 0 0.5 8.95431 0.5 20Z" fill="#F9F9F9"/>
<path d="M30 15.125C29.75 14.25 29.125 13.625 28.25 13.375C26.75 13 20.375 13 20.375 13C20.375 13 14.125 13 12.5 13.375C11.625 13.625 11 14.25 10.75 15.125C10.5 16.75 10.5 20 10.5 20C10.5 20 10.5 23.25 10.875 24.875C11.125 25.75 11.75 26.375 12.625 26.625C14.125 27 20.5 27 20.5 27C20.5 27 26.75 27 28.375 26.625C29.25 26.375 29.875 25.75 30.125 24.875C30.5 23.25 30.5 20 30.5 20C30.5 20 30.5 16.75 30 15.125ZM18.5 23V17L23.75 20L18.5 23Z" fill="#FF0000"/>
</svg>
