<svg width="41" height="40" viewBox="0 0 41 40" fill="none" xmlns="http://www.w3.org/2000/svg">
<path d="M0.5 20C0.5 31.0457 9.45431 40 20.5 40C31.5457 40 40.5 31.0457 40.5 20C40.5 8.95431 31.5457 0 20.5 0C9.45431 0 0.5 8.95431 0.5 20Z" fill="#F9F9F9"/>
<path d="M30.5 13.75C29.75 14.125 29 14.25 28.125 14.375C29 13.875 29.625 13.125 29.875 12.125C29.125 12.625 28.25 12.875 27.25 13.125C26.5 12.375 25.375 11.875 24.25 11.875C21.625 11.875 19.625 14.375 20.25 16.875C16.875 16.75 13.875 15.125 11.75 12.625C10.625 14.5 11.25 16.875 13 18.125C12.375 18.125 11.75 17.875 11.125 17.625C11.125 19.5 12.5 21.25 14.375 21.75C13.75 21.875 13.125 22 12.5 21.875C13 23.5 14.5 24.75 16.375 24.75C14.875 25.875 12.625 26.5 10.5 26.25C12.375 27.375 14.5 28.125 16.75 28.125C24.375 28.125 28.625 21.75 28.375 15.875C29.25 15.375 30 14.625 30.5 13.75Z" fill="#1DA1F2"/>
</svg>
