<svg width="32" height="32" viewBox="0 0 32 32" fill="none" xmlns="http://www.w3.org/2000/svg">
<circle cx="16" cy="16" r="16" fill="#FFC035"/>
<path fill-rule="evenodd" clip-rule="evenodd" d="M16 29C23.1797 29 29 23.1797 29 16C29 8.8203 23.1797 3 16 3C8.8203 3 3 8.8203 3 16C3 23.1797 8.8203 29 16 29ZM16 32C24.8366 32 32 24.8366 32 16C32 7.16344 24.8366 0 16 0C7.16344 0 0 7.16344 0 16C0 24.8366 7.16344 32 16 32Z" fill="#F99707"/>
<path d="M13.0714 8V18.0705C13.0714 19.0776 13.3175 19.8528 13.8095 20.3963C14.3016 20.9398 15.0238 21.2116 15.9762 21.2116C16.9286 21.2116 17.6587 20.9398 18.1667 20.3963C18.6746 19.8528 18.9286 19.0776 18.9286 18.0705V8H23V18.0465C23 19.5491 22.6825 20.8199 22.0476 21.859C21.4127 22.898 20.5556 23.6812 19.4762 24.2087C18.4127 24.7362 17.2222 25 15.9048 25C14.5873 25 13.4048 24.7442 12.3571 24.2327C11.3254 23.7052 10.5079 22.922 9.90476 21.8829C9.30159 20.8279 9 19.5491 9 18.0465V8H13.0714Z" fill="#DD7002"/>
</svg>
