<svg width="40" height="40" viewBox="0 0 40 40" fill="none" xmlns="http://www.w3.org/2000/svg">
<rect width="40" height="40" rx="20" fill="#EEEEEE"/>
<path d="M8 20C8 26.6274 13.3726 32 20 32C26.6274 32 32 26.6274 32 20C32 13.3726 26.6274 8 20 8C13.3726 8 8 13.3726 8 20Z" fill="#1877F2"/>
<path d="M26 20C26 16.7 23.3 14 20 14C16.7 14 14 16.7 14 20C14 23 16.175 25.475 19.025 25.925V21.725H17.525V20H19.025V18.65C19.025 17.15 19.925 16.325 21.275 16.325C21.95 16.325 22.625 16.475 22.625 16.475V17.975H21.875C21.125 17.975 20.9 18.425 20.9 18.875V20H22.55L22.25 21.725H20.825V26C23.825 25.55 26 23 26 20Z" fill="white"/>
</svg>
