<svg width="25" height="26" viewBox="0 0 25 26" fill="none" xmlns="http://www.w3.org/2000/svg">
<path fill-rule="evenodd" clip-rule="evenodd" d="M13.2493 5.24419C13.1546 5.112 13.0123 5.0256 12.8551 5.00483C12.6979 4.98407 12.5394 5.03074 12.416 5.13411C10.9614 6.35225 9.94686 8.11948 9.66362 10.134C9.15295 9.7487 8.70444 9.27928 8.33702 8.74525C8.23594 8.59834 8.07725 8.50593 7.90407 8.49312C7.7309 8.48032 7.56124 8.54847 7.44123 8.67903C6.23925 9.98669 5.5 11.7614 5.5 13.7146C5.5 17.7382 8.63401 21 12.5 21C16.366 21 19.5 17.7382 19.5 13.7146C19.5 10.7511 17.8 8.20223 15.362 7.06414C14.4993 6.62581 13.787 5.99463 13.2493 5.24419ZM15.4167 14.9291C15.4167 16.6056 14.1108 17.9647 12.5 17.9647C10.8892 17.9647 9.58333 16.6056 9.58333 14.9291C9.58333 14.5978 9.63434 14.2788 9.72864 13.9803C10.2174 14.3564 10.7793 14.6355 11.388 14.7904C11.5559 13.6565 12.1007 12.652 12.8849 11.9198C14.3138 12.1158 15.4167 13.3884 15.4167 14.9291Z" fill="#D80028"/>
<rect x="0.5" y="1" width="24" height="24" rx="12" stroke="#D80028"/>
</svg>
