<svg width="24" height="24" viewBox="0 0 24 24" fill="none" xmlns="http://www.w3.org/2000/svg">
<path fill-rule="evenodd" clip-rule="evenodd" d="M12 4C16.4183 4 20 7.58172 20 12C20 16.4183 16.4183 20 12 20C7.58172 20 4 16.4183 4 12C4 7.58172 7.58172 4 12 4ZM12 2C17.5228 2 22 6.47715 22 12C22 17.5228 17.5228 22 12 22C6.47715 22 2 17.5228 2 12C2 6.47715 6.47715 2 12 2Z" fill="#469CCC"/>
<path fill-rule="evenodd" clip-rule="evenodd" d="M11 16.9993L11 17L11 17.0007L11 17.1111C11 17.602 11.4477 18 12 18L13 18C13.5523 18 14 17.5523 14 17C14 16.4477 13.5523 16 13 16L13 11L13 10.8889C13 10.398 12.5523 10 12 10L11 10C10.4477 10 10 10.4477 10 11C10 11.5523 10.4477 12 11 12L11 16.9993ZM12 6C11.4477 6 11 6.44771 11 7C11 7.55228 11.4477 8 12 8C12.5523 8 13 7.55228 13 7C13 6.44771 12.5523 6 12 6Z" fill="#469CCC"/>
</svg>
