<svg width="40" height="40" viewBox="0 0 40 40" fill="none" xmlns="http://www.w3.org/2000/svg">
<rect width="40" height="40" rx="20" fill="#EEEEEE"/>
<path d="M8 20C8 26.6274 13.3726 32 20 32C26.6274 32 32 26.6274 32 20C32 13.3726 26.6274 8 20 8C13.3726 8 8 13.3726 8 20Z" fill="#F00073"/>
<path d="M20 14.9004C21.65 14.9004 21.875 14.9004 22.55 14.9004C23.15 14.9004 23.45 15.0504 23.675 15.1254C23.975 15.2754 24.2 15.3504 24.425 15.5754C24.65 15.8004 24.8 16.0254 24.875 16.3254C24.95 16.5504 25.025 16.8504 25.1 17.4504C25.1 18.1254 25.1 18.2754 25.1 20.0004C25.1 21.7254 25.1 21.8754 25.1 22.5504C25.1 23.1504 24.95 23.4504 24.875 23.6754C24.725 23.9754 24.65 24.2004 24.425 24.4254C24.2 24.6504 23.975 24.8004 23.675 24.8754C23.45 24.9504 23.15 25.0254 22.55 25.1004C21.875 25.1004 21.725 25.1004 20 25.1004C18.275 25.1004 18.125 25.1004 17.45 25.1004C16.85 25.1004 16.55 24.9504 16.325 24.8754C16.025 24.7254 15.8 24.6504 15.575 24.4254C15.35 24.2004 15.2 23.9754 15.125 23.6754C15.05 23.4504 14.975 23.1504 14.9 22.5504C14.9 21.8754 14.9 21.7254 14.9 20.0004C14.9 18.2754 14.9 18.1254 14.9 17.4504C14.9 16.8504 15.05 16.5504 15.125 16.3254C15.275 16.0254 15.35 15.8004 15.575 15.5754C15.8 15.3504 16.025 15.2004 16.325 15.1254C16.55 15.0504 16.85 14.9754 17.45 14.9004C18.125 14.9004 18.35 14.9004 20 14.9004ZM20 13.7754C18.275 13.7754 18.125 13.7754 17.45 13.7754C16.775 13.7754 16.325 13.9254 15.95 14.0754C15.575 14.2254 15.2 14.4504 14.825 14.8254C14.45 15.2004 14.3 15.5004 14.075 15.9504C13.925 16.3254 13.85 16.7754 13.775 17.4504C13.775 18.1254 13.775 18.3504 13.775 20.0004C13.775 21.7254 13.775 21.8754 13.775 22.5504C13.775 23.2254 13.925 23.6754 14.075 24.0504C14.225 24.4254 14.45 24.8004 14.825 25.1754C15.2 25.5504 15.5 25.7004 15.95 25.9254C16.325 26.0754 16.775 26.1504 17.45 26.2254C18.125 26.2254 18.35 26.2254 20 26.2254C21.65 26.2254 21.875 26.2254 22.55 26.2254C23.225 26.2254 23.675 26.0754 24.05 25.9254C24.425 25.7754 24.8 25.5504 25.175 25.1754C25.55 24.8004 25.7 24.5004 25.925 24.0504C26.075 23.6754 26.15 23.2254 26.225 22.5504C26.225 21.8754 26.225 21.6504 26.225 20.0004C26.225 18.3504 26.225 18.1254 26.225 17.4504C26.225 16.7754 26.075 16.3254 25.925 15.9504C25.775 15.5754 25.55 15.2004 25.175 14.8254C24.8 14.4504 24.5 14.3004 24.05 14.0754C23.675 13.9254 23.225 13.8504 22.55 13.7754C21.875 13.7754 21.725 13.7754 20 13.7754Z" fill="white"/>
<path d="M20 16.7754C18.2 16.7754 16.775 18.2004 16.775 20.0004C16.775 21.8004 18.2 23.2254 20 23.2254C21.8 23.2254 23.225 21.8004 23.225 20.0004C23.225 18.2004 21.8 16.7754 20 16.7754ZM20 22.1004C18.875 22.1004 17.9 21.2004 17.9 20.0004C17.9 18.8754 18.8 17.9004 20 17.9004C21.125 17.9004 22.1 18.8004 22.1 20.0004C22.1 21.1254 21.125 22.1004 20 22.1004Z" fill="white"/>
<path d="M23.3 17.4504C23.7142 17.4504 24.05 17.1146 24.05 16.7004C24.05 16.2862 23.7142 15.9504 23.3 15.9504C22.8858 15.9504 22.55 16.2862 22.55 16.7004C22.55 17.1146 22.8858 17.4504 23.3 17.4504Z" fill="white"/>
</svg>
