<svg width="16" height="16" viewBox="0 0 16 16" fill="none" xmlns="http://www.w3.org/2000/svg">
<rect width="16" height="16" rx="8" fill="white"/>
<ellipse cx="7.99992" cy="11.3337" rx="0.666667" ry="0.666667" fill="#C7C7C7"/>
<path fill-rule="evenodd" clip-rule="evenodd" d="M7.99992 13.333C10.9454 13.333 13.3333 10.9452 13.3333 7.99967C13.3333 5.05416 10.9454 2.66634 7.99992 2.66634C5.0544 2.66634 2.66659 5.05416 2.66659 7.99967C2.66659 10.9452 5.0544 13.333 7.99992 13.333ZM7.99992 14.6663C11.6818 14.6663 14.6666 11.6816 14.6666 7.99967C14.6666 4.31778 11.6818 1.33301 7.99992 1.33301C4.31802 1.33301 1.33325 4.31778 1.33325 7.99967C1.33325 11.6816 4.31802 14.6663 7.99992 14.6663Z" fill="#C7C7C7"/>
<path d="M6 6.50759C6 6.22871 6.08133 5.9469 6.244 5.66215C6.40667 5.37446 6.644 5.13668 6.956 4.94881C7.268 4.76093 7.632 4.66699 8.048 4.66699C8.43467 4.66699 8.776 4.74625 9.072 4.90477C9.368 5.06036 9.596 5.27319 9.756 5.54326C9.91867 5.81333 10 6.10689 10 6.42393C10 6.67345 9.95333 6.89215 9.86 7.08003C9.76933 7.2679 9.66 7.43083 9.532 7.5688C9.40667 7.70383 9.18 7.93281 8.852 8.25572C8.76133 8.34672 8.688 8.42745 8.632 8.4979C8.57867 8.56542 8.53867 8.62854 8.512 8.68725C8.48533 8.74302 8.464 8.80027 8.448 8.85898C8.43467 8.91475 8.41333 9.01456 8.384 9.15841C8.33333 9.4637 8.17467 9.61635 7.908 9.61635C7.76933 9.61635 7.652 9.56645 7.556 9.46664C7.46267 9.36683 7.416 9.21858 7.416 9.0219C7.416 8.77531 7.45067 8.56249 7.52 8.38342C7.58933 8.20141 7.68133 8.04289 7.796 7.90786C7.91067 7.76988 8.06533 7.60696 8.26 7.41908C8.43067 7.25469 8.55333 7.1314 8.628 7.0492C8.70533 6.96407 8.76933 6.87013 8.82 6.76739C8.87333 6.66464 8.9 6.55309 8.9 6.43273C8.9 6.19789 8.82 5.99974 8.66 5.83828C8.50267 5.67683 8.29867 5.5961 8.048 5.5961C7.75467 5.5961 7.53867 5.67829 7.4 5.84269C7.26133 6.00414 7.144 6.24339 7.048 6.56043C6.95733 6.89215 6.78533 7.05801 6.532 7.05801C6.38267 7.05801 6.256 7.00077 6.152 6.88628C6.05067 6.76886 6 6.64263 6 6.50759Z" fill="#C7C7C7" stroke="#C7C7C7" stroke-width="0.5"/>
</svg>
