<svg width="25" height="26" viewBox="0 0 25 26" fill="none" xmlns="http://www.w3.org/2000/svg">
<path fill-rule="evenodd" clip-rule="evenodd" d="M10.4543 9.63517C12.649 6.81559 16.0768 5.00016 19.9285 5C20.0801 4.99999 20.2255 5.06019 20.3326 5.16736C20.4398 5.27452 20.5 5.41987 20.5 5.57143C20.5 9.42334 18.6846 12.8514 15.8649 15.0464C15.9068 15.3107 15.9286 15.5816 15.9286 15.8571C15.9286 18.6975 13.626 21 10.7857 21C10.4701 21 10.2143 20.7442 10.2143 20.4286V17.2807C10.2072 17.2756 10.2003 17.2704 10.1934 17.265C9.46809 16.6898 8.81085 16.0326 8.23571 15.3072C8.23011 15.3002 8.22469 15.293 8.21945 15.2857H5.07143C4.75584 15.2857 4.5 15.0299 4.5 14.7143C4.5 11.874 6.80253 9.57143 9.64285 9.57143C9.91864 9.57143 10.1897 9.59319 10.4543 9.63517ZM14.7857 9C13.8389 9 13.0714 9.76751 13.0714 10.7143C13.0714 11.6611 13.8389 12.4286 14.7857 12.4286C15.7325 12.4286 16.5 11.6611 16.5 10.7143C16.5 9.76751 15.7325 9 14.7857 9Z" fill="#D80028"/>
<path d="M7.36504 16.9938C7.618 16.8051 7.67008 16.447 7.48138 16.1941C7.29267 15.9411 6.93464 15.889 6.68168 16.0777C5.7054 16.806 5.07143 17.9719 5.07143 19.2857C5.07143 19.4956 5.08765 19.7021 5.11901 19.904C5.15721 20.1498 5.35009 20.3427 5.59594 20.3809C5.7978 20.4123 6.00434 20.4285 6.21428 20.4285C7.52806 20.4285 8.69391 19.7945 9.42221 18.8183C9.61091 18.5653 9.55882 18.2073 9.30586 18.0186C9.0529 17.8299 8.69486 17.8819 8.50616 18.1349C7.98429 18.8345 7.15205 19.2857 6.21428 19.2857C6.21428 18.3479 6.66547 17.5156 7.36504 16.9938Z" fill="#D80028"/>
<rect x="0.5" y="1" width="24" height="24" rx="12" stroke="#D80028"/>
</svg>
