<svg width="25" height="26" viewBox="0 0 25 26" fill="none" xmlns="http://www.w3.org/2000/svg">
<path fill-rule="evenodd" clip-rule="evenodd" d="M4.5 6.53846C4.5 5.68879 5.18879 5 6.03845 5H10.3461C11.1958 5 11.8846 5.68879 11.8846 6.53846V17.3077C11.8846 19.3469 10.2315 21 8.19229 21C6.15309 21 4.5 19.3469 4.5 17.3077V6.53846ZM8.19229 18.2308C8.70208 18.2308 9.11536 17.8175 9.11536 17.3077C9.11536 16.7979 8.70208 16.3846 8.19229 16.3846C7.68249 16.3846 7.26921 16.7979 7.26921 17.3077C7.26921 17.8175 7.68249 18.2308 8.19229 18.2308Z" fill="#D80028"/>
<path d="M11.4489 21H18.9615C19.8112 21 20.5 20.3112 20.5 19.4615V15.1538C20.5 14.3042 19.8112 13.6154 18.9615 13.6154H18.8469L11.6735 20.7888C11.6003 20.862 11.5254 20.9324 11.4489 21Z" fill="#D80028"/>
<path d="M13.1057 17.6158L18.4179 12.3036C19.0187 11.7027 19.0187 10.7286 18.4179 10.1278L15.3719 7.08184C14.7711 6.48103 13.797 6.48103 13.1962 7.08184L13.1152 7.16285V17.3077C13.1152 17.4112 13.112 17.5139 13.1057 17.6158Z" fill="#D80028"/>
<rect x="0.5" y="1" width="24" height="24" rx="12" stroke="#D80028"/>
</svg>
