<svg width="40" height="40" viewBox="0 0 40 40" fill="none" xmlns="http://www.w3.org/2000/svg">
<rect width="40" height="40" rx="20" fill="#EEEEEE"/>
<path d="M8 20C8 13.3726 13.3726 8 20 8C26.6274 8 32 13.3726 32 20C32 26.6274 26.6274 32 20 32C13.3726 32 8 26.6274 8 20Z" fill="black"/>
<path d="M18.8738 18.7255V18.2584C18.7137 18.237 18.551 18.2236 18.383 18.2236C16.3798 18.221 14.75 19.8521 14.75 21.8597C14.75 23.0904 15.3635 24.1796 16.3024 24.839C15.6969 24.1903 15.3262 23.3173 15.3262 22.3616C15.3262 20.3834 16.9106 18.7709 18.8738 18.7255Z" fill="#25F4EE"/>
<path d="M18.9618 24.0218C19.8554 24.0218 20.5862 23.309 20.6183 22.4227L20.6209 14.5019H22.0666C22.0373 14.339 22.0213 14.1709 22.0213 14H20.0474L20.0447 21.9208C20.0128 22.8071 19.2819 23.5199 18.3883 23.5199C18.1109 23.5199 17.8495 23.4505 17.6174 23.3277C17.9162 23.7468 18.407 24.0218 18.9618 24.0218Z" fill="#25F4EE"/>
<path d="M24.7687 17.19V16.7496C24.2166 16.7496 23.7045 16.5867 23.2723 16.3037C23.6564 16.7442 24.1766 17.0646 24.7687 17.19Z" fill="#25F4EE"/>
<path d="M23.2723 16.3039C22.8508 15.8208 22.5975 15.1907 22.5975 14.502H22.0693C22.2053 15.2548 22.6535 15.9008 23.2723 16.3039Z" fill="#FE2C55"/>
<path d="M18.3857 20.1963C17.4708 20.1963 16.7266 20.9411 16.7266 21.8568C16.7266 22.4949 17.0893 23.0501 17.6175 23.3278C17.4201 23.0555 17.3027 22.7218 17.3027 22.3587C17.3027 21.443 18.0469 20.6982 18.9618 20.6982C19.1326 20.6982 19.2979 20.7276 19.4526 20.7756V18.7574C19.2926 18.736 19.1299 18.7227 18.9618 18.7227C18.9325 18.7227 18.9058 18.7253 18.8765 18.7253V20.2737C18.7191 20.2257 18.5564 20.1963 18.3857 20.1963Z" fill="#FE2C55"/>
<path d="M24.7687 17.1904V18.7255C23.7444 18.7255 22.7948 18.3971 22.0212 17.8418V21.8596C22.0212 23.8645 20.3915 25.4983 18.3856 25.4983C17.6121 25.4983 16.8919 25.2527 16.3024 24.8389C16.9665 25.5517 17.9135 26.0002 18.9618 26.0002C20.9649 26.0002 22.5974 24.3691 22.5974 22.3615V18.3437C23.3709 18.899 24.3205 19.2274 25.3448 19.2274V17.2519C25.1447 17.2519 24.9527 17.2305 24.7687 17.1904Z" fill="#FE2C55"/>
<path d="M22.0212 21.8594V17.8416C22.7948 18.3969 23.7444 18.7253 24.7687 18.7253V17.1903C24.1765 17.0648 23.6564 16.7444 23.2723 16.3039C22.6534 15.9008 22.208 15.2548 22.0666 14.502H20.6209L20.6182 22.4227C20.5862 23.309 19.8553 24.0219 18.9618 24.0219C18.4069 24.0219 17.9188 23.7469 17.6147 23.3304C17.0866 23.0501 16.7238 22.4975 16.7238 21.8594C16.7238 20.9438 17.468 20.1989 18.3829 20.1989C18.5536 20.1989 18.719 20.2283 18.8737 20.2764V18.728C16.9105 18.7707 15.3261 20.3831 15.3261 22.3613C15.3261 23.3171 15.6969 24.1874 16.3024 24.8388C16.8919 25.2526 17.6121 25.4982 18.3856 25.4982C20.3888 25.4982 22.0212 23.8643 22.0212 21.8594Z" fill="white"/>
</svg>
