<svg width="40" height="40" viewBox="0 0 40 40" fill="none" xmlns="http://www.w3.org/2000/svg">
<rect width="40" height="40" rx="20" fill="#EEEEEE"/>
<path d="M8 20C8 26.6274 13.3726 32 20 32C26.6274 32 32 26.6274 32 20C32 13.3726 26.6274 8 20 8C13.3726 8 8 13.3726 8 20Z" fill="#1DA1F2"/>
<path d="M26 16.25C25.55 16.475 25.1 16.55 24.575 16.625C25.1 16.325 25.475 15.875 25.625 15.275C25.175 15.575 24.65 15.725 24.05 15.875C23.6 15.425 22.925 15.125 22.25 15.125C20.675 15.125 19.475 16.625 19.85 18.125C17.825 18.05 16.025 17.075 14.75 15.575C14.075 16.7 14.45 18.125 15.5 18.875C15.125 18.875 14.75 18.725 14.375 18.575C14.375 19.7 15.2 20.75 16.325 21.05C15.95 21.125 15.575 21.2 15.2 21.125C15.5 22.1 16.4 22.85 17.525 22.85C16.625 23.525 15.275 23.9 14 23.75C15.125 24.425 16.4 24.875 17.75 24.875C22.325 24.875 24.875 21.05 24.725 17.525C25.25 17.225 25.7 16.775 26 16.25Z" fill="white"/>
</svg>
