<svg width="40" height="40" viewBox="0 0 40 40" fill="none" xmlns="http://www.w3.org/2000/svg">
<rect width="40" height="40" rx="20" fill="#EEEEEE"/>
<path d="M8 20C8 26.6274 13.3726 32 20 32C26.6274 32 32 26.6274 32 20C32 13.3726 26.6274 8 20 8C13.3726 8 8 13.3726 8 20Z" fill="#FF0000"/>
<path d="M25.7 17.0748C25.55 16.5498 25.175 16.1748 24.65 16.0248C23.75 15.7998 19.925 15.7998 19.925 15.7998C19.925 15.7998 16.175 15.7998 15.2 16.0248C14.675 16.1748 14.3 16.5498 14.15 17.0748C14 18.0498 14 19.9998 14 19.9998C14 19.9998 14 21.9498 14.225 22.9248C14.375 23.4498 14.75 23.8248 15.275 23.9748C16.175 24.1998 20 24.1998 20 24.1998C20 24.1998 23.75 24.1998 24.725 23.9748C25.25 23.8248 25.625 23.4498 25.775 22.9248C26 21.9498 26 19.9998 26 19.9998C26 19.9998 26 18.0498 25.7 17.0748ZM18.8 21.7998V18.1998L21.95 19.9998L18.8 21.7998Z" fill="white"/>
</svg>
