<svg width="24" height="24" viewBox="0 0 24 24" fill="none" xmlns="http://www.w3.org/2000/svg">
<path d="M7.10244 20.3269C8.50361 21.4289 10.2266 22.027 12 22.0272C13.5939 22.0246 15.1507 21.5394 16.4708 20.6339C17.7909 19.7284 18.814 18.4438 19.4089 16.9449C20.0039 15.4459 20.1436 13.801 19.8101 12.2211C19.4766 10.6411 18.6851 9.19821 17.5371 8.07733C16.8 7.31195 16.1528 8.46002 15.7393 8.90649C15.8157 8.25018 15.7668 7.58512 15.5955 6.94749C15.3312 5.91666 14.8507 4.95573 14.1868 4.13021C13.5229 3.3047 12.6911 2.63401 11.7483 2.16389C11.5825 2.07701 11.4014 2.02413 11.2154 2.00825C11.0294 1.99237 10.8421 2.01382 10.6643 2.07137C10.4865 2.12891 10.3216 2.22142 10.1791 2.34362C10.0366 2.46581 9.9192 2.61528 9.83371 2.78348C9.74372 2.9521 9.69154 3.13877 9.6809 3.33018C9.62149 4.09932 9.3958 4.84579 9.01987 5.51661C8.64393 6.18743 8.12695 6.76615 7.50562 7.21173L7.35281 7.29373C6.31637 8.05628 5.47497 9.05914 4.89888 10.2186C4.30805 11.3596 3.99958 12.6292 4 13.9179C4.0035 14.6005 4.09107 15.28 4.26067 15.9407C4.70154 17.6819 5.70128 19.225 7.10244 20.3269Z" fill="#F99707"/>
<path d="M12 22.0273C10.2266 22.0271 8.50361 21.429 7.10244 20.327C5.70128 19.2251 4.70154 17.682 4.26067 15.9408C4.09107 15.2801 4.0035 14.6006 4 13.918C3.99958 12.6293 4.30805 11.3598 4.89888 10.2187C5.47497 9.05926 6.31637 8.0564 7.35281 7.29385L7.50562 7.21185C8.12695 6.76628 8.64393 6.18755 9.01987 5.51673C9.3958 4.84591 9.62149 4.09945 9.6809 3.3303C9.69154 3.13889 9.74372 2.95222 9.83371 2.7836C9.9192 2.6154 10.0366 2.46593 10.1791 2.34374C10.3216 2.22155 10.4865 2.12903 10.6643 2.07149C10.8421 2.01394 11.0294 1.9925 11.2154 2.00837C11.4014 2.02425 11.5825 2.07714 11.7483 2.16401C12.6911 2.63414 13.5229 3.30482 14.1868 4.13033C14.8507 4.95585 15.3312 5.91678 15.5955 6.94761C15.7668 7.58524 15.8157 8.2503 15.7393 8.90661C16.1528 8.46014 16.8 7.31208 17.5371 8.07745C18.6851 9.19833 19.4766 10.6413 19.8101 12.2212C20.1436 13.8011 20.0039 15.4461 19.4089 16.945C18.814 18.4439 17.7909 19.7285 16.4708 20.634C15.1507 21.5396 13.5939 22.0247 12 22.0273ZM11.3978 4.05923C11.2486 4.96925 10.9232 5.84035 10.4404 6.62227C9.95748 7.40419 9.32665 8.08147 8.58427 8.61504L8.4045 8.78816C7.60239 9.36731 6.9488 10.1328 6.4984 11.0205C6.04801 11.9082 5.81393 12.8924 5.81573 13.8907C5.81124 14.91 6.05131 15.9151 6.51525 16.8194C6.97919 17.7237 7.65308 18.5001 8.47887 19.0818C9.30465 19.6634 10.2576 20.0328 11.2555 20.1581C12.2534 20.2834 13.2664 20.1608 14.2073 19.801C15.1481 19.4412 15.9885 18.8549 16.6561 18.0927C17.3237 17.3304 17.7984 16.4151 18.0394 15.4255C18.2804 14.4359 18.2804 13.4017 18.0394 12.4121C17.7985 11.4225 17.3238 10.5071 16.6562 9.74488C16.3829 10.1538 16.0826 10.5434 15.7573 10.9112C15.1946 11.4937 14.5741 12.0159 13.9056 12.4693L14.2382 10.1822C14.2741 9.91956 14.2921 9.6547 14.2921 9.38952C14.2829 8.33007 14.0135 7.28964 13.5081 6.3622C13.0028 5.43476 12.2775 4.64954 11.3978 4.07745V4.05923Z" fill="#D80028"/>
<path fill-rule="evenodd" clip-rule="evenodd" d="M10.2078 10.2929C10.5983 10.6834 10.5983 11.3166 10.2078 11.7071C9.67319 12.2417 8.84343 13.6643 9.42914 15.1286C9.63426 15.6414 9.38484 16.2234 8.87206 16.4285C8.35928 16.6336 7.7773 16.3842 7.57219 15.8714C6.55791 13.3357 7.99481 11.0916 8.79356 10.2929C9.18409 9.90237 9.81725 9.90237 10.2078 10.2929Z" fill="white"/>
</svg>
